<?xml version="1.0" standalone="no"?>
<!DOCTYPE svg PUBLIC "-//W3C//DTD SVG 1.1//EN" "http://www.w3.org/Graphics/SVG/1.1/DTD/svg11.dtd" >
<svg xmlns="http://www.w3.org/2000/svg" xmlns:xlink="http://www.w3.org/1999/xlink" version="1.1">
<metadata>
Created by FontForge 20170731 at Wed Nov 14 16:33:37 2018
 By Aleksey,,,
Copyright (c) 2018 by Fontastica. All rights reserved.
</metadata>
<defs>
<font id="FocusGrotesk-HeavyItalic" horiz-adv-x="635" >
  <font-face 
    font-family="Focus Grotesk Heavy Italic"
    font-weight="900"
    font-style="italic"
    font-stretch="normal"
    units-per-em="1000"
    panose-1="0 0 10 0 0 0 0 0 0 0"
    ascent="800"
    descent="-200"
    x-height="505"
    cap-height="703"
    bbox="-112 -195 920 808"
    underline-thickness="50"
    underline-position="-200"
    unicode-range="U+000D-300B"
  />
<missing-glyph horiz-adv-x="527" 
d="M50 700h427v-700h-427v700zM263 371l186 309h-371zM457 47v605l-181 -302zM251 350l-180 300v-601zM264 329l-185 -308h370z" />
    <glyph glyph-name=".notdef" horiz-adv-x="527" 
d="M50 700h427v-700h-427v700zM263 371l186 309h-371zM457 47v605l-181 -302zM251 350l-180 300v-601zM264 329l-185 -308h370z" />
    <glyph glyph-name=".null" horiz-adv-x="0" 
 />
    <glyph glyph-name="nonmarkingreturn" horiz-adv-x="333" 
 />
    <glyph glyph-name="CR" unicode="&#xd;" horiz-adv-x="0" 
 />
    <glyph glyph-name="space" unicode=" " horiz-adv-x="280" 
 />
    <glyph glyph-name="exclam" unicode="!" horiz-adv-x="242" 
d="M75 163l80 504h-109l-80 -504h109zM83 72q3 27 -13 49.5t-52 22.5t-60 -23t-27 -49q-4 -25 12 -48t51 -23t60 22.5t29 48.5z" />
    <glyph glyph-name="quotedbl" unicode="&#x22;" horiz-adv-x="337" 
d="M0 437h91l48 230h-114zM162 437h90l50 230h-115z" />
    <glyph glyph-name="numbersign" unicode="#" horiz-adv-x="571" 
d="M454 298h-94l30 96h103l13 85h-90l60 191h-96l-60 -191h-89l59 191h-95l-59 -191h-114l-13 -85h101l-31 -96h-113l-13 -84h100l-65 -200h96l64 200h90l-63 -200h96l63 200h107zM295 394l-31 -96h-90l30 96h91z" />
    <glyph glyph-name="dollar" unicode="$" horiz-adv-x="520" 
d="M99 -11h99l12 72q86 13 141 60.5t66 114.5q11 70 -28 109.5t-124 61.5l22 141q47 -17 40 -80l-1 -7h120l2 7q13 69 -24 121.5t-120 66.5l12 73h-99l-12 -74q-81 -12 -132.5 -59.5t-61.5 -110.5q-11 -66 25 -104.5t116 -60.5l-24 -151q-59 19 -49 84l1 7h-120l-1 -7
q-14 -71 25.5 -124t126.5 -67zM188 547l-18 -114q-44 21 -37 57q6 39 55 57zM227 167l20 128q55 -20 48 -64q-9 -51 -68 -64z" />
    <glyph glyph-name="percent" unicode="%" horiz-adv-x="734" 
d="M657 712h-104l-4 -4q-10 -14 -30 -32q-22 -22 -31 -34l-530 -637h112zM345 543q9 60 -27.5 110.5t-115.5 50.5q-78 0 -132 -50.5t-63 -110.5t28 -111t115 -51t132 51t63 111zM110 543q4 27 25.5 48t51.5 21t45.5 -21t11.5 -48q-4 -26 -26 -47t-53 -21q-30 0 -44.5 20.5
t-10.5 47.5zM623 190q9 60 -27.5 110.5t-114.5 50.5t-132 -50.5t-63 -110.5t28.5 -111t115.5 -51t131 51t62 111zM389 190q4 27 25.5 48t51.5 21t45 -21t11 -48t-25.5 -47.5t-52.5 -20.5q-30 0 -44.5 20.5t-10.5 47.5z" />
    <glyph glyph-name="ampersand" unicode="&#x26;" horiz-adv-x="687" 
d="M109 375q-65 -31 -107.5 -78.5t-51.5 -102.5q-12 -80 41.5 -133.5t157.5 -53.5q112 0 201 58q28 -37 38 -48l3 -2h158l-108 134q58 79 78 205l6 38h-120l-1 -8q-6 -44 -15 -82q-8 -34 -21 -65l-89 112q131 65 145 158q10 61 -32 106t-123 45t-136.5 -44.5t-65.5 -106.5
q-9 -64 42 -132zM254 560q28 0 40.5 -16t8.5 -40q-7 -44 -83 -81q-39 47 -33 80q4 24 21.5 40.5t45.5 16.5zM289 143q-53 -35 -117 -35q-52 0 -77.5 25t-18.5 66q6 37 25.5 57t65.5 42z" />
    <glyph glyph-name="quotesingle" unicode="'" horiz-adv-x="174" 
d="M0 437h90l49 230h-114z" />
    <glyph glyph-name="parenleft" unicode="(" horiz-adv-x="276" 
d="M233 769h-123l-7 -13q-122 -211 -156 -431q-33 -208 9 -381l3 -14h118l-2 11q-52 160 -15 392q17 108 59.5 222.5t105.5 203.5z" />
    <glyph glyph-name="parenright" unicode=")" horiz-adv-x="275" 
d="M81 -56q97 175 130 381q35 223 -19 431l-3 13h-123l4 -10q35 -88 42 -209t-11 -217q-38 -234 -139 -392l-6 -11h118z" />
    <glyph glyph-name="asterisk" unicode="*" horiz-adv-x="416" 
d="M256 667h-108l-5 -94l-72 56l-66 -85l91 -42l-104 -42l38 -88l90 56l-25 -94h108l6 95l72 -56l66 86l-88 43l102 42l-39 85l-90 -56z" />
    <glyph glyph-name="plus" unicode="+" horiz-adv-x="532" 
d="M197 591l-28 -176h-184l-16 -97h184l-28 -177h105l28 177h183l16 97h-183l28 176h-105z" />
    <glyph glyph-name="comma" unicode="," horiz-adv-x="339" 
d="M138 126l-93 48l-120 -203l78 -35z" />
    <glyph glyph-name="hyphen" unicode="-" horiz-adv-x="338" 
d="M247 312h-278l-16 -99h278z" />
    <glyph glyph-name="period" unicode="." horiz-adv-x="294" 
d="M85 72q3 27 -13 49.5t-52 22.5q-35 0 -59.5 -23t-27.5 -49q-4 -25 12.5 -48t51.5 -23q36 0 60 22.5t28 48.5z" />
    <glyph glyph-name="slash" unicode="/" horiz-adv-x="446" 
d="M35 -3l386 736h-116l-386 -736h116z" />
    <glyph glyph-name="zero" unicode="0" horiz-adv-x="600" 
d="M294 709q-67 0 -121 -25.5t-87 -62.5t-57 -88t-35 -92t-18 -85q-7 -45 -9 -86t6 -92.5t29.5 -88t67.5 -62t113 -25.5q126 0 218 95q88 89 115 259q27 168 -33 258q-61 95 -189 95zM90 195q-13 58 2 159q14 92 50 158q52 96 140 96q90 0 113 -95q17 -66 3 -157
q-17 -97 -52 -159q-52 -96 -144 -96q-93 0 -112 94z" />
    <glyph glyph-name="one" unicode="1" horiz-adv-x="374" 
d="M185 554l-88 -554h124l112 706h-110l-3 -2q-29 -19 -192 -130l-9 -7l-22 -136l19 11q46 29 169 112z" />
    <glyph glyph-name="two" unicode="2" horiz-adv-x="631" 
d="M37 453h119l1 7q13 64 53.5 108.5t112.5 44.5q56 0 90 -34t26 -79q-6 -43 -40 -82q-30 -32 -57 -56q-20 -18 -62 -54l-360 -302h571l16 103h-305l167 141q56 47 87 76.5t63 77.5t39 96q14 87 -44.5 151t-171.5 64q-90 0 -160.5 -44.5t-109.5 -113.5q-19 -34 -31 -82z" />
    <glyph glyph-name="three" unicode="3" horiz-adv-x="597" 
d="M22 506h121l3 5q27 47 57.5 72.5t80.5 25.5q46 0 71 -24.5t19 -60.5q-6 -40 -52 -61.5t-103 -21.5h-82l-16 -100h10h72q81 0 130 -29.5t40 -86.5q-8 -51 -55.5 -86.5t-112.5 -35.5q-69 0 -95 29.5t-34 89.5l-1 6h-120l2 -25q19 -203 228 -203q120 0 206.5 68t100.5 159
q8 51 -13.5 97t-70.5 75q80 49 91 127q12 74 -44.5 129.5t-153.5 55.5q-106 0 -175 -56t-100 -140z" />
    <glyph glyph-name="four" unicode="4" horiz-adv-x="653" 
d="M484 719l-541 -566h380l-24 -153h124l24 153h89l17 105h-89l73 461h-53zM340 258h-150l180 188z" />
    <glyph glyph-name="five" unicode="5" horiz-adv-x="614" 
d="M552 617l16 104h-378l-144 -381l18 6q122 42 194 42q70 0 104.5 -37.5t25.5 -93.5q-10 -58 -62.5 -104t-124.5 -46q-104 0 -120 98l-2 16h-125v-8q-5 -89 54 -149t174 -60q133 0 224 73.5t107 175.5q15 94 -42.5 166t-179.5 72q-33 0 -66 -6l49 132h278z" />
    <glyph glyph-name="six" unicode="6" horiz-adv-x="574" 
d="M477 707l-148 -3l-253 -275q-108 -117 -122 -207q-14 -89 44.5 -156.5t173.5 -67.5q116 0 199.5 67.5t96.5 156.5q9 54 -8.5 103.5t-68 84.5t-125.5 35q-9 0 -27 -2zM78 224q7 47 50.5 83.5t102.5 36.5t90.5 -36t24.5 -84q-8 -48 -51 -84t-102 -36q-58 0 -90.5 37
t-24.5 83z" />
    <glyph glyph-name="seven" unicode="7" horiz-adv-x="614" 
d="M586 711h-552l-17 -105h353l-450 -603l132 -3z" />
    <glyph glyph-name="eight" unicode="8" horiz-adv-x="599" 
d="M186 1q122 0 207 64t100 157q17 104 -89 168q91 52 103 134q12 78 -45.5 134t-159.5 56q-98 0 -175.5 -56.5t-89.5 -131.5q-12 -84 62 -137q-128 -63 -146 -173q-14 -90 51 -152.5t182 -62.5zM161 527q5 36 42 60.5t85 24.5q49 0 76.5 -24t21.5 -61q-6 -36 -43.5 -64
t-82.5 -28t-75 28.5t-24 63.5zM75 215q8 49 57 85t111 36q61 0 98.5 -34t29.5 -81q-8 -50 -55 -84.5t-113 -34.5q-65 0 -100.5 31.5t-27.5 81.5z" />
    <glyph glyph-name="nine" unicode="9" horiz-adv-x="582" 
d="M-12 -1l150 1l256 280q110 119 125 210q14 90 -45.5 159t-176.5 69q-118 0 -202 -68t-98 -159q-14 -87 39.5 -156.5t166.5 -69.5q19 0 28 1zM394 488q-7 -48 -51.5 -85t-104.5 -37t-92.5 36.5t-25.5 85.5q8 49 52 86t105 37q60 0 92.5 -37.5t24.5 -85.5z" />
    <glyph glyph-name="colon" unicode=":" horiz-adv-x="302" 
d="M150 437q4 26 -12 48.5t-52 22.5q-35 0 -59.5 -22.5t-28.5 -48.5t13 -48t52 -22q36 0 59.5 21.5t27.5 48.5zM93 72q3 27 -13 49.5t-52 22.5q-35 0 -59.5 -23t-27.5 -49q-4 -25 12.5 -48t51.5 -23q36 0 60 22.5t28 48.5z" />
    <glyph glyph-name="semicolon" unicode=";" horiz-adv-x="339" 
d="M180 437q4 26 -12 48.5t-51 22.5t-59.5 -22.5t-28.5 -48.5t12.5 -48t52.5 -22q35 0 59 22t27 48zM138 126l-93 48l-120 -203l78 -35z" />
    <glyph glyph-name="less" unicode="&#x3c;" horiz-adv-x="540" 
d="M417 114l17 107l-300 144l346 147l17 106l-514 -213l-12 -78z" />
    <glyph glyph-name="equal" unicode="=" horiz-adv-x="532" 
d="M456 407l15 97h-472l-15 -97h472zM427 228l16 97h-472l-16 -97h472z" />
    <glyph glyph-name="greater" unicode="&#x3e;" horiz-adv-x="540" 
d="M300 365l-346 -144l-17 -107l514 213l12 78l-446 213l-17 -106z" />
    <glyph glyph-name="question" unicode="?" horiz-adv-x="512" 
d="M417 476q11 75 -34.5 129t-141.5 54q-71 0 -130.5 -32.5t-90.5 -84.5q-20 -34 -31 -98l-3 -21h114l1 7q5 29 10.5 48.5t18.5 40.5t36 31.5t57 10.5q42 0 62.5 -21.5t15.5 -54.5q-5 -29 -20 -44q-11 -10 -32 -28.5t-28 -24.5q-40 -34 -59 -55q-48 -55 -61 -147l-4 -20h115
l2 7q2 18 6 36q3 20 11 35q12 26 42 54q4 4 57 46q76 62 87 132zM219 81q4 26 -12 48.5t-52 22.5q-35 0 -59 -22.5t-28 -48.5t12.5 -48t52.5 -22q35 0 58.5 22t27.5 48z" />
    <glyph glyph-name="at" unicode="@" horiz-adv-x="751" 
d="M401 510l-2 -14q-29 20 -71 20q-44 0 -80 -17.5t-58 -45.5t-34.5 -57t-17.5 -58q-7 -27 -2 -59t16.5 -59.5t42.5 -46.5t76 -19q61 0 103 37q28 -40 88 -40q51 0 91.5 23.5t63.5 61.5t35.5 71.5t17.5 67.5q9 59 -4.5 113t-47.5 97t-96 68.5t-144 25.5q-88 0 -162.5 -30.5
t-123.5 -80.5t-79 -108.5t-40 -120.5q-6 -51 -3.5 -100t24.5 -93t57 -77t93 -52.5t132 -19.5q107 0 157 25l4 2l15 95l-16 -7q-56 -24 -146 -24q-108 0 -169 63q-63 63 -45 185q15 97 90 174.5t191 77.5q115 0 169 -60.5t40 -151.5q-10 -50 -24 -81q-24 -53 -55 -53
q-21 0 -17 20l39 248h-108zM251 279q-7 22 -3 57q6 32 21 57q20 30 54 30q33 0 45 -30q10 -23 4 -57q-6 -36 -22 -58q-22 -29 -55 -29q-34 0 -44 30z" />
    <glyph glyph-name="A" unicode="A" horiz-adv-x="823" 
d="M543 0h139l-3 10q-29 78 -79.5 213.5t-92.5 249t-77 214.5l-15 44l-29 -44l-192 -282q-24 -36 -114.5 -170t-140.5 -206l-20 -29h137l4 5q15 22 43.5 66.5t43.5 66.5h348zM375 489q35 -99 82 -238q-19 0 -58.5 -0.5t-59.5 -0.5t-59.5 0.5t-58.5 0.5l99 152q2 4 22.5 36.5
t32.5 49.5z" />
    <glyph glyph-name="B" unicode="B" horiz-adv-x="684" 
d="M578 230q6 43 -5 76t-39 69q77 56 91 141q6 40 -6.5 81.5t-50 74t-94.5 32.5h-443l-112 -704h442q61 0 109 41.5t77 93.5q22 44 31 95zM508 530l-4 -26q-3 -19 -29 -46t-45 -27h-323l28 174l322 -3q20 0 37 -26.5t14 -45.5zM57 110l32 207l318 -2l7 -3l10 -5
q46 -26 35 -93q-4 -30 -19.5 -57t-41.5 -38l-15 -6q-1 0 -3 -1q0 -1 -1 -2h-322z" />
    <glyph glyph-name="C" unicode="C" horiz-adv-x="783" 
d="M690 301h-116l-3 -5q-36 -78 -107.5 -133.5t-164.5 -55.5q-112 0 -168.5 77t-41.5 169q14 92 93.5 169.5t190.5 77.5q91 0 148 -54t66 -128q1 -3 1 -10v-6h110l1 8q6 38 -6 76q-28 93 -104 155t-197 62q-85 0 -161 -33t-128 -84.5t-85.5 -112.5t-42.5 -120
q-10 -60 5 -121t51.5 -112.5t103 -83.5t151.5 -32q109 0 198 53t147 135q22 33 47 84z" />
    <glyph glyph-name="D" unicode="D" horiz-adv-x="658" 
d="M-71 0q36 0 108.5 -0.5t109.5 -0.5q72 0 137 20.5t113 55t85.5 80t59.5 95t30 99.5q10 43 2 95.5t-26 99t-58.5 85.5t-95.5 56q-44 13 -114 18q-39 2 -116 2h-133l-112 -705h10zM135 603h77q70 0 108 -10q53 -13 87.5 -55.5t45 -91.5t3.5 -95q-9 -54 -43.5 -109t-96 -95
t-131.5 -40h-131z" />
    <glyph glyph-name="E" unicode="E" 
d="M89 317h384l18 111h-384l28 175h455l15 100h-575l-111 -703h575l17 107h-455z" />
    <glyph glyph-name="F" unicode="F" 
d="M491 428h-384l28 175h455l15 100h-575l-111 -703h120l50 317h384z" />
    <glyph glyph-name="G" unicode="G" horiz-adv-x="779" 
d="M589 405h113l-1 23q-4 107 -88.5 190.5t-221.5 83.5q-85 0 -160.5 -32.5t-127.5 -84.5t-85.5 -112t-42.5 -119q-8 -38 -2.5 -78.5t17.5 -79.5t38 -74t59.5 -61t82 -41.5t104.5 -15.5q133 0 245.5 77.5t150.5 179.5q14 35 21 80l5 30h-393l-18 -111h268
q-37 -64 -108.5 -108.5t-152.5 -44.5q-74 0 -125 39.5t-69 94.5t-9 112q15 93 95 170t193 77q91 0 147.5 -57t63.5 -132z" />
    <glyph glyph-name="H" unicode="H" 
d="M442 428h-335l43 275h-120l-111 -703h120l50 317h335l-50 -317h120l111 703h-120z" />
    <glyph glyph-name="I" unicode="I" horiz-adv-x="180" 
d="M39 0l111 703h-120l-111 -703h120z" />
    <glyph glyph-name="J" unicode="J" horiz-adv-x="423" 
d="M392 703h-119l-1 -7q-17 -110 -53 -330l-18 -120q-6 -42 -11 -62q-8 -29 -19 -45q-22 -35 -88 -35q-64 0 -120 58l-16 16l-19 -125l1 -1q17 -24 58.5 -37t82.5 -13q64 0 110 16t73 47t41 65t21 80q26 162 76 486z" />
    <glyph glyph-name="K" unicode="K" horiz-adv-x="651" 
d="M333 0h177l-33 35q-24 26 -73.5 69.5t-67.5 61.5q-34 33 -104.5 94.5t-102.5 92.5q31 25 70 53l81 55q239 167 324 230l16 12h-178l-7 -5l-320 -225l35 230h-120l-111 -703h120l1 8q26 161 37 223q242 -219 250 -226z" />
    <glyph glyph-name="L" unicode="L" horiz-adv-x="564" 
d="M56 107l94 596h-120l-111 -703h504l17 107h-384z" />
    <glyph glyph-name="M" unicode="M" horiz-adv-x="687" 
d="M287 268l-18 -29q-3 8 -5.5 17.5t-5 21.5t-4.5 18l-36 133q-10 37 -35.5 125t-37.5 136l-3 13h-112l-111 -703h120l3 20q42 244 62 366l126 -367l6 -19l12 19l242 376l-10 -52l-54 -343h120l111 703h-110l-7 -12q-15 -23 -59 -97l-98 -167q-15 -24 -31 -50.5t-35 -58.5
t-30 -50z" />
    <glyph glyph-name="N" unicode="N" 
d="M605 703h-122l-1 -7q-8 -47 -21 -140.5t-20 -140.5l-31 -195q-166 287 -261 474l-5 10h-113l-109 -704h120l76 481q82 -151 176 -314q44 -82 88 -157q0 -1 4 -7l2 -3h106z" />
    <glyph glyph-name="O" unicode="O" horiz-adv-x="782" 
d="M282 5q85 0 160.5 32.5t127 84.5t85 112.5t42.5 119.5q5 47 0.5 95.5t-29 94t-60 81t-92 57t-125.5 21.5q-85 0 -160.5 -33t-127.5 -84.5t-85.5 -112t-42.5 -119.5t5.5 -119.5t50.5 -112.5t101.5 -84.5t149.5 -32.5zM376 600q112 0 167 -76t41 -168q-15 -93 -95 -171
t-192 -78q-76 0 -128 39.5t-70.5 95t-9.5 113.5q15 92 95 168.5t192 76.5z" />
    <glyph glyph-name="P" unicode="P" horiz-adv-x="642" 
d="M39 0l50 317q30 0 90 0.5t90 0.5q89 0 104 1q29 2 64 14q64 23 100 73t45 105q12 75 -24.5 132t-130.5 60q-19 1 -119 1h-252h-25l-112 -704h120zM106 422l29 185l275 -2q3 0 9 -3l14 -6q41 -20 32 -81q-11 -67 -62 -87l-10 -4q-4 -2 -6 -2h-281z" />
    <glyph glyph-name="Q" unicode="Q" horiz-adv-x="802" 
d="M582 -9l89 73l-5 5q-23 22 -69 79q85 104 99 201q5 47 1 95.5t-28.5 94.5t-59 82t-91.5 58t-126 22q-85 0 -161 -33t-128 -84.5t-85.5 -112.5t-42.5 -120q-5 -47 -0.5 -95.5t29 -94t60 -81t92 -57t124.5 -21.5q112 0 212 60q7 4 13 8l6 3zM581 341q-9 -60 -51 -116
q-60 65 -73 82l-6 8l-90 -74l5 -5q8 -8 17 -18t19 -21.5t16 -18.5l12 -15t13 -14l-7 -4q-10 -6 -15 -8q-38 -19 -62 -26t-61 -7q-76 0 -128.5 39t-71 94t-9.5 113q14 94 94 170.5t194 76.5q60 0 104.5 -24t67.5 -62t31 -82t1 -88z" />
    <glyph glyph-name="R" unicode="R" horiz-adv-x="658" 
d="M517 0l-149 319q34 1 69 14q65 24 101 73t44 105q12 75 -24.5 132t-130.5 60q-20 1 -124 1h-247h-25l-112 -704h120l50 317l139 1l150 -318h139zM106 422l29 185l275 -2q3 0 9 -3l14 -6q41 -20 32 -81q-11 -67 -62 -87l-10 -4q-4 -2 -6 -2h-281z" />
    <glyph glyph-name="S" unicode="S" 
d="M434 469h112l4 20q0 2 1.5 13.5t1.5 17.5q2 18 -1 33q-13 71 -74.5 109.5t-158.5 38.5q-117 0 -202.5 -55t-100.5 -145q-6 -38 3.5 -67.5t26 -47.5t47 -33t56.5 -22.5t64 -15.5q56 -11 77 -16q38 -7 65 -20q59 -24 51 -77q-8 -49 -59.5 -73.5t-121.5 -24.5
q-81 0 -121 35.5t-32 98.5l1 7h-115l-5 -34q-8 -51 17 -99.5t77 -75.5q61 -32 164 -32q126 0 213.5 54t102.5 150q8 48 -5.5 83.5t-46 57t-65.5 33.5t-80 22q-57 11 -78 16q-45 9 -66 18q-59 23 -53 68q7 45 58.5 69.5t115.5 24.5q74 0 104 -32t25 -92z" />
    <glyph glyph-name="T" unicode="T" 
d="M269 0l94 593h225l17 110h-575l-17 -110h230l-94 -593h120z" />
    <glyph glyph-name="U" unicode="U" horiz-adv-x="591" 
d="M-45 216q-16 -99 41.5 -158.5t186.5 -59.5q13 0 29 2l-1 -1l23 2q106 10 172 72.5t79 143.5l76 486h-120l-76 -486q-17 -104 -164 -104q-71 0 -102.5 25t-23.5 78l76 487h-121l-1 -7q-8 -53 -33.5 -221t-40.5 -259z" />
    <glyph glyph-name="V" unicode="V" horiz-adv-x="606" 
d="M227 221l-72 482h-125l107 -703h111l3 6q39 84 147 314.5t166 356.5l12 26h-125l-7 -14q-37 -78 -108.5 -234t-108.5 -234z" />
    <glyph glyph-name="W" unicode="W" horiz-adv-x="950" 
d="M920 703h-125l-7 -14q-10 -21 -220 -473l-46 487h-93l-2 -6l-5 -10q-38 -89 -104 -253.5t-89 -219.5l-74 489h-125l5 -25q22 -143 64 -431q30 -193 35 -231v-10v-6h132l2 6q1 2 2 5t2 5q28 72 81.5 202.5t72.5 177.5q20 -196 36 -380v-5t-1 -5l1 -6h132l2 6q1 2 2 5t2 5
q9 22 92 198q41 88 116.5 249t100.5 214z" />
    <glyph glyph-name="X" unicode="X" horiz-adv-x="734" 
d="M698 703h-142l-7 -8l-222 -241q-98 160 -146 241l-6 8h-141l7 -11q104 -185 196 -339l-318 -353l148 1l4 4l4 6l220 241l148 -251l150 -1l-8 12q-28 41 -76 129q-13 25 -124 212z" />
    <glyph glyph-name="Y" unicode="Y" horiz-adv-x="727" 
d="M697 699l-140 2l-231 -257l-149 257h-147l148 -252q3 -4 42 -59q21 -29 28 -60q-1 -1 -1 -2v-9q-3 -13 -6 -35q-7 -49 -17 -106q-19 -125 -28 -170l-1 -8h120l1 8q4 21 27 171q10 54 17 107q4 20 6 35q1 4 1 9l1 2q16 31 46 59q47 44 59 59z" />
    <glyph glyph-name="Z" unicode="Z" 
d="M13 593h412q-54 -55 -153.5 -155t-180.5 -182t-152 -155l-5 -6l-15 -95h575l18 110h-412q109 112 331 336q77 80 155 158q0 1 2 3l3 2l14 94h-575z" />
    <glyph glyph-name="bracketleft" unicode="[" horiz-adv-x="249" 
d="M206 757h-189l-129 -816h189l15 98h-82l99 620h82z" />
    <glyph glyph-name="backslash" unicode="\" horiz-adv-x="600" 
d="M459 -3l-305 736h-119l307 -736h117z" />
    <glyph glyph-name="bracketright" unicode="]" horiz-adv-x="249" 
d="M-69 -59h189l129 816h-189l-15 -98h82l-99 -620h-82z" />
    <glyph glyph-name="asciicircum" unicode="^" horiz-adv-x="607" 
d="M352 752h-82l-310 -492h106l222 353l111 -353h108z" />
    <glyph glyph-name="underscore" unicode="_" horiz-adv-x="537" 
d="M395 -7h-477l-13 -84h477z" />
    <glyph glyph-name="a" unicode="a" horiz-adv-x="595" 
d="M422 505l-7 -45q-59 45 -148 45q-123 0 -207.5 -77.5t-99.5 -172.5q-7 -44 4 -88.5t38 -82t76 -61t112 -23.5q82 0 160 48l-8 -50h112l79 507h-111zM383 256q-10 -59 -60.5 -107t-120.5 -48t-104.5 48.5t-25.5 107.5q9 57 59 104.5t119 47.5q70 0 106 -48t27 -105z" />
    <glyph glyph-name="b" unicode="b" horiz-adv-x="596" 
d="M29 -2l8 52q66 -52 147 -52q126 0 211 79.5t101 177.5q9 61 -11 117.5t-77 96.5t-142 40t-163 -49l38 243h-110l-112 -705h110zM200 101q-69 0 -103.5 48.5t-25.5 106.5q9 57 59.5 105t119.5 48q70 0 105.5 -47.5t26.5 -104.5q-9 -58 -60.5 -107t-121.5 -49z" />
    <glyph glyph-name="c" unicode="c" horiz-adv-x="596" 
d="M-41 251q-9 -60 10.5 -115.5t75.5 -95t138 -39.5q108 0 182.5 60t115.5 147l11 26h-115l-7 -16q-15 -28 -20 -35q-26 -36 -66 -59t-86 -23q-69 0 -102 48.5t-24 106.5t57.5 104.5t118.5 46.5q62 0 95 -37.5t41 -91.5l1 -5h113v8q-3 42 -17 79.5t-40.5 71t-72 53.5
t-105.5 20q-124 0 -206.5 -78.5t-97.5 -175.5z" />
    <glyph glyph-name="d" unicode="d" horiz-adv-x="596" 
d="M268 509q-64 0 -120 -23t-94.5 -60.5t-62.5 -81.5t-31 -89t3 -89.5t36.5 -82.5t75.5 -61.5t113 -23.5q81 0 164 52l-8 -52h111l110 705h-111l-37 -243q-64 49 -149 49zM204 101q-70 0 -105 49t-26 107q9 57 59.5 104.5t119.5 47.5q70 0 105.5 -48t26.5 -105
q-9 -58 -59.5 -106.5t-120.5 -48.5z" />
    <glyph glyph-name="e" unicode="e" horiz-adv-x="596" 
d="M350 183q5 7 20 35l7 16h115l-11 -26q-41 -87 -115.5 -147t-182.5 -60q-82 0 -138 39.5t-75.5 95t-10.5 115.5q15 97 97.5 175.5t206.5 78.5q110 0 167 -61.5t67 -149.5v-2l1 -14v-5l1 -17v-1h-427q-9 -58 24.5 -106t101.5 -48q46 0 86 23t66 59zM248 407q-71 0 -125 -52
h232q-38 52 -107 52z" />
    <glyph glyph-name="f" unicode="f" horiz-adv-x="449" 
d="M311 507h-110l6 32q3 18 11 31q19 28 74 28q29 0 49 -10q9 -4 19 -12q4 -2 20 -16l15 -13l19 123l-4 2l-6 3q-53 27 -114 27q-56 0 -107.5 -26.5t-73.5 -66.5q-12 -20 -21 -55q-3 -12 -10 -47h-79l-17 -111h80l-63 -396h122l63 396h110z" />
    <glyph glyph-name="g" unicode="g" horiz-adv-x="595" 
d="M422 505l-7 -46q-62 46 -148 46q-122 0 -207 -77.5t-100 -172.5q-10 -59 11.5 -116.5t79 -98t139.5 -40.5q81 0 160 49l-5 -31q-8 -51 -53.5 -79t-114.5 -28q-39 0 -63 6t-37.5 22t-19.5 34t-11 50v6h-109l-2 -8q-11 -96 37.5 -154.5t171.5 -58.5q279 0 313 210l75 480
l1 7h-111zM202 101q-70 0 -104.5 48.5t-25.5 107.5q9 57 59 104.5t119 47.5q70 0 106 -48t27 -105q-10 -58 -60.5 -106.5t-120.5 -48.5z" />
    <glyph glyph-name="h" unicode="h" horiz-adv-x="571" 
d="M314 0h113l1 7q6 38 24.5 143t27.5 162q7 43 -8 87t-52 69q-60 43 -164 43q-86 0 -147 -28l34 220h-113l-111 -703h113l1 8q34 206 50 309q7 43 51.5 67t103.5 24q61 0 96.5 -24t28.5 -68q-46 -294 -48 -308z" />
    <glyph glyph-name="i" unicode="i" horiz-adv-x="210" 
d="M100 669q-33 0 -57.5 -22.5t-28.5 -46.5q-3 -25 14 -47.5t50 -22.5t59 23t29 47q4 23 -14.5 46t-51.5 23zM138 511h-124l-81 -513h124z" />
    <glyph glyph-name="j" unicode="j" horiz-adv-x="396" 
d="M287 674q-32 0 -57.5 -23t-28.5 -46q-4 -25 13.5 -47.5t50.5 -22.5t58.5 22.5t29.5 47.5q3 24 -15 46.5t-51 22.5zM-82 -6l-21 -135l2 -2q67 -52 125 -52q54 0 106 33q71 43 98 113q11 24 18 63q5 20 11 64q12 71 33.5 213t32.5 213l1 7h-121l-71 -458q-6 -31 -8 -40
q-6 -27 -14 -42q-25 -45 -70 -45q-40 0 -63 13q-10 8 -20 17q-3 3 -10.5 11t-13.5 12z" />
    <glyph glyph-name="k" unicode="k" horiz-adv-x="607" 
d="M73 148l198 -148h192l-335 256q211 127 394 239l21 13h-199l-8 -5q-75 -46 -227 -138l53 338h-128l-111 -701h125z" />
    <glyph glyph-name="l" unicode="l" horiz-adv-x="186" 
d="M33 703l-112 -701h123l112 701h-123z" />
    <glyph glyph-name="m" unicode="m" horiz-adv-x="799" 
d="M548 0h108l1 8q6 34 16.5 97t19 114.5t15.5 97.5q19 113 -53 161q-53 35 -127 35q-98 0 -167 -60q-48 58 -147 58q-60 0 -107 -23l3 17h-111l-80 -505h111l51 322q6 39 36.5 62.5t79.5 23.5t71 -25.5t16 -65.5l-49 -317h109l1 8q8 48 25 148.5t25 153.5q16 100 115 100
q49 0 71.5 -25.5t16.5 -65.5q-8 -50 -24 -154t-25 -157z" />
    <glyph glyph-name="n" unicode="n" horiz-adv-x="571" 
d="M314 0h113l1 7q6 38 24.5 143t27.5 162q7 43 -8 87t-52 69q-60 43 -164 43q-86 0 -147 -28l3 22h-113l-80 -505h113l1 8q34 206 50 309q7 43 51.5 67t103.5 24q61 0 96.5 -24t28.5 -68q-46 -294 -48 -308z" />
    <glyph glyph-name="o" unicode="o" horiz-adv-x="591" 
d="M267 511q-62 0 -118.5 -24t-94.5 -62t-62.5 -82t-31.5 -87q-9 -59 11 -115.5t76.5 -97t137.5 -40.5q63 0 119 24t94 62t62 82t31 88q9 59 -10 115t-75 96.5t-139 40.5zM72 256q9 58 59 105.5t120 47.5t103.5 -47t24.5 -105q-10 -59 -60 -106t-121 -47q-68 0 -101.5 47
t-24.5 105z" />
    <glyph glyph-name="p" unicode="p" horiz-adv-x="597" 
d="M185 -5q125 0 210 78.5t101 176.5q9 61 -11 118t-77.5 97.5t-142.5 40.5q-81 0 -164 -52l8 52h-110l-110 -698h110l37 237q67 -50 149 -50zM249 403q70 0 105 -48.5t26 -106.5t-59 -105.5t-121 -47.5q-70 0 -105 48t-25 106q9 58 59 106t120 48z" />
    <glyph glyph-name="q" unicode="q" horiz-adv-x="597" 
d="M424 506l-8 -52q-64 52 -148 52q-124 0 -209 -79.5t-100 -176.5q-10 -61 9.5 -117.5t76.5 -97t141 -40.5q85 0 165 49l-37 -236h112l110 698h-112zM252 403q70 0 105.5 -48t26.5 -106q-10 -58 -61 -106t-121 -48q-69 0 -104.5 48t-26.5 105q9 58 60 106.5t121 48.5z" />
    <glyph glyph-name="r" unicode="r" horiz-adv-x="414" 
d="M335 390l17 111l-7 1q-54 9 -89 9q-86 0 -147 -28l3 22h-113l-80 -505h113l1 8q34 206 50 309q7 43 51.5 67t103.5 24q28 0 84 -14z" />
    <glyph glyph-name="s" unicode="s" horiz-adv-x="495" 
d="M278 321h110l1 7q4 24 4 34q3 16 1 36q-9 53 -57 83t-119 30q-89 0 -154.5 -42.5t-75.5 -110.5q-10 -65 28.5 -95t108.5 -45q36 -8 54 -11q32 -8 45 -12q40 -16 35 -42q-4 -27 -34.5 -40t-71.5 -13q-55 0 -76 22.5t-16 67.5v7h-111l-4 -29q-12 -76 40 -121.5t152 -45.5
q94 0 161.5 41.5t79.5 113.5q6 35 -3.5 61.5t-32 43t-46 26t-56.5 16.5q-16 4 -51.5 11t-49.5 11q-21 7 -29.5 15.5t-7.5 20.5q4 24 34 37t67 13q48 0 63.5 -20.5t11.5 -62.5z" />
    <glyph glyph-name="t" unicode="t" horiz-adv-x="385" 
d="M-17 401h85q-3 -22 -10.5 -65.5t-11.5 -65.5q-5 -21 -13 -84q-10 -77 -6 -92q10 -41 53 -68.5t99 -27.5q25 0 58 5l8 1l16 104l-12 -2q-27 -3 -54 -3q-5 0 -23 6q-19 7 -24 28q-4 17 2 43l35 221h110l16 103h-110l16 100h-122l-16 -100h-80z" />
    <glyph glyph-name="u" unicode="u" horiz-adv-x="571" 
d="M115 505h-113l-1 -7q-2 -13 -22 -128.5t-29 -176.5q-7 -44 7.5 -86.5t51.5 -68.5q64 -44 164 -44q85 0 148 28l-4 -21h113l80 504h-113l-1 -7q-8 -52 -25 -155.5t-25 -155.5q-7 -43 -50.5 -66t-103.5 -23t-96.5 23.5t-29.5 66.5l48 310z" />
    <glyph glyph-name="v" unicode="v" horiz-adv-x="592" 
d="M532 508h-134l-3 -5l-6 -12q-14 -27 -61 -110q-45 -84 -115 -206q-4 13 -51 206q-3 13 -12 51t-13 59q0 2 -1 6t-1 6l-1 5h-134l4 -10q2 -5 7 -23q4 -12 40 -162q8 -33 24.5 -99.5t24.5 -100.5q2 -11 10.5 -44.5t11.5 -51.5l3 -17h112l4 3q5 4 8 8q0 1 2 3.5t3 4.5
q18 28 36 62q35 60 81 148q15 27 43 77.5t51 91.5t44 77q10 13 16 23z" />
    <glyph glyph-name="w" unicode="w" horiz-adv-x="714" 
d="M654 509h-112l-3 -5q-1 -2 -3 -6.5t-4 -6.5q-24 -48 -49 -108q-13 -27 -27 -57t-31 -66.5t-26 -56.5q-3 32 -8 90.5t-9.5 106.5t-9.5 91q0 2 -1 6t-1 6l-1 6h-83l-3 -6q-1 -1 -2.5 -5.5t-3.5 -7.5q-17 -39 -118 -288q-9 57 -24 161.5t-20 139.5l-1 6h-114l1 -9
q4 -17 5 -23q16 -92 41 -266t30 -205l1 -6h110l2 6q1 2 2 5t2 5q17 43 50 122t40 96q12 -146 20 -218q0 -2 0.5 -5.5t0.5 -4.5l1 -6h109l3 6q19 40 103 219t128 275z" />
    <glyph glyph-name="x" unicode="x" horiz-adv-x="576" 
d="M512 511l-125 -3l-3 -2q-13 -9 -66 -65.5t-87 -96.5q-24 41 -46 75q-12 22 -32 53q-2 3 -5.5 9t-4.5 8l-3 3l-1 2l-2 3l-15 12h-4q-5 0 -16.5 0.5t-17.5 0.5q-10 0 -31.5 -0.5t-32.5 -0.5h-17l6 -11q105 -186 142 -243l-232 -255l128 1l4 2q9 6 80 83q19 20 72 80
l98 -165l134 -1l-7 12q-6 9 -61 102q-15 26 -43.5 74.5t-39.5 67.5z" />
    <glyph glyph-name="y" unicode="y" horiz-adv-x="542" 
d="M368 505l-175 -331l-81 331h-113l3 -9q19 -81 53.5 -236t39.5 -176q3 -10 7 -28t5 -22q0 -1 2 -9q2 -2 2 -5q0 -2 -3 -6l-6 -12q-2 -4 -6 -11.5t-6 -9.5q-24 -42 -46.5 -55t-77.5 -13h-10l-15 -95l4 -2q5 -2 8 -5q12 -3 15 -3q98 0 159 61q36 36 81 119q14 25 36.5 68.5
t29.5 56.5l207 392h-113z" />
    <glyph glyph-name="z" unicode="z" horiz-adv-x="483" 
d="M-16 410h273q-70 -71 -212 -213q-88 -90 -106 -108l-4 -3l-3 -2l-13 -82h423l16 98h-273q89 91 269 271l23 23t25 26l4 6l3 4l1 2q1 2 1 3l12 73h-423z" />
    <glyph glyph-name="braceleft" unicode="{" horiz-adv-x="350" 
d="M298 760h-39q-56 0 -88 -15q-52 -23 -76 -86q-14 -35 -26 -117q-11 -72 -25 -100q-19 -39 -58 -39h-25l-17 -106l23 -2q21 -1 31 -8t15 -23q8 -29 -3 -92q-14 -100 -14 -109q0 -72 36 -101q30 -24 98 -24h47l17 106h-10h-9h-13.5h-12.5q-25 2 -27 4q-4 2 -4 7q-3 6 -1 11
q-1 21 4 51q1 7 6.5 37t7.5 50t2 39q-2 71 -46 107q23 15 37 30q41 43 62 166q3 37 8 59q8 28 9 31q5 12 11 14q9 4 29 6h34h10l17 104h-10z" />
    <glyph glyph-name="bar" unicode="|" horiz-adv-x="169" 
d="M156 808h-109l-134 -849h109z" />
    <glyph glyph-name="braceright" unicode="}" horiz-adv-x="350" 
d="M-53 44l-17 -106h10q47 0 71 2q43 3 71 22q62 38 79 147q2 13 6.5 42t7.5 43q8 45 23 70q18 28 56 31l23 2l17 106h-10h-16q-2 0 -6 0.5t-6 1.5q-9 1 -19 11q-18 17 -15 61q1 19 12 91q11 45 6.5 95.5t-37.5 75.5q-28 21 -94 21h-48l-17 -104h10h25q15 0 23 -1
q9 -1 17 -7q2 -2 2 -11q1 -6 1 -20l-5 -39q-12 -71 -14 -102q-4 -65 18 -98q10 -16 27 -28q-26 -16 -44.5 -38t-28.5 -49t-15 -46.5t-9 -47.5q0 -1 -3 -26t-7 -41q-3 -16 -10 -37q-6 -15 -11 -17q-2 -2 -10 -2q-10 -2 -18 -2h-12.5h-13.5h-9h-10z" />
    <glyph glyph-name="asciitilde" unicode="~" horiz-adv-x="534" 
d="M445 330l19 119l-17 -10q-35 -21 -63 -35q-44 -22 -58 -22q-18 0 -41 10q-9 4 -26.5 12.5t-21.5 10.5q-70 35 -115 35q-33 0 -72 -16q-24 -10 -63 -31l-4 -2l-18 -114l17 9q6 3 27.5 14t34.5 17q43 19 61 19q15 0 39 -9q2 -1 47 -22q70 -33 118 -33q45 0 132 46z" />
    <glyph glyph-name="exclamdown" unicode="&#xa1;" horiz-adv-x="242" 
d="M151 505q4 25 -13.5 47.5t-52.5 22.5t-58.5 -22.5t-27.5 -48.5t12.5 -49t51.5 -23q36 0 60 23t28 50zM6 411l-78 -493h110l78 493h-110z" />
    <glyph glyph-name="cent" unicode="&#xa2;" horiz-adv-x="529" 
d="M102 -37h100l12 77q78 12 131.5 58.5t72.5 108.5q4 10 4 14l3 9h-121l-2 -6q-23 -58 -70 -74l43 274q24 -10 33 -28.5t13 -48.5v-6h120l1 23q1 63 -36.5 110.5t-112.5 59.5l12 77h-100l-12 -78q-53 -9 -95.5 -35t-69 -62t-42 -73t-21.5 -75q-8 -36 -3 -76t18.5 -74.5
t48.5 -61t86 -35.5zM175 420l-42 -266q-61 31 -43 134q15 100 85 132z" />
    <glyph glyph-name="sterling" unicode="&#xa3;" horiz-adv-x="522" 
d="M405 152h-269q40 43 52 110q2 12 4 36h168l15 93h-193q0 23 5 55q6 40 36.5 64t80.5 24q58 0 116 -23l14 -6l17 106l-6 2q-4 0 -8 2q-57 22 -123 22q-107 0 -171.5 -57t-77.5 -139q-1 -8 -4 -50h-80l-15 -93h104q0 -26 -2 -38q-7 -44 -36.5 -76t-79.5 -34h-9l-15 -97h462
z" />
    <glyph glyph-name="yen" unicode="&#xa5;" horiz-adv-x="561" 
d="M529 686h-124l-161 -219l-90 219h-126l125 -299h-132l-14 -89h154l-3 -21h-154l-14 -90h154l-23 -141h110l23 141h157l14 90h-157l3 21h157l14 89h-135z" />
    <glyph glyph-name="copyright" unicode="&#xa9;" horiz-adv-x="766" 
d="M383 35q83 0 152 31.5t111.5 81.5t66 108.5t23.5 116.5t-23 117t-65.5 109.5t-111.5 82.5t-152 32q-82 0 -151.5 -31.5t-112.5 -82t-66.5 -109t-23.5 -116.5q0 -57 23.5 -116t66.5 -109.5t112 -82.5t151 -32zM384 629q79 0 139.5 -40t89.5 -97.5t29 -117.5t-29 -117
t-89.5 -97t-139.5 -40q-116 0 -187.5 80t-71.5 174q0 109 78 183q77 72 181 72zM392 179q47 0 84.5 17t61.5 45t38.5 57.5t21.5 61.5l3 11l-14 -2l-23 -3q-14 -2 -22 -2h-36l-2 -6q-9 -38 -39.5 -66.5t-74.5 -28.5q-50 0 -81.5 35.5t-31.5 77.5q0 43 31 79t81 36
q42 0 71 -26t41 -62l4 -16h86v8q0 32 -12 56q-63 123 -189 123q-94 0 -150.5 -62.5t-56.5 -135.5t57.5 -135t151.5 -62z" />
    <glyph glyph-name="guillemotleft" unicode="&#xab;" horiz-adv-x="467" 
d="M83 320l140 243h-113l-140 -243l64 -241h113zM274 320l141 243h-115l-138 -243l62 -241h115z" />
    <glyph glyph-name="registered" unicode="&#xae;" horiz-adv-x="766" 
d="M382 35q82 0 151 31.5t112.5 82t67 109t23.5 116.5t-23 117t-65.5 109.5t-111.5 82.5t-152 32q-82 0 -151.5 -31.5t-112.5 -82t-66.5 -109t-23.5 -116.5q0 -57 23.5 -116t66 -110t111.5 -83t151 -32zM549 180q-73 -60 -165 -60q-116 0 -188 80t-72 174q0 110 78 184
q78 73 182 73q78 0 138.5 -40.5t89.5 -98t29 -117.5q0 -106 -74 -179l-92 147q41 9 61.5 40t20.5 66q0 34 -17.5 63t-56.5 41q-18 6 -35 6h-216v-379h95v158h41l98 -158h83zM327 419v60q19 0 59 -0.5t59 -0.5q12 -6 15 -10.5t3 -15.5q0 -9 -6 -21q-4 -8 -6 -10l-2 -2h-122z
" />
    <glyph glyph-name="guillemotright" unicode="&#xbb;" horiz-adv-x="467" 
d="M72 321l-140 -242h114l139 242l-63 242h-114zM264 321l-140 -242h113l140 242l-64 242h-113z" />
    <glyph glyph-name="questiondown" unicode="&#xbf;" horiz-adv-x="512" 
d="M123 437q-3 -26 13 -48t51 -22t59.5 22.5t27.5 47.5q4 27 -12 49t-52 22t-59.5 -22.5t-27.5 -48.5zM-74 43q-12 -75 33.5 -129.5t143.5 -54.5q71 0 130 32.5t89 84.5q21 37 31 98l3 21h-115v-8q-3 -54 -32 -92t-90 -38q-42 0 -62.5 21.5t-15.5 54.5q6 30 20 44
q21 19 60 53q38 32 58 55q48 52 64 147l3 20h-116l-2 -7q-1 -4 -2 -11.5t-2 -13.5t-2 -11q-2 -10 -10 -35q-15 -30 -43 -54q-10 -9 -29.5 -24.5t-26.5 -21.5q-76 -60 -87 -131z" />
    <glyph glyph-name="multiply" unicode="&#xd7;" horiz-adv-x="647" 
d="M341 371l258 217l-61 68l-256 -217l-188 217l-82 -67l189 -218l-256 -214l59 -71l256 216l189 -217l80 72z" />
    <glyph glyph-name="divide" unicode="&#xf7;" horiz-adv-x="697" 
d="M392 537q3 24 -12 44.5t-47 20.5t-54 -21t-25 -44q-3 -24 12 -44.5t47 -20.5t54 21t25 44zM-27 337h637l15 98h-637zM344 231q3 24 -11.5 44t-47.5 20t-54.5 -20t-24.5 -44q-4 -23 11 -44t47 -21q33 0 54.5 20.5t25.5 44.5z" />
    <glyph glyph-name="endash" unicode="&#x2013;" horiz-adv-x="537" 
d="M-36 286h477l15 91h-477z" />
    <glyph glyph-name="emdash" unicode="&#x2014;" horiz-adv-x="965" 
d="M-36 286h905l15 91h-905z" />
    <glyph glyph-name="quoteleft" unicode="&#x2018;" horiz-adv-x="247" 
d="M201 602l-78 36l-123 -174q-10 -13 -12 -32q-4 -26 12 -48t51 -22q36 0 60.5 22t28.5 48q3 28 -12 46z" />
    <glyph glyph-name="quoteright" unicode="&#x2019;" horiz-adv-x="246" 
d="M-17 406l79 -35l123 173q9 13 11 32q4 26 -11.5 48.5t-51.5 22.5t-60 -22t-28 -49q-3 -27 11 -45z" />
    <glyph glyph-name="quotesinglbase" unicode="&#x201a;" horiz-adv-x="247" 
d="M-18 63l-73 -124l79 -35l123 173q9 14 13 33q4 26 -12 48t-52 22q-37 0 -60.5 -21.5t-27.5 -48.5q-5 -29 10 -47z" />
    <glyph glyph-name="quotedblleft" unicode="&#x201c;" horiz-adv-x="394" 
d="M200 602l-78 36l-122 -174q-10 -13 -12 -32q-4 -26 11.5 -48t50.5 -22q28 0 49.5 14t32.5 35q3 -22 19.5 -38t45.5 -16q36 0 60 22t28 48q4 25 -12 46l75 126l-81 33l-122 -172q-2 -4 -6 -10q-2 19 -11 29z" />
    <glyph glyph-name="quotedblright" unicode="&#x201d;" horiz-adv-x="394" 
d="M134 428l79 -34l122 172q10 16 13 33q4 26 -12.5 48.5t-51.5 22.5q-57 0 -82 -50q-2 23 -18 39t-46 16q-37 0 -60 -22t-27 -49q-5 -26 9 -47l-72 -124l78 -34l124 173q0 2 2 5t3 4q1 -13 12 -28z" />
    <glyph glyph-name="quotedblbase" unicode="&#x201e;" horiz-adv-x="394" 
d="M56 -67l77 -37l122 173q11 15 14 33q4 25 -12 48t-51 23q-29 0 -51 -15t-32 -37q-2 24 -18 40.5t-47 16.5q-36 0 -59 -22.5t-27 -48.5q-4 -28 10 -47l-73 -124l79 -34l123 172q1 2 3 5t2 5q2 -16 12 -29z" />
    <glyph glyph-name="bullet" unicode="&#x2022;" horiz-adv-x="366" 
d="M279 337q8 54 -26.5 100t-104.5 46q-71 0 -118.5 -45.5t-56.5 -100.5q-9 -54 24.5 -100t103.5 -46t119.5 46t58.5 100z" />
    <glyph glyph-name="ellipsis" unicode="&#x2026;" horiz-adv-x="798" 
d="M318 202q39 0 64.5 24.5t29.5 52.5q5 28 -13.5 52t-56.5 24t-63.5 -24t-30.5 -52q-4 -28 14 -52.5t56 -24.5zM33 201q38 0 63.5 24.5t29.5 52.5t-13.5 52t-55.5 24t-64 -24t-30 -52t14 -52.5t56 -24.5zM608 201q38 0 63.5 24.5t29.5 52.5q5 29 -13.5 52.5t-56.5 23.5
t-64 -24t-30 -52t14 -52.5t57 -24.5z" />
    <glyph glyph-name="guilsinglleft" unicode="&#x2039;" horiz-adv-x="274" 
d="M82 320l140 243h-113l-139 -243l63 -241h113z" />
    <glyph glyph-name="guilsinglright" unicode="&#x203a;" horiz-adv-x="275" 
d="M72 321l-140 -242h113l140 242l-64 242h-113z" />
    <glyph glyph-name="Euro" unicode="&#x20ac;" horiz-adv-x="575" 
d="M442 52l17 108l-14 -4q-34 -11 -96 -11q-65 0 -106.5 29.5t-54.5 78.5h224l15 92h-242l2 12l2 16h242l15 91h-223q29 48 79.5 76.5t113.5 28.5q50 0 95 -9l12 -2l16 104l-5 2q-37 15 -100 15q-122 0 -213 -61t-132 -154h-96l-15 -91h82l-2 -16l-2 -12h-82l-15 -92h95
q10 -95 82 -156.5t196 -61.5q22 0 52 3q35 2 54 12z" />
    <glyph glyph-name="trademark" unicode="&#x2122;" horiz-adv-x="902" 
d="M650 452l-4 -6q-9 14 -25.5 43t-25.5 43q-8 14 -82 140l-2 5h-89v-377h97l1 20q3 52 3 158q43 -71 117 -186l9 -13l9 13q10 15 117 188q-1 -58 -1 -172v-8h98v377h-87l-8 -11q-6 -9 -15.5 -25.5t-11.5 -20.5q-10 -17 -29 -48.5t-24 -39.5q-9 -15 -25.5 -43.5t-21.5 -36.5
zM259 598h135v77h-364v-77h138v-306h91v306z" />
    <glyph glyph-name="uni3008" unicode="&#x3008;" horiz-adv-x="362" 
d="M153 48l85 60l-146 242l224 247l-68 54l-273 -300z" />
    <glyph glyph-name="uni3009" unicode="&#x3009;" horiz-adv-x="362" 
d="M3 48l274 303l-178 300l-85 -54l147 -247l-224 -242z" />
    <glyph glyph-name="uni300A" unicode="&#x300a;" horiz-adv-x="487" 
d="M152 48l86 60l-146 242l225 247l-70 53l-272 -299zM277 48l86 60l-148 242l226 247l-71 53l-271 -299z" />
    <glyph glyph-name="uni300B" unicode="&#x300b;" horiz-adv-x="487" 
d="M4 48l275 303l-178 299l-87 -53l148 -247l-225 -242zM129 48l273 303l-177 299l-86 -53l147 -247l-225 -242z" />
    <glyph glyph-name="LF" horiz-adv-x="0" 
 />
    <glyph glyph-name="_FSHallmark" horiz-adv-x="754" 
d="M71 603h630v-74h-630v74zM619 388q0 9 -5 17q-4 5 -14 13q-12 6 -18 8q-14 2 -18 2q-20 0 -36 -9q-16 -10 -16 -22q0 -23 14 -31q16 -9 34 -13l27 -6l23 -6q13 -4 22 -5q7 -1 19 -5q2 -2 8 -4.5t8 -3.5q15 -9 24 -21q7 -14 9 -33q1 -21 -8 -38q-20 -32 -55 -44
q-37 -12 -72 -12q-27 0 -51 7t-44 21t-32 36q-12 21 -12 49l73 -1q0 -3 3 -11q2 -12 11 -20q9 -9 19 -13q13 -7 36 -7q25 0 40 9q15 7 15 19q0 22 -60 36q-56 14 -92 33q-38 20 -38 63q0 36 25 57q24 20 55 30q24 6 52 6q36 0 72 -14q33 -14 50 -50q8 -21 8 -37h-76z
M154 175h-83v313h265v-71h-182v-70h151v-70h-151v-102zM329 213q0 16 11 27q10 10 27 10q16 0 30 -11q12 -11 12 -26t-12 -26q-13 -10 -30 -10q-15 0 -26 11q-12 11 -12 25zM69 136h631v-75h-631v75z" />
    <glyph glyph-name="_Fontastica" horiz-adv-x="754" 
d="M218 113h-87q-1 1 -1 4v510h382v-78h-294v-210h295v-79h-295v-147zM273 481h296v146h87v-513h-383v78h296v210h-296v79zM569 63q-5 -3 -5 -8q0 -7 4 -11q3 -4 9 -4q7 0 14 4l4 -4q-6 -9 -18 -9q-8 0 -16 5q-6 8 -7 16q-1 10 6 17q8 8 17 8q10 0 18 -8l-4 -6l-2 1l-3 3
t-7 1h-2q-6 -2 -8 -5zM131 76h32v-8h-21v-12h20v-7h-20v-17h-11v44zM203 76q15 0 22 -12q6 -8 2 -20q-5 -12 -19 -13l-6 -2q-6 0 -9 3q-14 6 -14 19q0 11 7 18q6 7 17 7zM288 32h-3q-1 -1 -3 -1t-7 5l-4 6q-1 1 -2 3t-2 3l-9 11v-27h-10v44h8q3 -1 5 -6q7 -7 10 -11
q7 -12 8 -13v30h9v-44zM307 76h37v-8h-14v-36h-9v36h-14v8zM444 55q9 -1 9 -10q1 -9 -8 -13q-1 -1 -8 -1q-14 0 -21 7q1 1 1 2l1 1q0 2 1 3l14 -4h6q3 3 3 2q0 8 -10 9q-1 0 -2 1t-4 1q-7 1 -7 10q-1 7 6 11q6 2 10 2q11 0 18 -4l-4 -8q-1 1 -3 1q-1 0 -2 1t-3 1q-1 0 -2 1
h-6q-3 0 -3 -3q-2 -1 3 -6q5 -1 11 -4zM468 76h38v-8h-14v-36h-10v36h-14v8zM524 76h11v-44h-11v44zM640 76l9 -21q1 -4 5 -12q1 -6 5 -11h-10l-4 9h-21l-4 -9h-10q11 21 18 44h12zM382 74q2 -5 5 -10t5 -10q0 -1 1.5 -5t2.5 -6t2.5 -6t1.5 -5h-10q-1 1 -1 4l-1 2q0 2 -1 3
h-20q-1 -1 -1 -5q-1 -1 -1 -2l-2 -2h-9l18 42h10zM216 54q0 6 -3 10q-4 4 -11 4q-1 -1 -3 -1q-4 -1 -8 -7t-1 -11q3 -10 13 -10q3 0 4 1q9 2 9 13v1zM384 49l-1 2q-1 1 -1 2t-1 2t-1 2q-1 1 -1 4q-1 0 -1 2q0 1 -1 2l-8 -16h15zM641 49q-1 1 -1 4q0 1 -1 2t-1 2t-1 2t-1 2
l-1 2q-1 1 -1 2l-7 -16h14z" />
    </font>
</defs>
</svg>
