<?xml version="1.0" standalone="no"?>
<!DOCTYPE svg PUBLIC "-//W3C//DTD SVG 1.1//EN" "http://www.w3.org/Graphics/SVG/1.1/DTD/svg11.dtd" >
<svg xmlns="http://www.w3.org/2000/svg" xmlns:xlink="http://www.w3.org/1999/xlink" version="1.1">
<metadata>
Created by FontForge 20170731 at Wed Nov 14 16:38:46 2018
 By Aleksey,,,
Copyright (c) 2018 by Fontastica. All rights reserved.
</metadata>
<defs>
<font id="FocusGrotesk-Light" horiz-adv-x="588" >
  <font-face 
    font-family="Focus Grotesk Light"
    font-weight="300"
    font-stretch="normal"
    units-per-em="1000"
    panose-1="0 0 4 0 0 0 0 0 0 0"
    ascent="800"
    descent="-200"
    x-height="483"
    cap-height="698"
    bbox="6 -208 901 811"
    underline-thickness="50"
    underline-position="-200"
    unicode-range="U+000D-300B"
  />
<missing-glyph horiz-adv-x="527" 
d="M50 700h427v-700h-427v700zM263 371l186 309h-371zM457 47v605l-181 -302zM251 350l-180 300v-601zM264 329l-185 -308h370z" />
    <glyph glyph-name=".notdef" horiz-adv-x="527" 
d="M50 700h427v-700h-427v700zM263 371l186 309h-371zM457 47v605l-181 -302zM251 350l-180 300v-601zM264 329l-185 -308h370z" />
    <glyph glyph-name=".null" horiz-adv-x="0" 
 />
    <glyph glyph-name="nonmarkingreturn" horiz-adv-x="333" 
 />
    <glyph glyph-name="CR" unicode="&#xd;" horiz-adv-x="0" 
 />
    <glyph glyph-name="space" unicode=" " horiz-adv-x="280" 
 />
    <glyph glyph-name="exclam" unicode="!" horiz-adv-x="177" 
d="M94 177v481h-43v-481h43zM74 90q-19 0 -31.5 -12.5t-12.5 -31.5q0 -18 12.5 -31.5t30.5 -13.5t31 13.5t13 32.5q0 18 -12.5 30.5t-30.5 12.5z" />
    <glyph glyph-name="quotedbl" unicode="&#x22;" horiz-adv-x="274" 
d="M39 474h26l9 184h-44zM208 474h26l10 184h-45z" />
    <glyph glyph-name="numbersign" unicode="#" horiz-adv-x="522" 
d="M469 265h-102l22 157h103v35h-97l31 205h-33l-30 -205h-159l29 205h-30l-30 -205h-116v-35h110l-24 -157h-113v-36h108l-33 -215h32l32 215h161l-32 -215h32l32 215h107v36zM358 422l-23 -157h-161l24 157h160z" />
    <glyph glyph-name="dollar" unicode="$" horiz-adv-x="467" 
d="M219 -11h31v74q81 0 134 46.5t53 117.5q0 32 -12 56.5t-27 39t-45 28t-48 18.5t-55 15v218q59 -10 88.5 -34t36.5 -68h55q-5 64 -52.5 103t-127.5 47v75h-31v-75q-83 -9 -128.5 -49.5t-45.5 -104.5q0 -61 41.5 -98t132.5 -59v-228q-54 3 -89 31t-44 75h-56
q5 -64 54.5 -104.5t134.5 -49.5v-74zM219 601v-210q-70 23 -92 41q-28 25 -28 63q0 43 33.5 73t86.5 33zM250 111v220q70 -16 101 -43t31 -72q0 -93 -132 -105z" />
    <glyph glyph-name="percent" unicode="%" horiz-adv-x="691" 
d="M583 707h-27q-30 -38 -45 -60l-415 -642h34zM173 699q-58 0 -99.5 -42t-41.5 -101t41 -100.5t99 -41.5q59 0 100 41.5t41 100.5q0 60 -40.5 101.5t-99.5 41.5zM172 663q44 0 75 -31t31 -76t-30.5 -75.5t-74.5 -30.5q-45 0 -75.5 31t-30.5 75q0 45 30.5 76t74.5 31z
M521 316q-58 0 -99 -42t-41 -101t41 -100.5t99 -41.5q59 0 99.5 41.5t40.5 101.5q0 59 -41 100.5t-99 41.5zM521 280q44 0 75 -31t31 -76q0 -44 -30.5 -75t-75.5 -31q-44 0 -74.5 31t-30.5 76q0 44 30.5 75t74.5 31z" />
    <glyph glyph-name="ampersand" unicode="&#x26;" horiz-adv-x="600" 
d="M499 16h71l-101 109q32 58 44 107t12 119v8h-53q0 -65 -8 -107.5t-30 -89.5l-176 192q143 68 143 166q0 56 -43 92.5t-108 36.5q-64 0 -106.5 -37t-42.5 -92q0 -73 85 -155q-39 -22 -58.5 -34.5t-46.5 -36t-39 -52.5t-12 -65q0 -77 58 -123.5t152 -46.5q103 0 195 79
q1 0 64 -70zM346 516q0 -77 -115 -132q-76 76 -76 131q0 40 27.5 66t69.5 26q41 0 67.5 -25.5t26.5 -65.5zM240 52q-68 0 -109.5 39t-41.5 103q0 25 5 42.5t20 32t24.5 21.5t36.5 21.5t38 21.5l189 -211q-26 -32 -70 -51t-92 -19z" />
    <glyph glyph-name="quotesingle" unicode="'" horiz-adv-x="104" 
d="M39 474h25l10 184h-44z" />
    <glyph glyph-name="parenleft" unicode="(" horiz-adv-x="194" 
d="M140 769h-48q-86 -204 -86 -453q0 -221 68 -392h46q-68 174 -68 396q0 256 88 449z" />
    <glyph glyph-name="parenright" unicode=")" horiz-adv-x="193" 
d="M188 316q0 247 -85 453h-48q88 -193 88 -449q0 -222 -68 -396h46q67 172 67 392z" />
    <glyph glyph-name="asterisk" unicode="*" horiz-adv-x="341" 
d="M190 659h-41l16 -138l-114 81l-21 -35l126 -57l-126 -57l21 -37l114 81l-16 -139h41l-15 139l115 -81l20 37l-125 57l126 57l-21 35l-115 -80z" />
    <glyph glyph-name="plus" unicode="+" horiz-adv-x="481" 
d="M222 575v-190h-192v-40h192v-192h38v192h191v40h-191v190h-38z" />
    <glyph glyph-name="comma" unicode="," horiz-adv-x="255" 
d="M145 90l-40 19l-65 -157l26 -11z" />
    <glyph glyph-name="hyphen" unicode="-" horiz-adv-x="279" 
d="M249 273h-219v-42h219v42z" />
    <glyph glyph-name="period" unicode="." horiz-adv-x="237" 
d="M84 90q-18 0 -31 -13t-13 -31t13.5 -31.5t30.5 -13.5q18 0 30.5 13t12.5 32q0 18 -12.5 31t-30.5 13z" />
    <glyph glyph-name="slash" unicode="/" horiz-adv-x="364" 
d="M75 -3l259 733h-46l-258 -733h45z" />
    <glyph glyph-name="zero" unicode="0" horiz-adv-x="550" 
d="M30 352q0 -168 62 -259t177 -91q117 0 184 93.5t67 257.5t-67 257.5t-184 93.5q-115 0 -177 -91.5t-62 -260.5zM81 343q0 150 50 233t141 83t144.5 -83t53.5 -226q0 -142 -54 -224t-146 -82q-91 0 -140 78t-49 221z" />
    <glyph glyph-name="one" unicode="1" horiz-adv-x="315" 
d="M215 0h58v701h-65l-168 -133v-65l175 138v-641z" />
    <glyph glyph-name="two" unicode="2" horiz-adv-x="538" 
d="M35 492h53q9 79 56.5 125.5t118.5 46.5q76 0 128.5 -45.5t52.5 -112.5q0 -19 -4 -37.5t-14.5 -37.5t-18 -32t-25 -33t-25.5 -28.5t-30 -30.5l-27 -27l-270 -274h478v47h-363l206 208q36 36 53 55t43.5 54.5t38 70t11.5 71.5q0 85 -64 141.5t-161 56.5q-96 0 -162 -60.5
t-75 -157.5z" />
    <glyph glyph-name="three" unicode="3" horiz-adv-x="540" 
d="M55 549h57q48 111 148 111q64 0 106.5 -35.5t42.5 -88.5q0 -56 -54 -89.5t-145 -33.5h-35v-43q138 0 210 -40t72 -116q0 -73 -56 -120t-143 -47q-135 0 -174 135h-54q23 -88 81 -135t146 -47q108 0 180.5 61t72.5 152q0 124 -153 182q111 53 111 142q0 71 -61 120
t-149 49q-75 0 -128.5 -41.5t-74.5 -115.5z" />
    <glyph glyph-name="four" unicode="4" horiz-adv-x="573" 
d="M449 715l-419 -549h363v-166h57v166h93v49h-93v500h-1zM393 215h-260l260 340v-340z" />
    <glyph glyph-name="five" unicode="5" horiz-adv-x="561" 
d="M510 669v48h-328l-69 -328q88 32 158 32q88 0 143.5 -48.5t55.5 -125.5q0 -82 -60 -139t-146 -57q-63 0 -109.5 33t-63.5 91h-61q15 -79 79 -125t156 -46q115 0 190.5 67.5t75.5 169.5q0 98 -66.5 162t-169.5 64q-49 0 -113 -17l46 219h282z" />
    <glyph glyph-name="six" unicode="6" horiz-adv-x="524" 
d="M392 700l-59 1l-203 -283q-40 -56 -56.5 -80t-32 -60t-15.5 -66q0 -91 67 -152t166 -61q101 0 170 62.5t69 154.5q0 89 -61.5 149.5t-152.5 60.5q-66 0 -112 -23zM262 381q75 0 129.5 -48.5t54.5 -116.5q0 -69 -55 -120t-129 -51q-75 0 -130 49t-55 118t55 119t130 50z
" />
    <glyph glyph-name="seven" unicode="7" horiz-adv-x="540" 
d="M510 706h-480v-49h390l-370 -655l59 -2z" />
    <glyph glyph-name="eight" unicode="8" horiz-adv-x="549" 
d="M519 202q0 61 -37.5 106t-118.5 81q122 54 122 150q0 70 -60.5 120t-145.5 50q-87 0 -150 -50.5t-63 -120.5q0 -98 124 -149q-83 -37 -121.5 -82t-38.5 -107q0 -86 69.5 -142.5t175.5 -56.5q105 0 174.5 57.5t69.5 143.5zM278 668q65 0 112.5 -39t47.5 -91
q0 -53 -48.5 -92t-110.5 -39q-63 0 -114.5 40.5t-51.5 93.5q0 52 49.5 89.5t115.5 37.5zM277 364q78 0 136 -47.5t58 -113.5q0 -67 -58.5 -115t-140.5 -48q-81 0 -140 46.5t-59 111.5q0 67 62 116.5t142 49.5z" />
    <glyph glyph-name="nine" unicode="9" horiz-adv-x="532" 
d="M133 -1l59 -1l206 297q4 6 17 24.5t17 24.5t14.5 21.5t14 21.5t11.5 19t11 20t7.5 18.5t6.5 19.5t3.5 18t1.5 19q0 91 -67 152t-166 61q-101 0 -170 -62.5t-69 -154.5q0 -89 61.5 -149.5t152.5 -60.5q66 0 112 23zM266 332q-75 0 -129.5 48.5t-54.5 116.5q0 69 55 120
t129 51q75 0 130 -49t55 -118t-55 -119t-130 -50z" />
    <glyph glyph-name="colon" unicode=":" horiz-adv-x="237" 
d="M84 486q-18 0 -31 -13t-13 -32q0 -18 13 -31t31 -13q19 0 31 12.5t12 31.5t-12.5 32t-30.5 13zM84 90q-18 0 -31 -13t-13 -31t13.5 -31.5t30.5 -13.5q18 0 30.5 13t12.5 32q0 18 -12.5 31t-30.5 13z" />
    <glyph glyph-name="semicolon" unicode=";" horiz-adv-x="259" 
d="M106 486q-18 0 -31 -13t-13 -32q0 -18 13 -31t32 -13q18 0 30 12.5t12 31.5t-12.5 32t-30.5 13zM145 90l-40 19l-65 -157l26 -11z" />
    <glyph glyph-name="less" unicode="&#x3c;" horiz-adv-x="489" 
d="M459 144v42l-379 177l379 179v43l-429 -198v-45z" />
    <glyph glyph-name="equal" unicode="=" horiz-adv-x="481" 
d="M451 441v41h-421v-41h421zM451 247v40h-421v-40h421z" />
    <glyph glyph-name="greater" unicode="&#x3e;" horiz-adv-x="489" 
d="M409 363l-379 -177v-42l429 198v45l-429 198v-43z" />
    <glyph glyph-name="question" unicode="?" horiz-adv-x="458" 
d="M220 650q-61 0 -108 -28.5t-67 -75.5q-14 -35 -15 -87h47q2 73 36 111.5t98 38.5q61 0 98.5 -31.5t37.5 -83.5q0 -33 -16 -59.5t-39.5 -47.5t-47 -46t-40 -66t-17.5 -95h49q0 45 16.5 80.5t40.5 58.5t48 45.5t40.5 53.5t16.5 70q0 71 -50 116.5t-128 45.5zM215 100
q-18 0 -31 -13t-13 -32q0 -18 13 -31t31 -13t30.5 12.5t12.5 31.5t-12.5 32t-30.5 13z" />
    <glyph glyph-name="at" unicode="@" horiz-adv-x="709" 
d="M679 374q0 132 -88.5 214.5t-230.5 82.5q-148 0 -239 -94.5t-91 -247.5t92.5 -242.5t250.5 -89.5q70 0 121 18v30q-52 -15 -117 -15q-142 0 -226 80t-84 216q0 138 82.5 225.5t211.5 87.5q124 0 202 -74t78 -191q0 -77 -27 -127t-69 -50q-25 0 -40.5 15.5t-15.5 40.5v235
h-42v-52h-20q-9 27 -35.5 43t-61.5 16q-57 0 -92.5 -45.5t-35.5 -118.5q0 -74 37 -119t99 -45q35 0 56.5 15t38.5 51h18q1 -31 25.5 -50t64.5 -19q62 0 100 58t38 152zM247 333q0 58 26 92t71 34q46 0 74 -35t28 -93q0 -57 -27.5 -91.5t-73.5 -34.5q-45 0 -71.5 34.5
t-26.5 93.5z" />
    <glyph glyph-name="A" unicode="A" horiz-adv-x="743" 
d="M647 0h66q-159 308 -343 681q-58 -115 -340 -681h64q3 7 21 44t33.5 69.5t16.5 36.5h410zM548 207h-355l176 369l171 -354z" />
    <glyph glyph-name="B" unicode="B" horiz-adv-x="639" 
d="M518 374q91 64 91 149q0 70 -46 123t-107 53h-426v-699h425q62 0 110.5 65.5t41.5 151.5q-4 53 -25 88t-64 69zM556 542v-29q0 -37 -33.5 -74t-66.5 -37h-372v254l372 -3q34 0 67 -36.5t33 -74.5zM84 344l369 -1q2 0 5.5 -1.5t9 -4t8.5 -3.5q81 -34 81 -135
q0 -108 -83 -139l-9 -3l-9 -3h-372v290z" />
    <glyph glyph-name="C" unicode="C" horiz-adv-x="732" 
d="M701 262h-48q-33 -96 -109.5 -153.5t-171.5 -57.5q-122 0 -208 87.5t-86 211.5q0 125 85 213t205 88q98 0 178 -60t108 -155h48q-2 14 -10 33q-50 111 -132 170t-186 59q-143 0 -243.5 -101.5t-100.5 -246.5q0 -143 101 -244.5t244 -101.5q114 0 202.5 70t123.5 188z" />
    <glyph glyph-name="D" unicode="D" horiz-adv-x="611" 
d="M229 -1q173 0 262.5 95.5t89.5 255.5q0 117 -60.5 208.5t-155.5 121.5q-64 20 -233 20h-102v-700q39 0 117 -0.5t82 -0.5zM84 654h115q82 0 122 -12q90 -24 150.5 -107.5t60.5 -184.5q0 -146 -77.5 -222.5t-201.5 -76.5h-171z" />
    <glyph glyph-name="E" unicode="E" 
d="M84 344h400v54h-400v256h474v44h-528v-698h528v51h-474v293z" />
    <glyph glyph-name="F" unicode="F" 
d="M484 398h-400v256h474v44h-528v-698h54v344h400v54z" />
    <glyph glyph-name="G" unicode="G" horiz-adv-x="736" 
d="M652 439h49q-24 109 -121 183.5t-215 74.5q-137 0 -236 -102t-99 -244t97.5 -244.5t233.5 -102.5q120 0 218.5 74.5t119.5 180.5q7 31 7 73h-338v-50h290q-17 -97 -103 -164t-192 -67q-118 0 -201.5 87.5t-83.5 211.5q0 125 86 213t208 88q95 0 171 -57.5t109 -154.5z
" />
    <glyph glyph-name="H" unicode="H" 
d="M504 398h-420v300h-49v-698h49v344h420v-344h49v698h-49v-300z" />
    <glyph glyph-name="I" unicode="I" horiz-adv-x="114" 
d="M80 0v698h-46v-698h46z" />
    <glyph glyph-name="J" unicode="J" horiz-adv-x="367" 
d="M330 698h-48q0 -79 0.5 -234t0.5 -234q0 -102 -26 -142t-95 -40q-82 0 -131 40v-50q47 -37 131 -36q40 1 65 7t47 23t33.5 49t17.5 84t5 128v405z" />
    <glyph glyph-name="K" unicode="K" horiz-adv-x="555" 
d="M439 0h75l-423 347l418 351h-72l-352 -295l-1 295h-49v-698h49l1 290z" />
    <glyph glyph-name="L" unicode="L" horiz-adv-x="514" 
d="M84 51v647h-54v-698h454v51h-400z" />
    <glyph glyph-name="M" unicode="M" horiz-adv-x="642" 
d="M565 0l-4 564l-236 -557h-1l-236 557l-4 -564h-51v698h53l238 -568l239 568h53v-698h-51z" />
    <glyph glyph-name="N" unicode="N" 
d="M558 698h-57v-601l-410 602h-61l3 -699h54v607l414 -607h57v698z" />
    <glyph glyph-name="O" unicode="O" horiz-adv-x="741" 
d="M711 352q0 143 -100 244.5t-240 101.5q-141 0 -241 -101.5t-100 -244.5t100.5 -245t240.5 -102t240 102t100 245zM663 354q0 -126 -85.5 -214.5t-207.5 -88.5q-121 0 -206.5 88.5t-85.5 212.5t86 211.5t208 87.5q121 0 206 -86.5t85 -210.5z" />
    <glyph glyph-name="P" unicode="P" horiz-adv-x="595" 
d="M472 363q43 26 67.5 71t24.5 89q0 70 -42.5 123t-98.5 53h-393v-699h50v350h335q35 0 57 13zM515 542v-29q0 -37 -31.5 -76.5t-61.5 -39.5h-343l1 259l343 -3q31 0 61.5 -36.5t30.5 -74.5z" />
    <glyph glyph-name="Q" unicode="Q" horiz-adv-x="748" 
d="M631 129l88 -88l-32 -33l-88 87q-98 -90 -228 -90q-142 0 -241.5 102.5t-99.5 244.5t100 244t241 102q142 0 241 -102t99 -244q0 -125 -80 -223zM372 651q-123 0 -208.5 -88t-85.5 -211t85 -212t207 -89q113 0 196 78l-100 99l33 33l99 -98q65 84 65 191
q0 122 -84.5 209.5t-206.5 87.5z" />
    <glyph glyph-name="R" unicode="R" horiz-adv-x="595" 
d="M564 523q0 -44 -24.5 -89t-67.5 -71q-22 -13 -57 -13h-70l3 -4l209 -346h-63l-211 350h-203v-350h-50v699h393q56 0 98.5 -53t42.5 -123zM515 513v29q0 38 -30.5 74.5t-61.5 36.5l-343 3l-1 -259h343q30 0 61.5 39.5t31.5 76.5z" />
    <glyph glyph-name="S" unicode="S" 
d="M487 508h48q1 82 -67 134.5t-175 52.5t-176 -52.5t-69 -133.5q0 -49 25 -83t65.5 -50.5t89 -27.5t97 -21t89 -24t65.5 -42.5t25 -71.5q0 -64 -57.5 -102.5t-152.5 -38.5q-90 0 -145.5 40t-67.5 113h-51q0 -88 75 -142.5t196 -54.5q116 0 186.5 52t70.5 138q0 53 -25.5 89
t-66 54t-89.5 30t-98 21t-89.5 22t-66 39.5t-25.5 66.5q0 59 57.5 97t145.5 38q80 0 129 -38t57 -105z" />
    <glyph glyph-name="T" unicode="T" 
d="M323 0v644h235v54h-528v-54h239v-644h54z" />
    <glyph glyph-name="U" unicode="U" horiz-adv-x="541" 
d="M458 698h53v-495q0 -92 -65 -146.5t-177 -56.5q-111 2 -174 56t-63 147v495h53v-495q0 -71 48.5 -110.5t138.5 -39.5q89 0 137.5 39.5t48.5 110.5v495z" />
    <glyph glyph-name="V" unicode="V" horiz-adv-x="535" 
d="M505 698h-56l-180 -618l-182 618h-57l207 -698h62q89 303 206 698z" />
    <glyph glyph-name="W" unicode="W" horiz-adv-x="894" 
d="M427 698q-18 -73 -48 -200t-56 -234t-49 -200l-187 634h-57q158 -534 206 -698h79q12 50 58 245.5t73 301.5q20 -81 42.5 -173t48.5 -201.5t41 -172.5h79q83 287 207 698h-57l-188 -635l-152 635h-40z" />
    <glyph glyph-name="X" unicode="X" horiz-adv-x="627" 
d="M593 698h-62l-217 -296l-218 296h-64l247 -348l-249 -350l68 1l216 299l215 -299l68 -1l-249 350z" />
    <glyph glyph-name="Y" unicode="Y" horiz-adv-x="625" 
d="M595 694l-63 1l-217 -306l-218 306h-67l258 -360v-335h53v337z" />
    <glyph glyph-name="Z" unicode="Z" 
d="M30 644h463l-13 -17l-450 -567v-60h528v54h-465l13 17l452 568v59h-528v-54z" />
    <glyph glyph-name="bracketleft" unicode="[" horiz-adv-x="186" 
d="M134 757h-126v-821h126v40h-85v739h85v42z" />
    <glyph glyph-name="backslash" unicode="\" horiz-adv-x="507" 
d="M477 -3l-403 733h-44l404 -733h43z" />
    <glyph glyph-name="bracketright" unicode="]" horiz-adv-x="186" 
d="M51 -64h126v821h-126v-42h85v-739h-85v-40z" />
    <glyph glyph-name="asciicircum" unicode="^" horiz-adv-x="523" 
d="M280 750h-38l-212 -468h33l196 436l198 -436h36z" />
    <glyph glyph-name="underscore" unicode="_" horiz-adv-x="486" 
d="M456 -74h-426v-25h426v25z" />
    <glyph glyph-name="a" unicode="a" horiz-adv-x="545" 
d="M471 483v-93q-55 52 -95 71t-94 22q-103 5 -177.5 -65.5t-74.5 -171.5q0 -100 73 -173t173 -73q102 0 195 97v-99h44l-1 485h-43zM273 44q-81 0 -139 59t-58 142q0 82 57.5 140.5t138.5 58.5q82 0 140.5 -58.5t58.5 -141.5t-58 -141.5t-140 -58.5z" />
    <glyph glyph-name="b" unicode="b" horiz-adv-x="546" 
d="M74 97q68 -59 97 -75q46 -24 100 -24q104 0 174.5 71t70.5 175t-70.5 173.5t-176.5 69.5q-42 0 -78.5 -15t-55.5 -30t-62 -52l2 308h-44l-1 -700h44v99zM75 245q0 82 58 140.5t139 58.5q82 0 140 -58.5t58 -140.5q0 -83 -58.5 -142t-140.5 -59q-80 0 -138 59.5t-58 141.5
z" />
    <glyph glyph-name="c" unicode="c" horiz-adv-x="537" 
d="M271 1q83 0 146.5 50t89.5 137h-47q-20 -64 -72.5 -103.5t-118.5 -39.5q-80 0 -136.5 58.5t-56.5 141.5t56 139.5t138 56.5q65 0 116 -38.5t76 -106.5h45q-25 88 -88 137.5t-148 49.5q-103 0 -172 -69.5t-69 -172.5q0 -102 69 -171t172 -69z" />
    <glyph glyph-name="d" unicode="d" horiz-adv-x="546" 
d="M30 244q0 -104 70.5 -175t174.5 -71q129 0 198 99v-99h43l-1 700h-43l1 -308q-50 56 -95.5 76.5t-102.5 20.5q-104 0 -174.5 -70t-70.5 -173zM77 245q0 83 57.5 141t139.5 58t140.5 -58.5t58.5 -140.5t-58.5 -141.5t-139.5 -59.5q-82 0 -140 59t-58 142z" />
    <glyph glyph-name="e" unicode="e" horiz-adv-x="541" 
d="M507 300h-1l-2 7q-29 83 -90 129.5t-142 46.5q-103 0 -172.5 -69t-69.5 -172q0 -102 69.5 -172t171.5 -70q82 0 145.5 50.5t90.5 137.5h-47q-19 -64 -72.5 -103.5t-118.5 -39.5q-80 0 -136.5 58t-56.5 141v11h435q0 30 -4 45zM458 305h-372q14 60 66.5 98t122.5 38
q127 0 183 -136z" />
    <glyph glyph-name="f" unicode="f" horiz-adv-x="394" 
d="M283 485h-114v9q0 25 0.5 37.5t2.5 32.5t6 29.5t12.5 22t20.5 18.5t31 10t43 4q47 0 79 -19v46q-42 22 -93 22q-50 0 -88.5 -22.5t-52.5 -58.5t-13 -131h-82v-52h83v-433h51v433h114v52z" />
    <glyph glyph-name="g" unicode="g" horiz-adv-x="545" 
d="M471 488v-93q-89 93 -193 93q-105 0 -176.5 -69t-71.5 -169t72 -172.5t172 -72.5q104 0 197 97v-109q0 -78 -54.5 -117.5t-153.5 -39.5q-70 0 -111 31.5t-65 103.5h-42q20 -175 218 -175q70 0 119 12.5t74 35.5t39.5 54t16.5 68.5t3 79t0 84.5q-1 193 -1 358h-43zM76 250
q0 82 57.5 140.5t138.5 58.5q82 0 140.5 -59t58.5 -141t-58.5 -141t-139.5 -59t-139 59t-58 142z" />
    <glyph glyph-name="h" unicode="h" horiz-adv-x="521" 
d="M78 700v-283q78 73 184 73q100 0 163.5 -58t63.5 -157v-275h-47v225q0 104 -41.5 160.5t-140.5 56.5q-87 0 -134.5 -37t-47.5 -99v-306h-47v700h47z" />
    <glyph glyph-name="i" unicode="i" horiz-adv-x="144" 
d="M33 599q0 -16 12.5 -29t27.5 -13t27.5 13t12.5 29t-13 30t-28 14q-14 0 -26.5 -14t-12.5 -30zM95 489h-47v-491h47v491z" />
    <glyph glyph-name="j" unicode="j" horiz-adv-x="339" 
d="M226 600q0 -16 13 -29.5t29 -13.5t30 13t14 29t-14 30t-30 14t-29 -13.5t-13 -29.5zM291 491h-42q0 -79 0.5 -234t0.5 -234q0 -102 -23 -142t-84 -40q-73 0 -116 40v-50q41 -37 116 -36q44 1 69.5 10.5t45.5 40t27 88t6 152.5v405z" />
    <glyph glyph-name="k" unicode="k" horiz-adv-x="489" 
d="M93 193l281 -193h75l-357 244l354 242h-81l-273 -187v399h-46v-696h46z" />
    <glyph glyph-name="l" unicode="l" horiz-adv-x="120" 
d="M39 698l-1 -696h45l1 696h-45z" />
    <glyph glyph-name="m" unicode="m" horiz-adv-x="758" 
d="M726 0l2 234q0 131 -44.5 194.5t-136.5 63.5q-111 0 -170 -89q-31 47 -67.5 66.5t-92.5 19.5q-49 0 -80 -15t-62 -54v63h-45v-483h45v317q0 57 38 91t102 34q143 0 143 -217v-40t0.5 -87t0.5 -98h42q1 50 1 138v111q2 103 34 149.5t101 46.5q76 0 111.5 -57t35.5 -177
q0 -158 1 -211h41z" />
    <glyph glyph-name="n" unicode="n" horiz-adv-x="521" 
d="M78 483v-66q78 73 184 73q100 0 163.5 -58t63.5 -157v-275h-47v225q0 104 -41.5 160.5t-140.5 56.5q-87 0 -134.5 -37t-47.5 -99v-306h-47v483h47z" />
    <glyph glyph-name="o" unicode="o" horiz-adv-x="541" 
d="M30 245q0 -100 71 -171t171 -71q99 0 169 71.5t70 172.5t-69 171.5t-168 70.5q-100 0 -172 -71.5t-72 -172.5zM272 444q82 0 138 -57.5t56 -140.5t-57 -140.5t-140 -57.5q-81 0 -137 57t-56 140t57 141t139 58z" />
    <glyph glyph-name="p" unicode="p" horiz-adv-x="547" 
d="M517 246q0 104 -70.5 175t-174.5 71q-128 0 -198 -99v99h-43l1 -700h43l-1 308q51 -56 96 -76.5t103 -20.5q104 0 174 69.5t70 173.5zM470 245q0 -83 -57.5 -141t-139.5 -58t-140.5 58.5t-58.5 140.5t58.5 141.5t139.5 59.5q82 0 140 -59t58 -142z" />
    <glyph glyph-name="q" unicode="q" horiz-adv-x="547" 
d="M33 249q0 104 70.5 175t174.5 71q128 0 198 -99v99h43l-1 -700h-43l1 308q-51 -56 -96 -76.5t-103 -20.5q-104 0 -174 70t-70 173zM80 248q0 -83 57.5 -141t139.5 -58t140.5 58.5t58.5 140.5t-58.5 141.5t-139.5 59.5q-82 0 -140 -59t-58 -142z" />
    <glyph glyph-name="r" unicode="r" horiz-adv-x="357" 
d="M327 434v50q-32 5 -65 5q-61 0 -104 -14.5t-81 -49.5v58h-47v-483h47v255q0 101 45.5 144t136.5 43q31 0 68 -8z" />
    <glyph glyph-name="s" unicode="s" horiz-adv-x="441" 
d="M30 149q1 -68 53 -108t139 -40q86 0 137.5 37.5t51.5 100.5q0 43 -23.5 71t-59.5 39t-77 20.5t-77 16t-59.5 25.5t-23.5 49q0 38 38.5 62t98.5 24q105 0 120 -98h46q1 63 -46.5 102t-125.5 39q-79 0 -129.5 -38t-50.5 -97q0 -48 32.5 -75.5t79 -37.5t93.5 -18t79.5 -29
t32.5 -60q0 -41 -38.5 -66t-101.5 -25q-61 0 -97.5 27.5t-43.5 78.5h-48z" />
    <glyph glyph-name="t" unicode="t" horiz-adv-x="327" 
d="M297 0v48q-67 -4 -97.5 23t-30.5 92v272h114v47h-114v108h-51v-108h-88v-47h88v-174q0 -165 13 -197q11 -27 50.5 -46.5t83.5 -19.5q10 0 32 2z" />
    <glyph glyph-name="u" unicode="u" horiz-adv-x="521" 
d="M444 1v66q-78 -73 -184 -73q-100 0 -163.5 58t-63.5 157v275h47v-225q0 -104 41.5 -160.5t140.5 -56.5q87 0 134.5 37t47.5 99v306h47v-483h-47z" />
    <glyph glyph-name="v" unicode="v" horiz-adv-x="505" 
d="M417 486l-164 -447l-165 447h-58q55 -140 186 -486h72q5 8 10 20t12.5 34.5t14.5 40.5q3 9 21.5 55t29.5 76l99 260h-58z" />
    <glyph glyph-name="w" unicode="w" horiz-adv-x="646" 
d="M573 487q-122 -410 -130 -433q-38 170 -103 433h-32q-51 -206 -97 -398l-8 -35q-30 92 -129 433h-44q25 -81 73 -243.5t72 -243.5h58q15 62 44.5 186t45.5 186q14 -55 29 -117t33 -138t28 -117h59q9 30 62 211t82 276h-43z" />
    <glyph glyph-name="x" unicode="x" horiz-adv-x="462" 
d="M32 487q30 -44 89 -125t84 -118l-175 -244l52 1q52 67 150 205l148 -205l52 -1l-51 73q-11 16 -56.5 76.5t-66.5 94.5l172 243h-49q-20 -25 -149 -204q-17 24 -71 94t-80 110q-5 0 -14.5 0.5t-13.5 0.5t-11 -0.5t-10 -0.5z" />
    <glyph glyph-name="y" unicode="y" horiz-adv-x="463" 
d="M69 -203q83 0 120 45q12 15 24.5 38.5t25.5 57.5t21.5 56t21.5 61l15 45l136 383h-43l-152 -428l-166 428h-42l182 -501q0 -6 -18 -48q-20 -50 -48 -71t-77 -22v-44z" />
    <glyph glyph-name="z" unicode="z" horiz-adv-x="429" 
d="M30 45v-43h369v41h-319q14 18 94.5 118t152 189.5t72.5 92.5v43h-369v-41h319q-58 -77 -170 -215t-149 -185z" />
    <glyph glyph-name="braceleft" unicode="{" horiz-adv-x="291" 
d="M239 760q-62 0 -89 -14q-33 -17 -44.5 -60.5t-10 -93.5t1 -98.5t-21 -82.5t-67.5 -38v-53q90 -9 90 -149q0 -8 -0.5 -38t-0.5 -44t2.5 -40t6.5 -41t13 -31t21 -25q26 -19 85 -19h14v49q-50 0 -69.5 18t-19.5 66q0 16 0.5 50.5t0.5 48t-2 40t-6 38t-11.5 30.5t-19 29.5
t-28 23t-39.5 21.5q106 45 106 141q0 19 -0.5 47t-0.5 43t0.5 35.5t2.5 31t6 24t10.5 20t16 12.5t22.5 8t31 2v49z" />
    <glyph glyph-name="bar" unicode="|" horiz-adv-x="103" 
d="M73 811h-43v-856h43v856z" />
    <glyph glyph-name="braceright" unicode="}" horiz-adv-x="291" 
d="M192 106v26.5v29t0.5 27t2 28t5 25.5t8 24.5t11 19.5t15.5 17t21 11t27 6v53q-46 5 -66.5 37.5t-22.5 79t-0.5 95t-7.5 92.5t-36 64q-26 19 -84 19h-14v-49q50 0 67 -16q20 -18 21 -77t4.5 -125.5t28.5 -98.5q20 -26 74 -47q-59 -23 -83 -60.5t-24 -104.5q0 -9 0.5 -43.5
t0 -49.5t-3 -39t-9 -37.5t-17.5 -20.5q-16 -10 -59 -10v-49q74 0 98 19q43 34 43 154z" />
    <glyph glyph-name="asciitilde" unicode="~" horiz-adv-x="483" 
d="M453 344v47q-65 -42 -108 -42q-28 0 -100.5 37t-111.5 37q-36 0 -103 -39v-46q66 38 104 38q32 0 102.5 -35t107.5 -35q38 0 109 38z" />
    <glyph glyph-name="exclamdown" unicode="&#xa1;" horiz-adv-x="177" 
d="M73 559q-17 0 -30 -13t-13 -32q0 -18 13 -31.5t30 -13.5q18 0 31 13.5t13 31.5q0 19 -13 32t-31 13zM52 381v-470h44v470h-44z" />
    <glyph glyph-name="cent" unicode="&#xa2;" horiz-adv-x="473" 
d="M227 -40h33v79q76 8 123 45.5t60 99.5h-58q-12 -42 -39.5 -63t-85.5 -32v379q45 -2 79 -28t46 -69h57q-11 62 -66.5 107t-115.5 40v80h-33v-80q-92 -8 -144.5 -72t-52.5 -169q0 -103 52 -165.5t145 -71.5v-80zM227 468v-378q-65 8 -101.5 58.5t-36.5 133.5q0 153 126 183
z" />
    <glyph glyph-name="sterling" unicode="&#xa3;" horiz-adv-x="470" 
d="M30 358v-35h101q11 -36 11 -72q0 -59 -30 -99.5t-82 -50.5v-44h410v43l-362 1l50 19q30 12 48.5 49t18.5 86q0 23 -7 68h181v35h-193q-12 50 -12 85q0 65 40 101t112 36q48 0 95 -15v43q-42 17 -103 17q-93 0 -146 -47.5t-53 -131.5q0 -33 12 -88h-91z" />
    <glyph glyph-name="yen" unicode="&#xa5;" horiz-adv-x="465" 
d="M435 679h-49l-154 -277l-151 277h-51l180 -325h-160v-31h161v-88h-161v-32h161v-153h43v153h163v32h-163v88h163v31h-162z" />
    <glyph glyph-name="copyright" unicode="&#xa9;" horiz-adv-x="724" 
d="M500 67q29 13 58 35.5t62 59t53.5 92t20.5 119.5q0 52 -14 99t-35 79.5t-49 60t-51 43t-45 25.5q-63 30 -136 30q-68 0 -129 -26q-30 -13 -61 -35t-65.5 -58.5t-56.5 -93t-22 -122.5t22 -122.5t56 -93.5t65.5 -60t60.5 -35q62 -26 129 -26q72 0 137 29zM480 652
q27 -12 55.5 -32.5t59 -53.5t50 -83.5t19.5 -108.5q0 -56 -18.5 -105.5t-48 -82t-56.5 -53.5t-53 -33q-58 -27 -125 -27q-63 0 -117 24q-27 11 -56 32t-59.5 54t-50 83.5t-19.5 108.5q0 56 18.5 105.5t47.5 82t56.5 53t53.5 32.5q60 28 125 28q60 0 118 -24zM545 335h-30v-2
q-20 -57 -61.5 -82t-83.5 -25q-18 0 -41.5 7.5t-49.5 23.5t-43.5 47t-17.5 72t17.5 72t43 47t48.5 24t41 8q42 0 85.5 -26.5t61.5 -83.5v-2h31l-2 7q-19 70 -74 103.5t-104 33.5q-20 0 -47 -9t-57.5 -28t-51.5 -57t-21 -88q0 -51 21.5 -89.5t53.5 -57.5t60 -28t48 -9
q50 0 98 31.5t73 103.5z" />
    <glyph glyph-name="guillemotleft" unicode="&#xab;" horiz-adv-x="395" 
d="M72 315l93 230h-42l-93 -230l93 -229h42zM271 315l94 230h-43l-92 -230l92 -229h43z" />
    <glyph glyph-name="registered" unicode="&#xae;" horiz-adv-x="724" 
d="M490 64q29 12 60.5 35t65.5 60t56 93.5t22 122.5q0 64 -20.5 119.5t-53.5 92t-62.5 59t-58.5 35.5q-66 30 -136 30q-65 0 -129 -27q-29 -13 -60 -35t-65.5 -58.5t-56.5 -93t-22 -122.5q0 -64 21 -119.5t53.5 -92.5t62.5 -59.5t59 -35.5q63 -30 135 -30q68 0 129 26z
M478 653q28 -12 56.5 -33t59 -54t50 -84t19.5 -109q0 -56 -18.5 -105t-47.5 -81.5t-56 -53.5t-53 -33q-58 -27 -124 -27q-63 0 -118 24q-27 12 -55.5 33t-60 54.5t-51 84t-19.5 108.5q0 56 18.5 105.5t47.5 82t56.5 53t53.5 32.5q58 27 124 27q63 0 118 -24zM508 194
l-104 171q9 -1 21 0q20 0 37 7q46 17 46 75q0 53 -26 75t-53 22h-189v-350h31v169h96l102 -169h39zM271 393v122l156 -2q17 0 32 -12q20 -16 20 -43q0 -29 -16.5 -47t-32.5 -18h-159z" />
    <glyph glyph-name="guillemotright" unicode="&#xbb;" horiz-adv-x="395" 
d="M123 316l-93 -230h43l92 230l-92 229h-43zM323 316l-93 -230h42l93 230l-93 229h-42z" />
    <glyph glyph-name="questiondown" unicode="&#xbf;" horiz-adv-x="458" 
d="M213 397q18 0 31 13t13 32q0 18 -13 31t-31 13q-19 0 -31 -12.5t-12 -31.5t12.5 -32t30.5 -13zM208 -153q61 0 108 28.5t67 75.5q14 33 15 87h-47q-2 -73 -37 -111.5t-98 -38.5q-61 0 -98 32t-37 84q0 33 16 59t39 47t46 45.5t40 65.5t19 96h-50q0 -45 -16.5 -80.5
t-40 -59t-47.5 -45.5t-40.5 -53t-16.5 -70q0 -71 50 -116.5t128 -45.5z" />
    <glyph glyph-name="multiply" unicode="&#xd7;" horiz-adv-x="574" 
d="M311 370l233 235l-26 25l-232 -235l-231 235l-25 -24l232 -236l-231 -234l25 -26l230 234l232 -235l25 27z" />
    <glyph glyph-name="divide" unicode="&#xf7;" horiz-adv-x="652" 
d="M327 588q-15 0 -26.5 -11.5t-11.5 -26.5t11.5 -27t26.5 -12t25.5 11.5t10.5 27.5t-10.5 27t-25.5 11zM30 365h592v42h-592v-42zM327 256q-16 0 -27 -11t-11 -27q0 -15 11.5 -26.5t27.5 -11.5q15 0 25 11t10 27t-10.5 27t-25.5 11z" />
    <glyph glyph-name="endash" unicode="&#x2013;" horiz-adv-x="486" 
d="M30 310h426v34h-426v-34z" />
    <glyph glyph-name="emdash" unicode="&#x2014;" horiz-adv-x="931" 
d="M30 310h871v34h-871v-34z" />
    <glyph glyph-name="quoteleft" unicode="&#x2018;" horiz-adv-x="174" 
d="M119 616l-85 -159q-4 -7 -4 -18q0 -20 12.5 -33.5t30.5 -13.5t31 13t13 32q0 17 -25 42l52 126z" />
    <glyph glyph-name="quoteright" unicode="&#x2019;" horiz-adv-x="173" 
d="M56 413l84 159q3 4 3 18q0 20 -12 33.5t-31 13.5q-18 0 -30.5 -13t-12.5 -32q0 -18 24 -42l-51 -126z" />
    <glyph glyph-name="quotesinglbase" unicode="&#x201a;" horiz-adv-x="174" 
d="M56 -94l84 159q4 7 4 19q0 20 -12 32.5t-31 12.5t-31.5 -12t-12.5 -30q0 -21 17 -36l10 -4l-54 -129z" />
    <glyph glyph-name="quotedblleft" unicode="&#x201c;" horiz-adv-x="326" 
d="M118 616l-84 -159q-4 -7 -4 -19q0 -20 11.5 -33t30.5 -13t31.5 13t12.5 33q0 27 -26 39l53 128zM270 610l-84 -159q-4 -7 -4 -19q0 -20 12 -32.5t31 -12.5q18 0 31 12.5t13 31.5t-25 43l52 125z" />
    <glyph glyph-name="quotedblright" unicode="&#x201d;" horiz-adv-x="326" 
d="M56 443q2 4 19.5 36t31 57t25.5 54t12 40q0 14 -13 25t-30 11q-19 0 -31.5 -12.5t-12.5 -31.5q0 -22 26 -41l-53 -127zM209 438l84 158q3 4 3 19q0 20 -12 33t-30 13q-19 0 -32 -13t-13 -32q0 -9 3.5 -15.5t11 -14.5t10.5 -12l-51 -125z" />
    <glyph glyph-name="quotedblbase" unicode="&#x201e;" horiz-adv-x="326" 
d="M56 -96l84 158q3 6 3 18q0 20 -12 33.5t-30 13.5q-19 0 -31.5 -13t-12.5 -32q0 -21 26 -40l-53 -127zM208 -102q2 4 15 27t23.5 43t23 44.5t19.5 43.5t7 28q0 15 -13 26.5t-30 11.5q-19 0 -31.5 -13t-12.5 -32q0 -26 26 -40l-53 -127z" />
    <glyph glyph-name="bullet" unicode="&#x2022;" horiz-adv-x="307" 
d="M153 458q-52 0 -87.5 -36t-35.5 -88q0 -53 36 -90t87 -37q52 0 88 37t36 89t-36 88.5t-88 36.5z" />
    <glyph glyph-name="ellipsis" unicode="&#x2026;" horiz-adv-x="757" 
d="M426 270q0 21 -14.5 35.5t-34.5 14.5q-21 0 -35.5 -14.5t-14.5 -34.5q0 -21 15 -36.5t35 -15.5t34.5 15t14.5 36zM129 269q0 21 -14.5 35.5t-34.5 14.5q-21 0 -35.5 -14.5t-14.5 -34.5q0 -21 15 -36.5t35 -15.5t34.5 15t14.5 36zM727 269q0 21 -14 35.5t-35 14.5
t-35.5 -14.5t-14.5 -35.5t14.5 -36t35.5 -15t35 14.5t14 36.5z" />
    <glyph glyph-name="guilsinglleft" unicode="&#x2039;" horiz-adv-x="194" 
d="M71 315l93 230h-42l-92 -230l92 -229h42z" />
    <glyph glyph-name="guilsinglright" unicode="&#x203a;" horiz-adv-x="195" 
d="M123 316l-93 -230h42l93 230l-93 229h-42z" />
    <glyph glyph-name="Euro" unicode="&#x20ac;" horiz-adv-x="525" 
d="M495 45v52q-29 -6 -66 -6q-95 0 -160.5 49t-82.5 134h244v34h-250q-2 15 -2 40q0 30 3 57h249v33h-244q56 179 236 179q28 0 73 -5v52q-24 7 -66 7q-118 0 -201.5 -61.5t-103.5 -163.5l-1 -8h-93v-33h88q-3 -51 -3 -56q0 -17 2 -41h-87v-34h92l1 -8q20 -104 102.5 -166
t200.5 -62q36 0 69 7z" />
    <glyph glyph-name="trademark" unicode="&#x2122;" horiz-adv-x="866" 
d="M801 325l-3 276l-163 -267l-163 267l-3 -276h-37v342h38l165 -273l165 273h38v-342h-37zM202 313v326h139v27h-312v-27h141v-326h32z" />
    <glyph glyph-name="uni3008" unicode="&#x3008;" horiz-adv-x="285" 
d="M230 69l25 21l-189 257l188 261l-23 17l-201 -277z" />
    <glyph glyph-name="uni3009" unicode="&#x3009;" horiz-adv-x="285" 
d="M55 69l200 279l-201 277l-24 -17l189 -261l-189 -257z" />
    <glyph glyph-name="uni300A" unicode="&#x300a;" horiz-adv-x="415" 
d="M229 69l26 21l-189 257l188 261l-24 18l-200 -278zM359 69l26 21l-191 257l190 261l-25 18l-200 -278z" />
    <glyph glyph-name="uni300B" unicode="&#x300b;" horiz-adv-x="415" 
d="M56 69l200 279l-201 278l-25 -18l190 -261l-190 -257zM185 69l200 279l-200 278l-25 -18l189 -261l-189 -257z" />
    <glyph glyph-name="LF" horiz-adv-x="0" 
 />
    <glyph glyph-name="_FSHallmark" horiz-adv-x="754" 
d="M71 603h630v-74h-630v74zM619 388q0 16 -16.5 28t-38.5 12t-37 -11.5t-15 -28.5q0 -23 29.5 -33.5t64.5 -12.5t64.5 -20t29.5 -54q0 -41 -38 -67t-96 -26q-61 0 -100.5 31.5t-39.5 81.5l73 -1q8 -51 65 -51q25 0 42 8.5t17 20.5q0 16 -29.5 27t-65.5 18t-65.5 29
t-29.5 58q0 40 37.5 66t95.5 26q57 0 93 -28t36 -73h-76zM154 175h-83v313h265v-71h-182v-70h151v-70h-151v-102zM329 215q0 15 11 25t27 10q17 0 29.5 -11t12.5 -26t-11.5 -25.5t-28.5 -10.5t-28.5 11t-11.5 27zM69 136h631v-75h-631v75z" />
    <glyph glyph-name="_Fontastica" horiz-adv-x="754" 
d="M218 113h-87l-1 4v510h382v-78h-294v-210h295v-79h-295v-147zM273 481h296v146h87v-513h-383v78h296v210h-296v79zM580 68q-5 0 -10.5 -5t-5.5 -10q0 -13 14 -13q8 0 13 4l4 -4q-6 -9 -18 -9q-8 0 -16 5q-7 8 -7 18q0 9 7 16t16 7q10 0 18 -8l-4 -6l-5 3q-4 2 -6 2z
M131 76h32v-8h-21v-12h20v-7h-20v-17h-11v44zM202 76q11 0 19 -7.5t8 -18.5q0 -8 -3 -11.5t-12 -6t-12 -3.5q-6 0 -9 3q-14 6 -14 20q0 10 6.5 17t16.5 7zM288 32q-4 0 -6 -1q-6 3 -13.5 14t-10.5 14v-27h-10v44h8q3 0 5 -6l18 -24v30h9v-44zM307 76h37v-8h-14v-36h-9v36
h-14v8zM433 59q20 -4 20 -16t-17 -12q-13 0 -20 7q0 1 2 3l1 3q1 0 7 -2l7 -2h6q2 2 3 2q0 7 -11.5 9t-11.5 11q0 14 18 14q11 0 16 -4l-4 -8q-4 1 -10 4h-6l-3 -3q0 -3 3 -6zM468 76h38v-8h-14v-36h-10v36h-14v8zM524 76h11v-44h-11v44zM640 76q1 -3 7.5 -20t11.5 -24h-10
l-4 9h-21l-4 -9h-10q11 23 18 44h12zM382 74q2 -6 8.5 -20t9.5 -22h-10l-3 9h-20q-1 -6 -4 -9h-9l18 42h10zM216 54q0 14 -11 14q-6 0 -11 -5t-5 -11q0 -5 4.5 -9t9.5 -4q13 0 13 15zM384 49q-2 2 -4 8t-3 8l-8 -16h15zM641 49q-1 3 -4 9t-3 7l-7 -16h14z" />
    </font>
</defs>
</svg>
