<?xml version="1.0" standalone="no"?>
<!DOCTYPE svg PUBLIC "-//W3C//DTD SVG 1.1//EN" "http://www.w3.org/Graphics/SVG/1.1/DTD/svg11.dtd" >
<svg xmlns="http://www.w3.org/2000/svg" xmlns:xlink="http://www.w3.org/1999/xlink" version="1.1">
<metadata>
Created by FontForge 20170731 at Wed Nov 14 16:40:08 2018
 By Aleksey,,,
Copyright (c) 2018 by Fontastica. All rights reserved.
</metadata>
<defs>
<font id="FocusGrotesk-LightItalic" horiz-adv-x="588" >
  <font-face 
    font-family="Focus Grotesk Light"
    font-weight="300"
    font-style="italic"
    font-stretch="normal"
    units-per-em="1000"
    panose-1="0 0 4 0 0 0 0 0 0 0"
    ascent="800"
    descent="-200"
    x-height="483"
    cap-height="698"
    bbox="-113 -208 864 811"
    underline-thickness="50"
    underline-position="-200"
    unicode-range="U+000D-300B"
  />
<missing-glyph horiz-adv-x="527" 
d="M50 700h427l-111 -700h-427zM211 371l235 309h-371zM354 47l95 605l-228 -302zM196 350l-133 300l-95 -601zM205 329l-234 -308h370z" />
    <glyph glyph-name=".notdef" horiz-adv-x="527" 
d="M50 700h427l-111 -700h-427zM211 371l235 309h-371zM354 47l95 605l-228 -302zM196 350l-133 300l-95 -601zM205 329l-234 -308h370z" />
    <glyph glyph-name=".null" horiz-adv-x="0" 
 />
    <glyph glyph-name="nonmarkingreturn" horiz-adv-x="333" 
 />
    <glyph glyph-name="CR" unicode="&#xd;" horiz-adv-x="0" 
 />
    <glyph glyph-name="space" unicode=" " horiz-adv-x="280" 
 />
    <glyph glyph-name="exclam" unicode="!" horiz-adv-x="177" 
d="M11 177l76 481h-43l-76 -481h43zM-23 90q-19 0 -33.5 -12.5t-17.5 -31.5q-2 -18 8 -31.5t28 -13.5t33.5 13.5t18.5 32.5q2 18 -8.5 30.5t-28.5 12.5z" />
    <glyph glyph-name="quotedbl" unicode="&#x22;" horiz-adv-x="274" 
d="M3 474h26l38 184h-44zM172 474h26l39 184h-45z" />
    <glyph glyph-name="numbersign" unicode="#" horiz-adv-x="522" 
d="M400 265h-102l47 157h103l6 35h-97l63 205h-33l-62 -205h-159l61 205h-30l-62 -205h-116l-6 -35h110l-49 -157h-113l-6 -36h108l-67 -215h32l66 215h161l-66 -215h32l66 215h107zM314 422l-48 -157h-161l49 157h160z" />
    <glyph glyph-name="dollar" unicode="$" horiz-adv-x="467" 
d="M106 -11h31l12 74q81 0 141.5 46.5t71.5 117.5q5 32 -3 56.5t-20.5 39t-41 28t-45 18.5t-52.5 15l34 218q58 -10 84 -34t25 -68h55q5 64 -36 103t-120 47l12 75h-31l-12 -75q-84 -9 -136 -49.5t-62 -104.5q-10 -61 25.5 -98t123.5 -59l-36 -228q-54 3 -84 31t-32 75h-56
q-5 -64 38 -104.5t126 -49.5zM203 601l-33 -210q-23 8 -27.5 9.5t-24 9.5t-25 14t-15.5 17t-12 24t1 30q7 43 45 73t91 33zM157 111l35 220q67 -16 93.5 -43t19.5 -72q-15 -93 -148 -105z" />
    <glyph glyph-name="percent" unicode="%" horiz-adv-x="691" 
d="M584 707h-27q-37 -39 -54 -60l-517 -642h34zM173 699q-58 0 -106 -42t-58 -101q-9 -59 25.5 -100.5t92.5 -41.5q59 0 106.5 41.5t56.5 100.5q10 60 -24 101.5t-93 41.5zM166 663q44 0 70 -31t19 -76t-42.5 -75.5t-79.5 -30.5q-45 0 -70.5 30.5t-18.5 75.5q8 45 43 76
t79 31zM460 316q-58 0 -105.5 -42t-56.5 -101q-10 -59 24 -100.5t93 -41.5t106 41.5t57 101.5q9 59 -25.5 100.5t-92.5 41.5zM454 280q44 0 70.5 -31t19.5 -76q-8 -45 -43 -75.5t-80 -30.5q-44 0 -69.5 31t-18.5 76q7 44 42 75t79 31z" />
    <glyph glyph-name="ampersand" unicode="&#x26;" horiz-adv-x="600" 
d="M391 16h71l-84 109q41 58 61 107t31 119l1 8h-53q-11 -65 -25.5 -107.5t-43.5 -89.5l-146 192q154 68 169 166q9 56 -28 92.5t-102 36.5q-64 0 -112.5 -37t-57.5 -92q-10 -73 61 -155q-35 -18 -51.5 -27t-44.5 -28t-43 -35.5t-28.5 -42.5t-18.5 -55q-12 -77 38.5 -123.5
t144.5 -46.5q104 0 208 79q11 -12 29.5 -37.5t23.5 -32.5zM317 516q-12 -77 -136 -132q-63 76 -55 131q6 40 37.5 66t73.5 26q41 0 63.5 -25.5t16.5 -65.5zM137 52q-68 0 -103 39t-25 103q4 25 11.5 42.5t25 32t28 21.5t40 22t41.5 21l155 -211q-30 -32 -77.5 -51t-95.5 -19
z" />
    <glyph glyph-name="quotesingle" unicode="'" horiz-adv-x="104" 
d="M3 474h25l39 184h-44z" />
    <glyph glyph-name="parenleft" unicode="(" horiz-adv-x="194" 
d="M151 769h-48q-119 -206 -158 -453q-35 -222 6 -392h46q-40 172 -5 396q40 255 159 449z" />
    <glyph glyph-name="parenright" unicode=")" horiz-adv-x="193" 
d="M127 316q39 246 -13 453h-48q57 -192 17 -449q-35 -221 -131 -396h46q94 172 129 392z" />
    <glyph glyph-name="asterisk" unicode="*" horiz-adv-x="341" 
d="M184 659h-41l-6 -138l-102 81l-26 -35l117 -57l-135 -57l15 -37l127 81l-38 -139h41l7 139l102 -81l26 37l-116 57l135 57l-16 35l-127 -80z" />
    <glyph glyph-name="plus" unicode="+" horiz-adv-x="481" 
d="M202 575l-30 -190h-192l-6 -40h192l-31 -192h38l31 192h191l6 40h-191l30 190h-38z" />
    <glyph glyph-name="comma" unicode="," horiz-adv-x="255" 
d="M48 90l-37 19l-89 -157l24 -11z" />
    <glyph glyph-name="hyphen" unicode="-" horiz-adv-x="279" 
d="M181 273h-219l-6 -42h219z" />
    <glyph glyph-name="period" unicode="." horiz-adv-x="237" 
d="M-13 90q-18 0 -33 -13t-18 -31q-2 -18 9 -31.5t28 -13.5q18 0 32.5 13t17.5 32q3 18 -7.5 31t-28.5 13z" />
    <glyph glyph-name="slash" unicode="/" horiz-adv-x="364" 
d="M-36 -3l375 733h-46l-374 -733h45z" />
    <glyph glyph-name="zero" unicode="0" horiz-adv-x="550" 
d="M-25 352q-27 -168 20.5 -259t162.5 -91q117 0 199.5 94t107.5 257q26 163 -26 257t-169 94q-115 0 -191.5 -91.5t-103.5 -260.5zM24 343q24 150 87.5 233t154.5 83t131.5 -83t17.5 -226q-22 -142 -89.5 -224t-159.5 -82q-91 0 -128 78t-14 221z" />
    <glyph glyph-name="one" unicode="1" horiz-adv-x="315" 
d="M104 0h58l111 701h-65l-189 -133l-10 -65l197 138z" />
    <glyph glyph-name="two" unicode="2" horiz-adv-x="538" 
d="M2 492h53q22 79 76.5 125.5t125.5 46.5q76 0 121.5 -45.5t34.5 -112.5q-3 -19 -9.5 -37.5t-20.5 -38t-22.5 -31.5t-31 -33.5t-30 -28.5t-35 -30.5t-31.5 -26.5l-313 -274h478l8 47h-363l238 208q42 37 62 55.5t52 54t49 70t23 71.5q14 85 -41 141.5t-152 56.5
q-96 0 -172 -60.5t-100 -157.5z" />
    <glyph glyph-name="three" unicode="3" horiz-adv-x="540" 
d="M31 549h57q66 111 166 111q64 0 100.5 -35.5t28.5 -88.5q-9 -56 -68 -89.5t-150 -33.5h-35l-7 -43q138 0 203.5 -40t53.5 -116q-11 -73 -74.5 -120t-150.5 -47q-135 0 -153 135h-54q8 -88 59 -135t139 -47q108 0 190.5 61t96.5 152q19 124 -124 182q120 53 133 142
q11 71 -42 120t-141 49q-75 0 -135 -41.5t-93 -115.5z" />
    <glyph glyph-name="four" unicode="4" horiz-adv-x="573" 
d="M451 715l-506 -549h363l-26 -166h57l26 166h93l8 49h-93l79 500h-1zM316 215h-260l314 340z" />
    <glyph glyph-name="five" unicode="5" horiz-adv-x="561" 
d="M505 669l8 48h-328l-121 -328q93 32 163 32q89 0 136.5 -48.5t34.5 -125.5q-13 -82 -82 -139t-155 -57q-63 0 -104 33t-49 91h-61q2 -78 58.5 -124.5t149.5 -46.5q115 0 201 67.5t102 169.5q16 98 -40.5 162t-159.5 64q-49 0 -116 -17l81 219h282z" />
    <glyph glyph-name="six" unicode="6" horiz-adv-x="524" 
d="M392 700l-58 1l-249 -283q-47 -53 -68.5 -79.5t-42 -61.5t-25.5 -65q-14 -91 43 -152t156 -61q101 0 180 62.5t93 154.5q14 89 -37.5 149.5t-142.5 60.5q-67 0 -116 -23zM211 381q75 0 122 -48.5t36 -116.5q-10 -69 -73.5 -120t-137.5 -51q-75 0 -122 49t-36 118
q10 69 73 119t138 50z" />
    <glyph glyph-name="seven" unicode="7" horiz-adv-x="540" 
d="M511 706h-480l-8 -49h390l-474 -655l59 -2z" />
    <glyph glyph-name="eight" unicode="8" horiz-adv-x="549" 
d="M440 202q10 61 -20.5 106t-105.5 81q129 54 146 150q10 70 -42.5 120t-137.5 50q-87 0 -158 -50.5t-82 -120.5q-15 -98 101 -149q-89 -37 -134.5 -82t-55.5 -107q-14 -86 46.5 -142.5t166.5 -56.5q105 0 183.5 57.5t92.5 143.5zM273 668q65 0 106.5 -39t32.5 -91
q-8 -53 -62.5 -92t-116.5 -39q-63 0 -108 40.5t-37 93.5q8 52 63.5 89.5t121.5 37.5zM224 364q78 0 128 -47.5t40 -113.5q-11 -67 -76.5 -115t-147.5 -48q-81 0 -133 46.5t-42 111.5q11 67 81 116.5t150 49.5z" />
    <glyph glyph-name="nine" unicode="9" horiz-adv-x="532" 
d="M22 -1l59 -1l253 297q7 8 26 30.5t25 30t21 25.5t20.5 26t15.5 23t14 25t8 22t6 24q15 91 -42.5 152t-156.5 61q-101 0 -180 -62.5t-93 -154.5q-14 -89 38 -149.5t143 -60.5q66 0 115 23zM208 332q-75 0 -122 48.5t-36 116.5q10 69 73.5 120t137.5 51q75 0 122 -49
t36 -118t-74 -119t-137 -50z" />
    <glyph glyph-name="colon" unicode=":" horiz-adv-x="237" 
d="M50 486q-18 0 -33 -13t-18 -32q-3 -18 8 -31t29 -13q19 0 33 12.5t17 31.5t-7.5 32t-28.5 13zM-13 90q-18 0 -33 -13t-18 -31q-2 -18 9 -31.5t28 -13.5q18 0 32.5 13t17.5 32q3 18 -7.5 31t-28.5 13z" />
    <glyph glyph-name="semicolon" unicode=";" horiz-adv-x="259" 
d="M72 486q-18 0 -33 -13t-18 -32q-3 -18 8 -31t30 -13q18 0 32 12.5t17 31.5t-7.5 32t-28.5 13zM48 90l-37 19l-89 -157l24 -11z" />
    <glyph glyph-name="less" unicode="&#x3c;" horiz-adv-x="489" 
d="M371 144l7 42l-351 177l407 179l7 43l-461 -198l-7 -45z" />
    <glyph glyph-name="equal" unicode="=" horiz-adv-x="481" 
d="M410 441l6 41h-421l-6 -41h421zM379 247l7 40h-421l-7 -40h421z" />
    <glyph glyph-name="greater" unicode="&#x3e;" horiz-adv-x="489" 
d="M356 363l-407 -177l-7 -42l460 198l7 45l-397 198l-7 -43z" />
    <glyph glyph-name="question" unicode="?" horiz-adv-x="458" 
d="M212 650q-61 0 -112.5 -28.5t-78.5 -75.5q-20 -35 -29 -87h47q13 73 53.5 111.5t104.5 38.5q61 0 93 -31.5t24 -83.5q-5 -33 -25.5 -59.5t-47 -47.5t-53.5 -46t-50.5 -66t-32.5 -95h49q7 45 29.5 80.5t50 58.5t54.5 45.5t48.5 53.5t27.5 70q11 71 -31.5 116.5
t-120.5 45.5zM120 100q-18 0 -33 -13t-18 -32q-3 -18 8 -31t29 -13t32.5 12.5t17.5 31.5t-7.5 32t-28.5 13z" />
    <glyph glyph-name="at" unicode="@" horiz-adv-x="709" 
d="M627 374q21 132 -54.5 214.5t-217.5 82.5q-148 0 -253.5 -94.5t-130.5 -247.5q-24 -153 54.5 -242.5t236.5 -89.5q70 0 124 18l4 30q-53 -15 -119 -15q-142 0 -213.5 80t-49.5 216q22 138 118 225.5t225 87.5q124 0 190.5 -74t47.5 -191q-12 -77 -47 -127t-77 -50
q-25 0 -38 15t-9 41l37 235h-42l-8 -52h-20q-4 27 -28 43t-59 16q-57 0 -100 -45.5t-54 -118.5q-12 -74 18 -119t92 -45q34 0 58 15t47 51h18q-4 -31 17.5 -50t61.5 -19q62 0 109.5 58t61.5 152zM189 333q9 58 40.5 92t76.5 34q46 0 68.5 -35t13.5 -93q-9 -57 -42 -91.5
t-79 -34.5q-45 0 -66.5 34.5t-11.5 93.5z" />
    <glyph glyph-name="A" unicode="A" horiz-adv-x="743" 
d="M536 0h66q-99 276 -235 681q-6 -9 -448 -681h64q5 8 28 44t44 69t23 37h410zM470 207h-355l234 369l115 -354z" />
    <glyph glyph-name="B" unicode="B" horiz-adv-x="639" 
d="M466 374q101 63 115 149q11 70 -26.5 123t-98.5 53h-426l-111 -699h425q62 0 121 65.5t66 151.5q4 52 -11.5 87.5t-53.5 69.5zM531 542l-5 -29q-5 -37 -44.5 -74t-72.5 -37h-372l40 254l372 -3q34 0 61 -36.5t21 -74.5zM28 344l368 -1q1 0 22 -9q75 -35 60 -135
q-8 -52 -35.5 -88t-69.5 -51q-1 0 -10 -3l-9 -3h-372z" />
    <glyph glyph-name="C" unicode="C" horiz-adv-x="732" 
d="M632 262h-48q-49 -96 -134.5 -153.5t-180.5 -57.5q-122 0 -194 87.5t-52 211.5q20 125 118.5 213t218.5 88q98 0 168.5 -60t83.5 -155h48q2 14 -5 33q-32 111 -104.5 170t-176.5 59q-94 0 -180.5 -46.5t-145 -126.5t-73.5 -175q-23 -143 62 -244.5t228 -101.5
q114 0 213.5 70t153.5 188z" />
    <glyph glyph-name="D" unicode="D" horiz-adv-x="611" 
d="M118 -1q173 0 277.5 95.5t130.5 255.5q19 117 -27.5 208.5t-136.5 121.5q-61 20 -230 20h-102l-111 -700q39 0 117 -0.5t82 -0.5zM77 654h115q81 0 120 -12q86 -24 133.5 -107.5t31.5 -184.5q-24 -146 -113.5 -222.5t-213.5 -76.5h-171z" />
    <glyph glyph-name="E" unicode="E" 
d="M28 344h400l8 54h-400l41 256h474l7 44h-528l-111 -698h528l8 51h-474z" />
    <glyph glyph-name="F" unicode="F" 
d="M436 398h-400l41 256h474l7 44h-528l-111 -698h54l55 344h400z" />
    <glyph glyph-name="G" unicode="G" horiz-adv-x="736" 
d="M611 439h49q-7 109 -92 183.5t-203 74.5q-137 0 -252.5 -102t-137.5 -244t59 -244.5t217 -102.5q120 0 230.5 74.5t147.5 180.5q11 27 19 73h-338l-8 -50h290q-33 -97 -129.5 -164t-202.5 -67q-118 0 -187.5 87.5t-49.5 211.5q19 125 119 213t222 88q95 0 162 -57.5
t85 -154.5z" />
    <glyph glyph-name="H" unicode="H" 
d="M456 398h-420l48 300h-49l-111 -698h49l55 344h420l-55 -344h49l111 698h-49z" />
    <glyph glyph-name="I" unicode="I" horiz-adv-x="114" 
d="M-31 0l111 698h-46l-111 -698h46z" />
    <glyph glyph-name="J" unicode="J" horiz-adv-x="367" 
d="M330 698h-48q-12 -79 -36.5 -234t-36.5 -234q-17 -102 -49 -142t-101 -40q-83 0 -125 40l-8 -50q41 -37 125 -36q50 1 80.5 10.5t58 40t45 88t31.5 152.5z" />
    <glyph glyph-name="K" unicode="K" horiz-adv-x="555" 
d="M328 0h75l-368 347l474 351h-72l-399 -295l46 295h-49l-111 -698h49l47 290z" />
    <glyph glyph-name="L" unicode="L" horiz-adv-x="514" 
d="M-19 51l103 647h-54l-111 -698h454l8 51h-400z" />
    <glyph glyph-name="M" unicode="M" horiz-adv-x="642" 
d="M454 0l85 564l-324 -557h-1l-148 557l-93 -564h-51l111 698h53l148 -568l329 568h53l-111 -698h-51z" />
    <glyph glyph-name="N" unicode="N" 
d="M558 698h-57l-96 -601l-314 602h-61l-108 -699h54l96 607l318 -607h57z" />
    <glyph glyph-name="O" unicode="O" horiz-adv-x="741" 
d="M656 352q22 143 -61.5 244.5t-223.5 101.5q-141 0 -257 -101.5t-139 -244.5q-22 -143 62 -245t224 -102t256.5 102t138.5 245zM608 354q-19 -126 -119 -214.5t-222 -88.5q-121 0 -192.5 88t-51.5 213q19 124 119 211.5t222 87.5q121 0 192.5 -86.5t51.5 -210.5z" />
    <glyph glyph-name="P" unicode="P" horiz-adv-x="595" 
d="M419 363q46 26 78 71t39 89q11 70 -23 123t-90 53h-393l-111 -699h50l56 350h335q35 0 59 13zM490 542l-5 -29q-5 -37 -42.5 -76.5t-68.5 -39.5h-343l42 259l343 -3q31 0 55.5 -36.5t18.5 -74.5z" />
    <glyph glyph-name="Q" unicode="Q" horiz-adv-x="748" 
d="M541 129l74 -88l-38 -33l-74 87q-113 -90 -242 -90q-142 0 -225.5 102.5t-60.5 244.5t139 244t257 102q142 0 225 -102t60 -244q-19 -124 -115 -223zM364 651q-123 0 -222 -88t-119 -211t51 -212t193 -89q113 0 209 78l-85 99l38 33l84 -98q79 85 95 191
q20 122 -51 209.5t-193 87.5z" />
    <glyph glyph-name="R" unicode="R" horiz-adv-x="595" 
d="M536 523q-7 -44 -39 -89t-78 -71q-24 -13 -59 -13h-70l2 -4l154 -346h-63l-155 350h-203l-56 -350h-50l111 699h393q56 0 90 -53t23 -123zM485 513l5 29q6 38 -18.5 74.5t-55.5 36.5l-343 3l-42 -259h343q31 0 68.5 39.5t42.5 76.5z" />
    <glyph glyph-name="S" unicode="S" 
d="M457 508h48q13 82 -46.5 134.5t-166.5 52.5t-184 -52.5t-90 -133.5q-8 -49 12 -83t57.5 -50.5t84.5 -27.5t94 -21t85 -24t58.5 -42.5t13.5 -71.5q-10 -64 -73.5 -102.5t-158.5 -38.5q-90 0 -139.5 40t-49.5 113h-51q-14 -88 52.5 -142.5t187.5 -54.5q116 0 195 52t92 138
q8 53 -11.5 89t-57.5 54t-85 30t-94.5 21t-86 22t-59.5 39.5t-15 66.5q9 59 72.5 97t151.5 38q80 0 123 -38t41 -105z" />
    <glyph glyph-name="T" unicode="T" 
d="M212 0l102 644h235l9 54h-528l-9 -54h239l-102 -644h54z" />
    <glyph glyph-name="U" unicode="U" horiz-adv-x="541" 
d="M458 698h53l-79 -495q-14 -92 -88 -146.5t-186 -56.5q-110 2 -164.5 56t-40.5 147l79 495h53l-79 -495q-11 -71 31.5 -110.5t132.5 -39.5q89 0 143.5 39.5t65.5 110.5z" />
    <glyph glyph-name="V" unicode="V" horiz-adv-x="535" 
d="M505 698h-56l-278 -618l-84 618h-57l96 -698h62q83 185 317 698z" />
    <glyph glyph-name="W" unicode="W" horiz-adv-x="894" 
d="M427 698q-25 -61 -114.5 -286.5t-139.5 -347.5l-86 634h-57q68 -497 95 -698h79q21 53 98 247.5t120 299.5q8 -81 15.5 -172.5t16 -202.5t13.5 -172h79q179 397 318 698h-57q-49 -106 -144.5 -317.5t-144.5 -317.5l-51 635h-40z" />
    <glyph glyph-name="X" unicode="X" horiz-adv-x="627" 
d="M593 698h-62l-264 -296l-171 296h-64l192 -348l-305 -350l68 1l264 299l167 -299l68 -1l-193 350z" />
    <glyph glyph-name="Y" unicode="Y" horiz-adv-x="625" 
d="M594 694l-63 1l-265 -306l-170 306h-67l201 -360l-53 -335h53l54 337z" />
    <glyph glyph-name="Z" unicode="Z" 
d="M21 644h463l-16 -17l-539 -567l-10 -60h528l9 54h-465l15 17l542 568l10 59h-528z" />
    <glyph glyph-name="bracketleft" unicode="[" horiz-adv-x="186" 
d="M143 757h-126l-130 -821h126l6 40h-85l117 739h85z" />
    <glyph glyph-name="backslash" unicode="\" horiz-adv-x="507" 
d="M366 -3l-287 733h-44l288 -733h43z" />
    <glyph glyph-name="bracketright" unicode="]" horiz-adv-x="186" 
d="M-70 -64h126l130 821h-126l-7 -42h85l-117 -739h-85z" />
    <glyph glyph-name="asciicircum" unicode="^" horiz-adv-x="523" 
d="M288 750h-38l-286 -468h33l265 436l129 -436h36z" />
    <glyph glyph-name="underscore" unicode="_" horiz-adv-x="486" 
d="M333 -74h-426l-4 -25h426z" />
    <glyph glyph-name="a" unicode="a" horiz-adv-x="545" 
d="M437 483l-15 -93q-47 52 -84 71t-90 22q-102 5 -188 -65.5t-102 -171.5t45.5 -173.5t161.5 -72.5q103 0 210 97l-15 -99h44l76 485h-43zM169 44q-81 0 -129.5 59t-35.5 142q13 82 79.5 140.5t147.5 58.5q82 0 131.5 -58.5t36.5 -141.5q-14 -83 -81 -141.5t-149 -58.5z
" />
    <glyph glyph-name="b" unicode="b" horiz-adv-x="546" 
d="M-22 97q57 -57 82 -72q43 -27 100 -27q104 0 186 71t98 175q17 104 -43 173.5t-166 69.5q-42 0 -80.5 -15t-60 -29.5t-70.5 -52.5l51 308h-44l-112 -700h44zM3 245q13 82 80 140.5t148 58.5q82 0 131 -58.5t36 -140.5t-81 -141.5t-150 -59.5q-80 0 -128.5 59t-35.5 142z
" />
    <glyph glyph-name="c" unicode="c" horiz-adv-x="537" 
d="M160 1q83 0 154.5 50t111.5 137h-47q-30 -64 -89 -103.5t-125 -39.5q-80 0 -127 58.5t-34 141.5q14 83 78.5 139.5t146.5 56.5q65 0 110 -38.5t59 -106.5h45q-11 88 -66 137.5t-140 49.5q-103 0 -183.5 -69.5t-96.5 -172.5q-16 -102 42 -171t161 -69z" />
    <glyph glyph-name="d" unicode="d" horiz-adv-x="546" 
d="M-42 244q-16 -104 43 -175t163 -71q130 0 213 99l-15 -99h43l110 700h-43l-48 -308q-41 56 -83.5 76.5t-99.5 20.5q-104 0 -185 -69.5t-98 -173.5zM5 245q13 82 79.5 140.5t148.5 58.5t131.5 -58.5t36.5 -140.5t-81 -141.5t-149 -59.5q-82 0 -130.5 59t-35.5 142z" />
    <glyph glyph-name="e" unicode="e" horiz-adv-x="541" 
d="M444 300h-1l-1 7q-17 84 -70 130t-134 46q-103 0 -184 -69t-97 -172q-16 -102 42.5 -172t160.5 -70q83 0 154.5 50.5t111.5 137.5h-47q-30 -64 -89.5 -103.5t-124.5 -39.5q-80 0 -127.5 58t-33.5 141l2 11h435q4 30 3 45zM395 305h-372q23 60 82 98t129 38
q128 0 161 -136z" />
    <glyph glyph-name="f" unicode="f" horiz-adv-x="394" 
d="M249 485h-114q4 26 5 31.5t5 27t7 27t9 21.5t12.5 20.5t16.5 14t22.5 12.5t28.5 6t36 3q47 0 76 -19l7 46q-39 22 -89 22q-51 0 -92.5 -22.5t-61.5 -58.5q-21 -37 -34 -131h-82l-8 -52h83l-69 -433h51l69 433h114z" />
    <glyph glyph-name="g" unicode="g" horiz-adv-x="545" 
d="M437 488l-14 -93q-75 93 -179 93q-105 0 -187 -69t-98 -169t44.5 -172.5t160.5 -72.5q105 0 212 97l-17 -109q-13 -78 -73.5 -117.5t-159.5 -39.5q-70 0 -106 31.5t-48 103.5h-42q-4 -88 45 -131.5t145 -43.5q47 0 85.5 5.5t66.5 17.5t48.5 25t35 35t24 40t16.5 48
t10.5 50.5t9 55.5t9.5 57q29 193 55 358h-43zM5 250q13 82 79.5 140.5t147.5 58.5q82 0 131.5 -59t36.5 -141q-14 -82 -81.5 -141t-148.5 -59t-129.5 59.5t-35.5 141.5z" />
    <glyph glyph-name="h" unicode="h" horiz-adv-x="521" 
d="M78 700l-41 -256l-4 -27q90 73 196 73q100 0 154 -58t39 -157l-44 -275h-47l36 225q16 104 -16.5 160.5t-131.5 56.5q-87 0 -140.5 -37t-62.5 -99l-49 -306h-47l70 444l41 256h47z" />
    <glyph glyph-name="i" unicode="i" horiz-adv-x="144" 
d="M17 599q-2 -16 8 -29t25 -13t30 13t17 29t-8.5 30t-25.5 14q-14 0 -29 -14t-17 -30zM62 489h-47l-78 -491h47z" />
    <glyph glyph-name="j" unicode="j" horiz-adv-x="339" 
d="M210 600q-2 -17 8.5 -30t26.5 -13q17 0 33 13t18 29t-9.5 30t-27.5 14t-31.5 -13.5t-17.5 -29.5zM258 491h-42q-13 -79 -36.5 -234t-36.5 -234q-17 -102 -46 -142t-90 -40q-74 0 -110 40l-8 -50q36 -37 111 -36q44 1 71 10.5t51.5 40t41 88t30.5 152.5z" />
    <glyph glyph-name="k" unicode="k" horiz-adv-x="489" 
d="M13 193l250 -193h75l-318 244l392 242h-81l-303 -187l64 399h-46l-111 -696h46z" />
    <glyph glyph-name="l" unicode="l" horiz-adv-x="120" 
d="M39 698l-112 -696h45l112 696h-45z" />
    <glyph glyph-name="m" unicode="m" horiz-adv-x="758" 
d="M615 0q30 174 39 234q21 131 -13.5 194.5t-126.5 63.5q-111 0 -184 -89q-23 47 -56.5 66.5t-89.5 19.5q-49 0 -82.5 -15t-70.5 -54l10 63h-45l-77 -483h45l50 317q9 57 52.5 91t107.5 34q143 0 109 -217q-1 -6 -6 -40t-13.5 -87t-15.5 -98h42q7 41 21.5 132t19.5 117
q18 103 57.5 149.5t108.5 46.5q76 0 102.5 -57t7.5 -177q-12 -73 -33 -211h41z" />
    <glyph glyph-name="n" unicode="n" horiz-adv-x="521" 
d="M44 483l-7 -39l-4 -27q90 73 196 73q100 0 154 -58t39 -157l-44 -275h-47l36 225q16 104 -16.5 160.5t-131.5 56.5q-87 0 -140.5 -37t-62.5 -99l-49 -306h-47l70 444l7 39h47z" />
    <glyph glyph-name="o" unicode="o" horiz-adv-x="541" 
d="M-42 245q-16 -100 44 -171t160 -71q99 0 180 71.5t97 172.5t-41.5 171.5t-156.5 70.5q-101 0 -184 -72t-99 -172zM231 444q82 0 129 -57.5t34 -140.5t-79 -140.5t-149 -57.5q-81 0 -128 57t-34 140q14 83 79.5 141t147.5 58z" />
    <glyph glyph-name="p" unicode="p" horiz-adv-x="547" 
d="M445 246q16 104 -43 175t-163 71q-128 0 -214 -99l16 99h-43l-110 -700h43l48 308q42 -56 84 -76.5t100 -20.5q104 0 184.5 69.5t97.5 173.5zM398 245q-13 -82 -80 -140.5t-149 -58.5t-131 58.5t-36 140.5t81 141.5t149 59.5q82 0 130.5 -59t35.5 -142z" />
    <glyph glyph-name="q" unicode="q" horiz-adv-x="547" 
d="M-38 249q16 104 98 175t186 71q128 0 182 -99l16 99h43l-112 -700h-43l49 308q-59 -56 -107.5 -76.5t-106.5 -20.5q-104 0 -162.5 70t-42.5 173zM8 248q-13 -83 35.5 -141t130.5 -58t149.5 58.5t80.5 140.5t-36 141.5t-130 59.5q-82 0 -149 -59t-81 -142z" />
    <glyph glyph-name="r" unicode="r" horiz-adv-x="357" 
d="M285 434l8 50q-32 5 -64 5q-114 0 -196 -64l10 58h-47l-77 -483h47l41 255q16 101 68 144t143 43q32 0 67 -8z" />
    <glyph glyph-name="s" unicode="s" horiz-adv-x="441" 
d="M-57 149q-10 -67 35.5 -107.5t132.5 -40.5q86 0 143.5 37.5t67.5 100.5q7 43 -12.5 71t-53 39t-73.5 20.5t-74.5 16t-55.5 25.5t-16 49q6 38 48.5 62t102.5 24q52 0 78.5 -24.5t25.5 -73.5h46q11 63 -30 102t-119 39q-79 0 -135.5 -38t-66.5 -97q-6 -41 13.5 -67t53 -36
t73 -19.5t73.5 -16.5t54 -27.5t15 -53.5q-6 -41 -48.5 -66t-105.5 -25q-61 0 -93 27.5t-31 78.5h-48z" />
    <glyph glyph-name="t" unicode="t" horiz-adv-x="327" 
d="M186 0l8 48q-68 -4 -94.5 23t-15.5 92l43 272h114l7 47h-114l18 108h-51l-18 -108h-88l-7 -47h88l-28 -174q0 -2 -4.5 -29.5t-6.5 -42.5t-6 -48t-3.5 -44.5t2.5 -32.5q8 -27 44.5 -46.5t79.5 -19.5q10 0 32 2z" />
    <glyph glyph-name="u" unicode="u" horiz-adv-x="521" 
d="M333 1l6 39l5 27q-90 -73 -196 -73q-100 0 -154 58t-39 157l44 275h47l-36 -225q-16 -104 16.5 -160.5t131.5 -56.5q87 0 140.5 37t62.5 99l49 306h47l-71 -444l-6 -39h-47z" />
    <glyph glyph-name="v" unicode="v" horiz-adv-x="505" 
d="M383 486l-235 -447l-94 447h-58q41 -175 109 -486h72q7 8 13.5 20t17.5 34t21 41q1 3 28 51t44 80l140 260h-58z" />
    <glyph glyph-name="w" unicode="w" horiz-adv-x="646" 
d="M539 487q-7 -15 -82 -181.5t-116 -251.5q-11 167 -35 433h-32l-160 -398l-13 -35q-17 97 -61 433h-44q14 -92 37 -261.5t31 -225.5h58q26 62 74.5 186t74.5 186q11 -124 31 -372h59q37 81 110.5 243.5t110.5 243.5h-43z" />
    <glyph glyph-name="x" unicode="x" horiz-adv-x="462" 
d="M-2 487q23 -44 69 -125t66 -118l-214 -244l52 1q63 67 183 205l115 -205l52 -1l-39 73q-8 15 -44 76t-52 95l210 243h-49q-28 -29 -57.5 -62.5t-67.5 -77.5t-56 -64q-14 25 -57 94.5t-62 109.5q-5 0 -14.5 0.5t-13.5 0.5t-11 -0.5t-10 -0.5z" />
    <glyph glyph-name="y" unicode="y" horiz-adv-x="463" 
d="M-74 -203q83 0 127 45q12 12 27 33.5t26 40.5t28.5 51.5t24.5 46.5t24.5 48.5t18.5 37.5l197 383h-43l-220 -428l-98 428h-42l102 -501q0 -4 -25 -48q-29 -50 -60 -71t-80 -22z" />
    <glyph glyph-name="z" unicode="z" horiz-adv-x="429" 
d="M-74 45l-7 -43h369l7 41h-319q17 18 113 118t182 189.5t87 92.5l7 43h-369l-6 -41h319q-69 -76 -201.5 -212t-181.5 -188z" />
    <glyph glyph-name="braceleft" unicode="{" horiz-adv-x="291" 
d="M249 760q-62 0 -92 -14q-35 -17 -53.5 -60.5t-24.5 -93.5t-14.5 -98.5t-35 -82.5t-73.5 -38l-8 -53q89 -9 66 -149q-1 -8 -5.5 -32.5t-6.5 -37t-4.5 -35t-2 -36.5t2.5 -30.5t8 -28t16 -19.5q22 -19 82 -19h14l7 49q-50 0 -66.5 18t-8.5 66q2 16 8.5 51t8 47.5t4 39.5
t0.5 38.5t-6.5 30.5t-14.5 29.5t-25 23t-36 21.5q113 45 128 141q3 20 8.5 59t8 53t8.5 39t13 34t19 20.5t28 15t39 2.5z" />
    <glyph glyph-name="bar" unicode="|" horiz-adv-x="103" 
d="M91 811h-43l-136 -856h43z" />
    <glyph glyph-name="braceright" unicode="}" horiz-adv-x="291" 
d="M98 106q1 6 4.5 29.5t5 32.5t6 30t8.5 31t11 26.5t15 25t18.5 18.5t24.5 15t31 6l8 53q-45 5 -60.5 37.5t-10 79t15 95t7 92.5t-26.5 64q-22 19 -80 19h-14l-8 -49q49 0 64 -16q17 -18 9.5 -80.5t-16.5 -118.5t14 -102q16 -26 66 -47q-62 -23 -92.5 -60.5t-40.5 -104.5
q-1 -7 -6 -43t-8 -50t-9 -39t-15 -38t-21 -20q-17 -10 -61 -10l-7 -49q72 0 101 19q48 34 67 154z" />
    <glyph glyph-name="asciitilde" unicode="~" horiz-adv-x="483" 
d="M397 344l7 47q-71 -42 -115 -42q-28 0 -94.5 37t-105.5 37q-35 0 -109 -39l-7 -46q72 38 110 38q32 0 97 -35t102 -35q36 0 115 38z" />
    <glyph glyph-name="exclamdown" unicode="&#xa1;" horiz-adv-x="177" 
d="M51 559q-17 0 -32 -13t-18 -32q-3 -18 7.5 -31.5t27.5 -13.5q18 0 33.5 13.5t18.5 31.5q3 19 -8 32t-29 13zM1 381l-74 -470h44l74 470h-44z" />
    <glyph glyph-name="cent" unicode="&#xa2;" horiz-adv-x="473" 
d="M110 -40h33l12 79q77 8 130 45.5t76 99.5h-58q-19 -42 -49.5 -63t-90.5 -32l60 379q45 -1 75 -27.5t35 -69.5h57q-1 62 -49.5 107t-109.5 40l13 80h-33l-13 -80q-94 -8 -156.5 -72t-78.5 -169q-16 -103 25.5 -165.5t133.5 -71.5zM190 468l-60 -378q-64 8 -92 58.5
t-15 133.5q24 153 155 183z" />
    <glyph glyph-name="sterling" unicode="&#xa3;" horiz-adv-x="470" 
d="M-24 358l-6 -35h101q6 -36 0 -72q-10 -59 -46.5 -99.5t-89.5 -50.5l-7 -44h410l7 43l-362 1l53 19q32 12 56.5 49t32.5 86q3 25 3 68h181l6 35h-193q-5 51 1 85q11 65 56.5 101t117.5 36q48 0 93 -15l6 43q-39 17 -100 17q-93 0 -153.5 -47.5t-73.5 -131.5q-5 -32 -2 -88
h-91z" />
    <glyph glyph-name="yen" unicode="&#xa5;" horiz-adv-x="465" 
d="M432 679h-49l-198 -277l-107 277h-51l128 -325h-160l-5 -31h161l-14 -88h-161l-5 -32h161l-24 -153h43l24 153h163l5 32h-163l14 88h163l5 31h-162z" />
    <glyph glyph-name="copyright" unicode="&#xa9;" horiz-adv-x="724" 
d="M400 67q31 14 63.5 36t71 58.5t68 92t39.5 119.5t-1.5 119.5t-38 92t-52.5 59.5t-53 36q-59 30 -131 30q-69 0 -134 -26q-32 -13 -66 -35t-74.5 -58.5t-71.5 -93t-41 -122.5q-11 -66 2 -122.5t41.5 -93.5t56 -59.5t54.5 -35.5q58 -26 125 -26q72 0 142 29zM472 652
q26 -12 51 -32.5t50.5 -53.5t37 -83.5t1.5 -108.5q-9 -56 -35 -105.5t-60.5 -82t-65 -53.5t-58.5 -33q-63 -27 -129 -27q-63 0 -114 24q-25 11 -50.5 32t-51 54t-37 83.5t-1.5 108.5q9 56 35 105.5t60.5 82t65 53t58.5 32.5q65 28 129 28q60 0 114 -24zM487 335h-30v-2
q-20 -39 -50.5 -64t-58 -34t-53.5 -9q-18 0 -40.5 7.5t-46 23.5t-36 47t-5.5 72q8 53 44 89.5t70 49t60 12.5q25 0 50.5 -9.5t48.5 -35.5t30 -65v-2h31l-1 7q-4 37 -21.5 65.5t-42 43t-48 21.5t-44.5 7q-20 0 -48.5 -9t-62.5 -28t-60.5 -57t-34.5 -88q-8 -51 7.5 -89.5
t44.5 -57.5t55.5 -28t46.5 -9q50 0 103 31.5t89 103.5z" />
    <glyph glyph-name="guillemotleft" unicode="&#xab;" horiz-adv-x="395" 
d="M11 315l129 230h-42l-129 -230l57 -229h42zM210 315l130 230h-43l-128 -230l56 -229h43z" />
    <glyph glyph-name="registered" unicode="&#xae;" horiz-adv-x="724" 
d="M389 64q32 12 66.5 35t75 60t71 93.5t41.5 122.5q10 64 -2 119.5t-39 92t-53 59t-53 35.5q-61 30 -131 30q-65 0 -134 -27q-31 -13 -65.5 -35t-74.5 -58.5t-71 -93t-41 -122.5q-10 -64 1.5 -119.5t38.5 -92.5t53.5 -59.5t53.5 -35.5q59 -30 130 -30q68 0 133 26zM471 653
q26 -12 51 -33t50.5 -54t37 -84t1.5 -109q-17 -105 -83.5 -174t-134.5 -99q-63 -27 -128 -27q-63 0 -115 24q-25 12 -50 33t-51 54.5t-37.5 84t-2.5 108.5q9 56 35 105.5t60.5 82t65 53t58.5 32.5q63 27 128 27q63 0 115 -24zM428 194l-77 171q9 -1 21 0q20 0 38 7
q49 18 58 75q9 53 -14 75t-50 22h-189l-55 -350h31l27 169h96l75 -169h39zM222 393l20 122l155 -2q18 0 30 -12q18 -16 14 -43q-5 -29 -24.5 -47t-35.5 -18h-159z" />
    <glyph glyph-name="guillemotright" unicode="&#xbb;" horiz-adv-x="395" 
d="M62 316l-129 -230h43l128 230l-56 229h-43zM262 316l-129 -230h42l129 230l-57 229h-42z" />
    <glyph glyph-name="questiondown" unicode="&#xbf;" horiz-adv-x="458" 
d="M165 397q18 0 33 13t18 32q3 18 -8 31t-29 13q-19 0 -33 -12.5t-17 -31.5t7.5 -32t28.5 -13zM73 -153q61 0 112.5 28.5t78.5 75.5q19 33 29 87h-47q-13 -73 -54.5 -111.5t-104.5 -38.5q-61 0 -92.5 32t-23.5 84q5 33 25 59t46.5 47t53.5 45.5t50.5 65.5t33.5 96h-50
q-7 -45 -29 -80.5t-49.5 -59t-54.5 -45.5t-48.5 -53t-27.5 -70q-11 -71 31.5 -116.5t120.5 -45.5z" />
    <glyph glyph-name="multiply" unicode="&#xd7;" horiz-adv-x="574" 
d="M259 370l270 235l-22 25l-269 -235l-194 235l-29 -24l195 -236l-268 -234l21 -26l267 234l194 -235l30 27z" />
    <glyph glyph-name="divide" unicode="&#xf7;" horiz-adv-x="652" 
d="M309 588q-15 0 -28.5 -11.5t-15.5 -26.5t7.5 -27t24.5 -12t27.5 11.5t14.5 27.5q3 16 -6 27t-24 11zM-23 365h592l7 42h-592zM257 256q-16 0 -29 -11t-15 -27q-3 -15 7 -26.5t26 -11.5q15 0 26.5 10.5t14.5 27.5q2 16 -6.5 27t-23.5 11z" />
    <glyph glyph-name="endash" unicode="&#x2013;" horiz-adv-x="486" 
d="M-32 310h426l6 34h-426z" />
    <glyph glyph-name="emdash" unicode="&#x2014;" horiz-adv-x="931" 
d="M-32 310h871l6 34h-871z" />
    <glyph glyph-name="quoteleft" unicode="&#x2018;" horiz-adv-x="174" 
d="M106 616l-110 -159q-5 -7 -7 -18q-4 -20 6.5 -33.5t28.5 -13.5t33 13t18 32q3 17 -18 42l72 126z" />
    <glyph glyph-name="quoteright" unicode="&#x2019;" horiz-adv-x="173" 
d="M11 413l109 159q2 2 6 18q3 20 -7 33.5t-29 13.5q-18 0 -32.5 -13t-17.5 -32q-3 -18 17 -42l-71 -126z" />
    <glyph glyph-name="quotesinglbase" unicode="&#x201a;" horiz-adv-x="174" 
d="M-70 -94l109 159q5 7 7 19q4 19 -6 32t-29 13t-33.5 -12t-17.5 -30q-3 -21 11 -36l10 -4l-75 -129z" />
    <glyph glyph-name="quotedblleft" unicode="&#x201c;" horiz-adv-x="326" 
d="M105 616l-109 -159q-5 -7 -7 -19q-4 -20 5.5 -33t28.5 -13t33.5 13t18.5 33q3 27 -20 39l73 128zM256 610l-109 -159q-5 -7 -7 -19q-4 -19 6 -32t29 -13q18 0 33 12.5t18 31.5q4 18 -18 43l72 125z" />
    <glyph glyph-name="quotedblright" unicode="&#x201d;" horiz-adv-x="326" 
d="M15 443q3 4 19 26.5t30 43t30.5 45t27 44t11.5 28.5q2 14 -9 25t-28 11q-19 0 -33.5 -12.5t-17.5 -31.5q-4 -22 19 -41l-73 -127zM168 438l109 158q2 3 6 19q3 20 -7 33t-28 13q-19 0 -34 -13t-18 -32q-2 -10 0 -16t9 -14t9 -12l-71 -125z" />
    <glyph glyph-name="quotedblbase" unicode="&#x201e;" horiz-adv-x="326" 
d="M-70 -96l109 158q2 4 6 18q3 20 -7 33.5t-28 13.5q-19 0 -33.5 -13t-17.5 -32q-3 -21 20 -40l-73 -127zM81 -102q1 2 19 26.5t30.5 43.5t29.5 44t27 44t11 28q3 15 -8.5 26.5t-28.5 11.5q-19 0 -33.5 -13t-17.5 -32q-3 -27 20 -40l-73 -127z" />
    <glyph glyph-name="bullet" unicode="&#x2022;" horiz-adv-x="307" 
d="M115 458q-52 0 -93.5 -36t-49.5 -88q-8 -53 22 -90t81 -37q52 0 94 37t50 89t-22 88.5t-82 36.5z" />
    <glyph glyph-name="ellipsis" unicode="&#x2026;" horiz-adv-x="757" 
d="M358 270q3 21 -9 35.5t-32 14.5q-21 0 -38 -14.5t-20 -34.5q-3 -21 9.5 -36.5t32.5 -15.5t36.5 15t20.5 36zM61 269q3 21 -9 35.5t-32 14.5q-21 0 -38 -14.5t-20 -34.5q-4 -21 9 -36.5t33 -15.5t36.5 15t20.5 36zM659 269q3 21 -8.5 35.5t-32.5 14.5t-38 -14.5t-20 -35.5
q-4 -21 8.5 -36t33.5 -15t37 14.5t20 36.5z" />
    <glyph glyph-name="guilsinglleft" unicode="&#x2039;" horiz-adv-x="194" 
d="M10 315l129 230h-42l-128 -230l56 -229h42z" />
    <glyph glyph-name="guilsinglright" unicode="&#x203a;" horiz-adv-x="195" 
d="M62 316l-129 -230h42l129 230l-57 229h-42z" />
    <glyph glyph-name="Euro" unicode="&#x20ac;" horiz-adv-x="525" 
d="M391 45l8 52q-29 -6 -66 -6q-95 0 -152.5 49t-61.5 134h244l5 34h-250q0 4 4 40q8 44 12 57h249l6 33h-244q83 179 264 179q29 0 72 -5l8 52q-23 7 -65 7q-118 0 -211 -61.5t-129 -163.5l-2 -8h-93l-6 -33h88q-1 -8 -5.5 -26.5t-6.5 -29.5q-1 -10 -4 -41h-87l-5 -34h92
l-1 -8q4 -104 76.5 -166t190.5 -62q37 0 70 7z" />
    <glyph glyph-name="trademark" unicode="&#x2122;" horiz-adv-x="866" 
d="M742 325l40 276l-205 -267l-121 267l-46 -276h-37l54 342h38l122 -273l208 273h38l-54 -342h-37zM141 313l51 326h139l5 27h-312l-5 -27h141l-51 -326h32z" />
    <glyph glyph-name="uni3008" unicode="&#x3008;" horiz-adv-x="285" 
d="M130 69l28 21l-148 257l229 261l-20 17l-245 -277z" />
    <glyph glyph-name="uni3009" unicode="&#x3009;" horiz-adv-x="285" 
d="M-45 69l244 279l-157 277l-27 -17l148 -261l-230 -257z" />
    <glyph glyph-name="uni300A" unicode="&#x300a;" horiz-adv-x="415" 
d="M129 69l29 21l-148 257l229 261l-21 18l-244 -278zM259 69l29 21l-150 257l231 261l-22 18l-244 -278z" />
    <glyph glyph-name="uni300B" unicode="&#x300b;" horiz-adv-x="415" 
d="M-44 69l244 279l-157 278l-28 -18l149 -261l-231 -257zM85 69l244 279l-156 278l-28 -18l148 -261l-230 -257z" />
    <glyph glyph-name="LF" horiz-adv-x="0" 
 />
    <glyph glyph-name="_FSHallmark" horiz-adv-x="754" 
d="M56 603h630l-12 -74h-630zM570 388q2 16 -12.5 28t-36.5 12t-39 -11.5t-19 -28.5q-4 -23 23.5 -33.5t62.5 -12.5t62 -20t21 -54q-7 -41 -49 -67t-100 -26q-62 0 -96 32t-26 81l73 -1q0 -24 15 -37.5t42 -13.5q25 0 43 8.5t20 20.5q2 13 -16 22t-45 16t-53.5 16t-43 29
t-11.5 49q6 40 48 66t100 26q57 0 88.5 -28t24.5 -73h-76zM71 175h-83l49 313h265l-11 -71h-182l-11 -70h151l-11 -70h-151zM252 215q2 15 14.5 25t29.5 10t27.5 -11t8.5 -26t-15.5 -25.5t-30.5 -10.5q-16 0 -26 11t-8 27zM-20 136h631l-12 -75h-631z" />
    <glyph glyph-name="_Fontastica" horiz-adv-x="754" 
d="M125 113h-87v4l80 510h382l-12 -78h-294l-33 -210h295l-13 -79h-295zM238 481h296l23 146h87l-81 -513h-383l13 78h296l33 210h-296zM480 68q-5 0 -11 -5t-7 -10q-2 -5 1.5 -9t9.5 -4q9 0 14 4l3 -4q-6 -9 -19 -9q-8 0 -15 5q-6 9 -4 18t9.5 16t16.5 7q11 0 17 -8l-5 -6
q-2 1 -4 3q-4 2 -6 2zM32 76h32l-1 -8h-21l-2 -12h20l-1 -7h-20l-3 -17h-11zM103 76q11 0 17.5 -7.5t5.5 -18.5q-1 -8 -4.5 -11.5t-13 -6t-12.5 -3.5q-6 0 -9 3q-13 6 -11 20q5 24 27 24zM182 32q-4 0 -6 -1q-5 3 -11 14t-9 14l-4 -27h-10l7 44h8q4 0 4 -6q5 -5 14 -24l5 30
h9zM208 76h37l-1 -8h-14l-6 -36h-9l6 36h-14zM331 59q11 -2 15 -5.5t3 -10.5q-1 -12 -19 -12q-13 0 -19 7q0 2 3 3l1 3q1 0 7 -2l6 -2h6l4 2q1 5 -2.5 7t-8 2t-7.5 2.5t-2 8.5q2 14 20 14q11 0 16 -4l-6 -8q-2 0 -9 4h-6l-4 -3q0 -2 2 -6zM369 76h38l-1 -8h-14l-6 -36h-10
l6 36h-14zM425 76h11l-7 -44h-11zM541 76q1 -3 5 -20t7 -24h-10l-2 9h-21l-6 -9h-10q18 28 25 44h12zM283 74q1 -5 5.5 -19.5t5.5 -22.5h-10q0 2 -0.5 5t-0.5 4h-20q-3 -7 -6 -9h-9l25 42h10zM114 54q2 14 -9 14q-15 0 -19 -16q-1 -5 3 -9t9 -4q13 0 16 15zM281 49
q-1 2 -2 7.5t-3 8.5l-10 -16h15zM538 49q0 3 -5 16l-9 -16h14z" />
    </font>
</defs>
</svg>
