<?xml version="1.0" standalone="no"?>
<!DOCTYPE svg PUBLIC "-//W3C//DTD SVG 1.1//EN" "http://www.w3.org/Graphics/SVG/1.1/DTD/svg11.dtd" >
<svg xmlns="http://www.w3.org/2000/svg" xmlns:xlink="http://www.w3.org/1999/xlink" version="1.1">
<metadata>
Created by FontForge 20170731 at Wed Nov 14 16:33:08 2018
 By Aleksey,,,
Copyright (c) 2018 by Fontastica. All rights reserved.
</metadata>
<defs>
<font id="FocusGrotesk-BoldItalic" horiz-adv-x="621" >
  <font-face 
    font-family="Focus Grotesk"
    font-weight="700"
    font-style="italic"
    font-stretch="normal"
    units-per-em="1000"
    panose-1="0 0 8 0 0 0 0 0 0 0"
    ascent="800"
    descent="-200"
    x-height="500"
    cap-height="702"
    bbox="-112 -199 904 809"
    underline-thickness="50"
    underline-position="-200"
    unicode-range="U+000D-300B"
  />
<missing-glyph horiz-adv-x="527" 
d="M50 700h427v-700h-427v700zM263 371l186 309h-371zM457 47v605l-181 -302zM251 350l-180 300v-601zM264 329l-185 -308h370z" />
    <glyph glyph-name=".notdef" horiz-adv-x="527" 
d="M50 700h427v-700h-427v700zM263 371l186 309h-371zM457 47v605l-181 -302zM251 350l-180 300v-601zM264 329l-185 -308h370z" />
    <glyph glyph-name=".null" horiz-adv-x="0" 
 />
    <glyph glyph-name="nonmarkingreturn" horiz-adv-x="333" 
 />
    <glyph glyph-name="CR" unicode="&#xd;" horiz-adv-x="0" 
 />
    <glyph glyph-name="space" unicode=" " horiz-adv-x="280" 
 />
    <glyph glyph-name="exclam" unicode="!" horiz-adv-x="224" 
d="M56 166l79 499h-90l-79 -499h90zM7 131q-30 0 -51.5 -19.5t-25.5 -45.5q-4 -25 11 -45t44 -20t52 20t27 45q4 26 -11.5 45.5t-45.5 19.5z" />
    <glyph glyph-name="quotedbl" unicode="&#x22;" horiz-adv-x="319" 
d="M1 446h73l44 219h-94zM165 446h72l46 219h-95z" />
    <glyph glyph-name="numbersign" unicode="#" horiz-adv-x="556" 
d="M438 289h-96l34 113h103l11 71h-92l61 195h-77l-61 -195h-110l60 195h-75l-61 -195h-114l-11 -71h103l-35 -113h-113l-11 -71h102l-66 -204h77l65 204h111l-64 -204h77l64 204h107zM300 402l-35 -113h-111l34 113h112z" />
    <glyph glyph-name="dollar" unicode="$" horiz-adv-x="504" 
d="M101 -11h80l12 72q80 9 137.5 54t69.5 118q6 39 -3.5 69t-34 49t-51.5 30.5t-64 20.5l25 160q65 -15 59 -80v-12h102l2 14q9 70 -32.5 115.5t-115.5 55.5l11 73h-80l-11 -74q-76 -9 -130.5 -53.5t-65.5 -113.5q-11 -71 28.5 -106.5t114.5 -56.5l-26 -170q-69 14 -69 84
l1 12h-101l-2 -14q-9 -72 35 -118t121 -56zM192 561l-22 -139q-64 22 -56 70q4 25 26 43.5t52 25.5zM207 153l24 151q37 -11 54 -27.5t12 -48.5q-10 -63 -90 -75z" />
    <glyph glyph-name="percent" unicode="%" horiz-adv-x="721" 
d="M637 711h-83l-5 -6q-6 -7 -18.5 -19t-22 -22.5t-17.5 -19.5l-526 -639h90zM193 703q-70 0 -123 -47.5t-62 -109.5q-10 -63 28 -110t108 -47t122.5 47t62.5 110q9 63 -28.5 110t-107.5 47zM181 624q33 0 52 -23t14 -55t-31.5 -54.5t-59.5 -22.5t-51 22.5t-13 54.5t30.5 55
t58.5 23zM474 343q-70 0 -123 -47.5t-62 -109.5q-10 -63 28 -110t108 -47t122.5 47t62.5 110q9 63 -28.5 110t-107.5 47zM462 264q33 0 52 -23t14 -55t-31 -54.5t-60 -22.5q-33 0 -51 22.5t-13 54.5t30.5 55t58.5 23z" />
    <glyph glyph-name="ampersand" unicode="&#x26;" horiz-adv-x="663" 
d="M114 373q-4 -3 -8 -4q-139 -69 -157 -179q-13 -85 43 -134t149 -49q117 0 205 64q21 -25 39 -51l5 -5h135l-102 128q60 80 81 210l5 31h-101l-2 -13q-19 -110 -43 -154l-104 133q135 66 150 159q10 65 -33 106t-115 41t-127 -41t-65 -106q-11 -65 45 -136zM306 506
q-5 -30 -29.5 -51.5t-67.5 -41.5q-46 53 -40 92q5 29 26.5 47.5t52.5 18.5q32 0 47.5 -17.5t10.5 -47.5zM162 95q-54 0 -83.5 27t-22.5 73q7 43 31 65t77 47l130 -169q-55 -43 -132 -43z" />
    <glyph glyph-name="quotesingle" unicode="'" horiz-adv-x="154" 
d="M1 446h72l45 219h-94z" />
    <glyph glyph-name="parenleft" unicode="(" horiz-adv-x="253" 
d="M210 769h-102l-4 -8q-119 -196 -158 -437q-34 -221 9 -387l2 -8h98l-5 18q-44 167 -9 385q36 237 156 418z" />
    <glyph glyph-name="parenright" unicode=")" horiz-adv-x="252" 
d="M187 324q38 235 -17 437l-2 8h-102l7 -19q61 -179 24 -418q-35 -217 -131 -385l-11 -18h98l4 8q96 168 130 387z" />
    <glyph glyph-name="asterisk" unicode="*" horiz-adv-x="394" 
d="M234 665h-88l-4 -107l-82 63l-54 -71l98 -46l-112 -46l31 -73l101 63l-29 -107h88l6 107l81 -63l55 72l-96 47l111 46l-33 71l-100 -63z" />
    <glyph glyph-name="plus" unicode="+" horiz-adv-x="517" 
d="M198 587l-28 -179h-186l-14 -84h186l-28 -180h86l28 180h185l14 84h-185l28 179h-86z" />
    <glyph glyph-name="comma" unicode="," horiz-adv-x="316" 
d="M114 118l-78 40l-112 -192l63 -28z" />
    <glyph glyph-name="hyphen" unicode="-" horiz-adv-x="321" 
d="M228 303h-261l-13 -86h261z" />
    <glyph glyph-name="period" unicode="." horiz-adv-x="284" 
d="M17 131q-29 0 -51 -19.5t-26 -45.5q-4 -25 11.5 -45t44.5 -20q30 0 52 20t26 45q4 26 -11.5 45.5t-45.5 19.5z" />
    <glyph glyph-name="slash" unicode="/" horiz-adv-x="423" 
d="M15 -3l383 735h-96l-383 -735h96z" />
    <glyph glyph-name="zero" unicode="0" horiz-adv-x="585" 
d="M-25 355q-7 -49 -9 -92.5t7 -93t30.5 -85t65.5 -59t107 -23.5q123 0 211 93q87 90 113 260q28 168 -30 260q-59 93 -183 93q-63 0 -114 -23.5t-84 -59t-57.5 -85.5t-36.5 -93.5t-20 -91.5zM73 353q7 47 20.5 89t36.5 84.5t61 68t86 25.5t79 -26t40.5 -65.5t11.5 -86
t-7 -87.5q-7 -47 -21 -89t-37.5 -84.5t-62 -68t-87.5 -25.5q-162 0 -120 265z" />
    <glyph glyph-name="one" unicode="1" horiz-adv-x="357" 
d="M190 575l-91 -575h105l112 705h-97l-5 -3l-189 -130l-6 -4l-19 -119l27 17q32 21 91 60.5t72 48.5z" />
    <glyph glyph-name="two" unicode="2" horiz-adv-x="606" 
d="M28 462h100l3 13q17 67 62 108.5t114 41.5q59 0 97 -35.5t30 -87.5q-7 -47 -43 -87q-18 -20 -58 -58q-3 -3 -64 -55l-349 -296h546l14 90h-319l184 156q39 33 62.5 54.5t54 55t48.5 68.5t24 72q14 92 -46.5 152t-162.5 60q-111 0 -191.5 -68.5t-101.5 -169.5z" />
    <glyph glyph-name="three" unicode="3" horiz-adv-x="580" 
d="M24 516h103l5 9q30 48 62.5 72t81.5 24q48 0 77.5 -26.5t23.5 -67.5q-8 -45 -58.5 -69t-110.5 -24h-73l-14 -86h73q83 -1 136.5 -31.5t43.5 -94.5q-9 -58 -61.5 -95t-118.5 -37t-98.5 28.5t-39.5 88.5l-1 10h-101l1 -16q5 -94 60.5 -147.5t160.5 -53.5q107 0 195 63
t104 161q9 56 -15.5 101.5t-75.5 72.5q86 50 99 131q12 78 -46.5 129.5t-144.5 51.5q-92 0 -160 -47.5t-101 -129.5z" />
    <glyph glyph-name="four" unicode="4" horiz-adv-x="631" 
d="M476 718l-532 -562h376l-25 -156h105l25 156h90l14 92h-90l75 470h-38zM334 248h-179l215 227z" />
    <glyph glyph-name="five" unicode="5" horiz-adv-x="599" 
d="M538 629l14 91h-363l-138 -368l26 9q100 35 174 35q72 0 110.5 -39.5t28.5 -102.5q-11 -67 -68.5 -113.5t-130.5 -46.5q-56 0 -90.5 28t-39.5 78l-2 10h-107v-15q0 -89 61.5 -140t160.5 -51q128 0 217 72q90 71 107 174q16 101 -44.5 168t-171.5 67q-39 0 -79 -8l56 152
h279z" />
    <glyph glyph-name="six" unicode="6" horiz-adv-x="559" 
d="M454 705l-127 -2l-251 -277q-108 -118 -122 -207q-15 -94 46 -157.5t165 -63.5q105 0 188.5 63t99.5 158q15 91 -39.5 155t-155.5 64q-27 0 -47 -4zM225 351q61 0 97 -37.5t27 -92.5q-8 -54 -56.5 -92t-108.5 -38t-97 38t-29 92q9 54 58 92t109 38z" />
    <glyph glyph-name="seven" unicode="7" horiz-adv-x="592" 
d="M564 710h-532l-15 -92h362l-456 -615l112 -3z" />
    <glyph glyph-name="eight" unicode="8" horiz-adv-x="584" 
d="M478 219q17 106 -96 171q98 52 111 137q13 82 -47 134t-151 52q-56 0 -111.5 -22.5t-96.5 -65.5t-49 -96q-14 -87 69 -140q-137 -63 -154 -176q-13 -86 48 -149q62 -63 178 -63q110 0 196.5 59t102.5 159zM283 624q51 0 82.5 -25.5t24.5 -68.5q-7 -41 -48.5 -71.5
t-89.5 -30.5t-82 30.5t-27 71.5q7 42 48 68t92 26zM237 343q62 0 104 -36t34 -89q-9 -58 -61.5 -93.5t-119.5 -35.5t-107 33.5t-31 89.5q9 55 63 93t118 38z" />
    <glyph glyph-name="nine" unicode="9" horiz-adv-x="567" 
d="M-4 -1l128 1l257 282q109 119 123 210q15 96 -46.5 160.5t-167.5 64.5q-107 0 -192 -63.5t-101 -160.5q-15 -93 41 -158t158 -65q15 0 49 4zM230 358q-63 0 -100 38t-28 94t58.5 94.5t111.5 38.5q61 0 98 -39t29 -94q-9 -55 -58.5 -93.5t-110.5 -38.5z" />
    <glyph glyph-name="colon" unicode=":" horiz-adv-x="284" 
d="M76 503q-29 0 -51 -20t-26 -45q-5 -26 11 -45t45 -19q30 0 51.5 19t26.5 45q4 25 -12 45t-45 20zM17 131q-29 0 -51 -19.5t-26 -45.5q-4 -25 11.5 -45t44.5 -20q30 0 52 20t26 45q4 26 -11.5 45.5t-45.5 19.5z" />
    <glyph glyph-name="semicolon" unicode=";" horiz-adv-x="316" 
d="M105 503q-29 0 -51 -20t-26 -45q-5 -26 10.5 -45t45.5 -19q29 0 50.5 19t26.5 45q4 25 -11.5 45t-44.5 20zM114 118l-78 40l-112 -192l63 -28z" />
    <glyph glyph-name="less" unicode="&#x3c;" horiz-adv-x="525" 
d="M403 122l15 91l-312 152l360 154l15 90l-498 -208l-12 -71z" />
    <glyph glyph-name="equal" unicode="=" horiz-adv-x="517" 
d="M442 415l13 84h-457l-13 -84h457zM413 233l13 83h-457l-13 -83h457z" />
    <glyph glyph-name="greater" unicode="&#x3e;" horiz-adv-x="525" 
d="M313 365l-360 -152l-15 -91l498 208l12 71l-432 208l-15 -90z" />
    <glyph glyph-name="question" unicode="?" horiz-adv-x="496" 
d="M20 543q-19 -35 -30 -98l-3 -14h95l3 14q20 127 132 127q44 0 69 -23t18 -62q-5 -33 -22 -49q-19 -18 -67 -59q-31 -27 -53 -51q-47 -54 -61 -146l-2 -13h97l2 14q3 35 16 60q13 29 40 53q11 9 32 27t24 20q80 64 91 135q12 79 -35 129t-134 50q-65 0 -122.5 -30
t-89.5 -84zM145 140q-29 0 -51 -19.5t-26 -45.5t11.5 -45t45.5 -19q29 0 50.5 19.5t25.5 44.5q4 26 -11.5 45.5t-44.5 19.5z" />
    <glyph glyph-name="at" unicode="@" horiz-adv-x="738" 
d="M400 481q-30 30 -80 30q-76 0 -123 -53t-57 -121q-7 -30 -2 -61.5t16.5 -58t40 -43.5t69.5 -17q65 0 107 45q9 -23 33.5 -35.5t53.5 -12.5q38 0 70.5 15.5t53.5 38.5t37.5 54t24.5 58t13 55q21 134 -59.5 218t-227.5 84q-158 0 -266 -97.5t-131 -241.5
q-24 -151 53.5 -246t243.5 -95q78 0 142 20l9 4l13 79l-22 -9q-43 -17 -130 -17q-113 0 -179 67q-65 65 -46 194q17 110 98 187.5t197 77.5q114 0 175 -61t45 -163q-10 -53 -29 -92q-27 -53 -62 -53q-32 0 -27 29l39 245h-89zM231 335q7 42 28 69t58 27t51.5 -27.5
t7.5 -68.5q-7 -42 -29.5 -69t-60.5 -27q-36 0 -49 27.5t-6 68.5z" />
    <glyph glyph-name="A" unicode="A" horiz-adv-x="801" 
d="M541 0h119l-7 19q-65 172 -243 671l-8 26l-18 -26l-452 -671l-13 -19h117l5 8q73 113 86 133h366zM460 241q-23 0 -67.5 -0.5t-66.5 -0.5t-67 0.5t-67 0.5q72 110 107 165q8 11 21.5 33.5l19.5 32.5l27 39q41 -114 93 -270z" />
    <glyph glyph-name="B" unicode="B" horiz-adv-x="670" 
d="M517 376q38 26 63 64.5t31 78.5q7 44 -10.5 90.5t-53.5 70.5q-35 23 -80 23h-437l-111 -703h436q56 0 102.5 40t74.5 92q23 43 31 95q7 45 -5 78t-41 71zM514 533l-5 -27q-4 -24 -33.5 -53t-52.5 -29h-336l31 193l335 -3q24 0 44.5 -28t16.5 -53zM425 312q50 -26 39 -101
q-6 -34 -24 -64t-44 -40q-7 -3 -16 -6q-1 0 -4 -1.5l-5 -2.5h-336l36 226l332 -1q6 -2 8 -4q12 -4 14 -6z" />
    <glyph glyph-name="C" unicode="C" horiz-adv-x="767" 
d="M576 292l-4 -9q-41 -83 -116 -136t-165 -53q-112 0 -174.5 77t-46.5 181t102 182t197 78q91 0 153.5 -55t71.5 -137v-10h92l2 14q3 16 -2 32q-2 16 -6 29q-27 97 -104.5 157t-189.5 60q-153 0 -271 -105.5t-140 -244.5q-22 -140 64.5 -244t240.5 -104q129 0 232 77.5
t153 194.5l7 16h-96z" />
    <glyph glyph-name="D" unicode="D" horiz-adv-x="644" 
d="M139 -1q161 0 278.5 101t140.5 248q11 67 -3 134.5t-58.5 124t-113.5 77.5q-62 20 -228 20h-124l-112 -704h15q34 0 102.5 -0.5t102.5 -0.5zM118 615h88q72 0 112 -10q78 -20 117 -96t26 -159q-16 -98 -99.5 -177t-186.5 -79h-142z" />
    <glyph glyph-name="E" unicode="E" 
d="M71 323h388l16 98h-388l31 194h460l13 87h-561l-111 -702h561l15 94h-460z" />
    <glyph glyph-name="F" unicode="F" 
d="M475 421h-388l31 194h460l13 87h-561l-111 -702h101l51 323h388z" />
    <glyph glyph-name="G" unicode="G" horiz-adv-x="765" 
d="M689 413l-1 15q1 50 -30 113q-37 73 -109 116.5t-164 43.5q-152 0 -270 -105t-140 -243q-14 -88 16 -167.5t103.5 -130.5t173.5 -51q122 0 236 74t153 182q15 39 21 80l4 23h-377l-16 -98h274q-38 -74 -116.5 -122.5t-162.5 -48.5q-110 0 -170 77.5t-44 180.5
q16 105 103 182.5t200 77.5q90 0 148 -53.5t72 -135.5l2 -10h94z" />
    <glyph glyph-name="H" unicode="H" 
d="M446 421h-359l44 281h-101l-111 -702h101l51 323h359l-51 -323h101l111 702h-101z" />
    <glyph glyph-name="I" unicode="I" horiz-adv-x="161" 
d="M20 0l111 702h-101l-111 -702h101z" />
    <glyph glyph-name="J" unicode="J" horiz-adv-x="407" 
d="M376 702h-101l-2 -13q-9 -54 -26 -161.5t-26 -161.5l-18 -123q-7 -40 -12 -64q-8 -30 -19 -48q-28 -40 -100 -40q-56 0 -106 50l-21 23l-18 -115l3 -4q42 -43 131 -43q112 0 166.5 51t71.5 154l75 482z" />
    <glyph glyph-name="K" unicode="K" horiz-adv-x="625" 
d="M331 0h153l-21 23q-25 26 -75 71t-67 62q-36 35 -108.5 99.5t-105.5 96.5q24 21 71 54q7 5 39.5 27.5t49.5 34.5q234 166 296 211l30 23h-153l-4 -3q-186 -134 -343 -243l38 246h-101l-111 -702h101l2 13q6 39 18.5 117t19.5 117q265 -241 268 -244z" />
    <glyph glyph-name="L" unicode="L" horiz-adv-x="549" 
d="M35 94l96 608h-101l-111 -702h489l15 94h-388z" />
    <glyph glyph-name="M" unicode="M" horiz-adv-x="673" 
d="M259 214q-1 3 -9 26q-3 9 -7.5 26t-6.5 26q-11 45 -35 135q-12 44 -36.5 133t-36.5 134l-2 8h-96l-111 -702h101l2 13q42 233 71 420q52 -193 124 -422l9 -29l18 29l126 207q112 191 133 224q0 -2 -0.5 -4t-0.5 -4q-3 -16 -9 -47t-8 -45l-54 -342h101l111 702h-94l-5 -8
q-7 -11 -29.5 -49.5t-62.5 -106.5t-67 -113q-53 -92 -96 -162q-5 -8 -15.5 -25t-14.5 -24z" />
    <glyph glyph-name="N" unicode="N" 
d="M591 702h-104l-2 -13q-26 -182 -40 -273l-36 -229q-192 336 -277 510l-4 6h-98l-108 -703h101l82 514q40 -76 86 -160t104.5 -189t88.5 -159l4 -6h92z" />
    <glyph glyph-name="O" unicode="O" horiz-adv-x="769" 
d="M684 353q14 90 -17.5 169.5t-105.5 129.5t-176 50q-153 0 -270.5 -105t-139.5 -244q-22 -138 63.5 -243t237.5 -105t269 105t139 243zM589 355q-16 -104 -102.5 -182.5t-197.5 -78.5q-112 0 -173.5 78t-45.5 182q17 104 103.5 181t198.5 77q111 0 172.5 -76.5
t44.5 -180.5z" />
    <glyph glyph-name="P" unicode="P" horiz-adv-x="628" 
d="M428 339q60 22 95.5 69.5t45.5 105.5q9 62 -12.5 110t-79.5 68q-30 10 -57 10q-125 1 -375 1h-15l-111 -703h101l51 323q49 1 148 1t148 1q23 1 61 14zM86 415l32 204l288 -2q4 0 12 -3l15 -7q26 -14 34 -35t3 -54q-10 -73 -69 -96l-13 -5q-1 0 -4 -1t-4 -1h-294z" />
    <glyph glyph-name="Q" unicode="Q" horiz-adv-x="786" 
d="M646 66q-39 47 -65 76q87 107 102 206q15 90 -16 170t-105 131t-176 51q-153 0 -271 -105.5t-140 -244.5q-15 -89 16.5 -168.5t106 -129.5t176.5 -50q114 0 207 59q6 4 20 12l6 5l72 -83l75 62zM525 208l-5 5q-6 6 -26 28q-23 24 -42 48l-9 12l-75 -63l8 -9l16 -19
q17 -18 28 -31q5 -5 9.5 -10.5t9.5 -11t7 -8.5q1 -3 5 -7h-1l-2 -1q-5 -3 -28 -15q-39 -20 -51 -23q-30 -12 -79 -12q-113 0 -175 77t-46 181q17 106 104 183t200 77q115 0 173 -80t41 -189q-7 -49 -35 -94l-4 -5q-3 -5 -6.5 -11t-7.5 -11q-6 -8 -9 -11z" />
    <glyph glyph-name="R" unicode="R" horiz-adv-x="638" 
d="M497 0l-150 325h21q27 2 60 14q60 22 95.5 69.5t45.5 105.5q9 62 -12.5 110t-79.5 68q-30 10 -57 10q-125 1 -375 1h-15l-111 -703h101l51 323l157 1l151 -324h118zM86 415l32 204l288 -2q4 0 12 -3l15 -7q26 -14 34 -35t3 -54q-10 -73 -69 -96l-13 -5q-1 0 -4 -1t-4 -1
h-294z" />
    <glyph glyph-name="S" unicode="S" 
d="M440 478h93l2 13q1 5 2.5 15.5t2.5 15.5q0 21 -2 32q-14 74 -76 110t-150 36q-105 0 -192.5 -51t-102.5 -146q-6 -38 4 -68t27 -47.5t50 -32t57.5 -21.5t64.5 -15q31 -6 78 -17q46 -12 65 -21q56 -27 47 -83q-6 -37 -37.5 -62.5t-71 -35t-85.5 -9.5q-79 0 -122.5 32.5
t-42.5 99.5l1 12h-96l-4 -27q-8 -53 17.5 -99.5t74.5 -72.5q60 -32 160 -32q72 0 134.5 18.5t112.5 65.5t61 116q6 40 -3.5 71.5t-27 51t-49.5 34.5t-58.5 22.5t-65.5 15.5q-13 3 -78 16q-43 10 -66 20q-57 23 -49 73q8 51 63.5 77.5t123.5 26.5q70 0 106.5 -30.5
t32.5 -91.5z" />
    <glyph glyph-name="T" unicode="T" 
d="M252 0l96 605h228l15 97h-561l-15 -97h232l-96 -605h101z" />
    <glyph glyph-name="U" unicode="U" horiz-adv-x="576" 
d="M176 -2q33 0 65 16l-15 -13q96 9 162.5 68t80.5 145l77 488h-101l-77 -488q-19 -114 -176 -114q-73 0 -109 26.5t-27 86.5l76 489h-102l-2 -13q-44 -293 -73 -476q-17 -106 43.5 -160.5t177.5 -54.5z" />
    <glyph glyph-name="V" unicode="V" horiz-adv-x="586" 
d="M211 184l-75 518h-106l104 -702h97l5 10q103 225 313 675l7 17h-106l-4 -9l-165 -359q-6 -14 -31 -67t-39 -83z" />
    <glyph glyph-name="W" unicode="W" horiz-adv-x="934" 
d="M904 702h-106l-4 -9q-109 -234 -240 -518l-48 527h-78l-4 -10q-33 -80 -103 -253.5t-107 -264.5l-78 528h-106l3 -16l99 -676v-10h116l4 10q32 80 91.5 227t80.5 200q7 -71 19.5 -213.5t19.5 -213.5v-10h116l4 10q137 300 314 675z" />
    <glyph glyph-name="X" unicode="X" horiz-adv-x="705" 
d="M670 702h-120l-4 -5q-39 -43 -117.5 -128.5t-117.5 -128.5q-87 143 -153 257l-4 5h-120l11 -20q59 -112 189 -330l-315 -352l126 1l5 6l233 258l154 -264l127 -1l-14 21q-27 47 -62 111q-15 29 -128 220z" />
    <glyph glyph-name="Y" unicode="Y" horiz-adv-x="700" 
d="M670 698l-119 2l-241 -271l-155 271h-125l214 -369l-53 -331h101l53 333z" />
    <glyph glyph-name="Z" unicode="Z" 
d="M15 605h424q-56 -57 -159 -161.5t-186.5 -190t-156.5 -162.5l-4 -4l-14 -87h561l15 97h-425q336 342 504 516l4 3l13 86h-561z" />
    <glyph glyph-name="bracketleft" unicode="[" horiz-adv-x="231" 
d="M188 757h-171l-129 -817h171l13 84h-83l103 648h83z" />
    <glyph glyph-name="backslash" unicode="\" horiz-adv-x="575" 
d="M434 -3l-301 735h-98l302 -735h97z" />
    <glyph glyph-name="bracketright" unicode="]" horiz-adv-x="231" 
d="M-69 -60h171l129 817h-171l-13 -85h83l-103 -648h-83z" />
    <glyph glyph-name="asciicircum" unicode="^" horiz-adv-x="584" 
d="M334 752h-69l-304 -487h86l233 375l117 -375h88z" />
    <glyph glyph-name="underscore" unicode="_" horiz-adv-x="522" 
d="M377 -23h-462l-11 -70h462z" />
    <glyph glyph-name="a" unicode="a" horiz-adv-x="580" 
d="M425 500l-9 -57q-62 57 -157 57q-112 0 -198 -73t-102 -175q-16 -101 48.5 -176.5t175.5 -75.5q88 0 173 60l-10 -62h93l78 502h-92zM193 88q-71 0 -111 49.5t-30 116.5q11 66 66 114.5t126 48.5t112 -49t30 -115q-11 -67 -66.5 -116t-126.5 -49z" />
    <glyph glyph-name="b" unicode="b" horiz-adv-x="581" 
d="M20 62q71 -64 157 -64q115 0 201 75t102 179t-45.5 178t-176.5 74q-91 0 -177 -61l41 259h-91l-112 -704h91zM51 253q11 66 66.5 115t126.5 49t111.5 -48.5t29.5 -114.5q-10 -67 -66.5 -116.5t-127.5 -49.5q-70 0 -110 49.5t-30 115.5z" />
    <glyph glyph-name="c" unicode="c" horiz-adv-x="579" 
d="M176 1q99 0 175 58t115 147l7 17h-96l-4 -10q-23 -54 -74 -89.5t-110 -35.5q-70 0 -109 49t-28 116t65 114.5t125 47.5q60 0 97.5 -35.5t47.5 -92.5l1 -9h94l-1 16q-10 91 -68 148.5t-158 57.5q-114 0 -197.5 -74.5t-99.5 -177.5q-15 -102 46 -174.5t172 -72.5z" />
    <glyph glyph-name="d" unicode="d" horiz-adv-x="581" 
d="M-41 252q-16 -104 46 -179t176 -75q87 0 177 64l-10 -64h92l110 704h-92l-40 -259q-68 61 -158 61q-114 0 -199.5 -74.5t-101.5 -177.5zM53 254q11 66 66.5 114.5t126.5 48.5t111.5 -49t29.5 -115q-10 -66 -66 -115.5t-126 -49.5q-71 0 -111.5 49.5t-30.5 116.5z" />
    <glyph glyph-name="e" unicode="e" horiz-adv-x="579" 
d="M479 276q2 16 -2 42q-14 81 -71 131.5t-149 50.5q-113 0 -197.5 -73.5t-100.5 -176.5q-16 -102 44.5 -176t172.5 -74q98 0 175 59t115 147l7 17h-96l-4 -10q-23 -54 -74 -89.5t-110 -35.5q-66 0 -104.5 44.5t-33.5 106.5h421l2 14q0 3 2 11zM374 333h-288q26 38 67 60
t89 22q97 0 132 -82z" />
    <glyph glyph-name="f" unicode="f" horiz-adv-x="433" 
d="M294 502h-111q4 29 7 39q5 25 14 38q22 31 83 31q43 0 75 -24l20 -17l16 102l-6 3q-43 27 -109 27q-50 0 -100.5 -24.5t-73.5 -65.5q-12 -21 -21 -62q-1 -3 -4.5 -21t-4.5 -26h-80l-16 -98h81l-64 -404h103l64 404h111z" />
    <glyph glyph-name="g" unicode="g" horiz-adv-x="580" 
d="M425 500l-9 -57q-63 57 -157 57q-112 0 -198 -73.5t-102 -174.5q-16 -100 49 -176t175 -76q87 0 173 61l-8 -50q-9 -58 -59.5 -87.5t-121.5 -29.5q-73 0 -100 23t-39 88l-2 9h-92l-1 -14q-7 -97 44.5 -146.5t158.5 -49.5q272 0 305 207q11 71 36 230.5t38 244.5l2 14h-92
zM52 254q11 66 66 114.5t126 48.5t112 -49t30 -115q-10 -66 -66 -115.5t-127 -49.5q-70 0 -110.5 49.5t-30.5 116.5z" />
    <glyph glyph-name="h" unicode="h" horiz-adv-x="556" 
d="M412 0l52 308q8 43 -6.5 87t-49.5 69q-62 42 -160 42q-94 0 -160 -36l36 232h-94l-111 -702h94l2 13q17 101 49 303q8 49 56.5 74.5t111.5 25.5q62 0 102.5 -26t32.5 -75q-9 -53 -24.5 -154.5t-22.5 -147.5l-2 -13h94z" />
    <glyph glyph-name="i" unicode="i" horiz-adv-x="191" 
d="M15 604q-4 -24 12.5 -43.5t43.5 -19.5q26 0 49.5 19.5t27.5 43.5q4 23 -13.5 43t-43.5 20q-27 0 -50 -20t-26 -43zM118 506h-105l-80 -508h105z" />
    <glyph glyph-name="j" unicode="j" horiz-adv-x="379" 
d="M204 609q-4 -24 12.5 -43.5t43.5 -19.5q26 0 49.5 19.5t27.5 43.5q3 23 -14 43t-43 20q-27 0 -50 -20t-26 -43zM-49 -184q34 -15 64 -15q50 0 101 32q68 43 95 111q12 33 17 63q1 3 12 65q11 70 32 210t32 210l2 14h-102l-72 -460q-8 -60 -27 -94q-26 -43 -76 -43
q-33 0 -52 7t-41 28l-22 22l-18 -114l27 -20q20 -13 28 -16z" />
    <glyph glyph-name="k" unicode="k" horiz-adv-x="576" 
d="M55 160l213 -160h164l-329 254q185 111 369 225l39 24h-171l-5 -3q-42 -25 -124.5 -76t-123.5 -76l56 354h-109l-111 -700h106z" />
    <glyph glyph-name="l" unicode="l" horiz-adv-x="167" 
d="M33 702l-112 -700h104l112 700h-104z" />
    <glyph glyph-name="m" unicode="m" horiz-adv-x="786" 
d="M643 0l51 311q9 48 -1.5 93.5t-48.5 69.5q-50 34 -121 34q-100 0 -171 -67q-44 65 -147 65q-68 0 -119 -32l4 26h-92l-79 -500h92l51 321q7 45 42 70t86 25t77.5 -27t19.5 -73l-49 -316h90l2 13q35 213 49 295q17 110 127 110q51 0 77.5 -27t19.5 -73q-7 -48 -23 -150
t-24 -155l-2 -13h89z" />
    <glyph glyph-name="n" unicode="n" horiz-adv-x="556" 
d="M412 0l52 308q8 43 -6.5 87t-49.5 69q-62 42 -160 42q-94 0 -160 -36l4 30h-94l-79 -500h94l2 13q17 101 49 303q8 49 56.5 74.5t111.5 25.5q62 0 102.5 -26t32.5 -75q-9 -53 -24.5 -154.5t-22.5 -147.5l-2 -13h94z" />
    <glyph glyph-name="o" unicode="o" horiz-adv-x="576" 
d="M-41 253q-15 -100 47 -175t172 -75q112 0 197 76t101 177q16 100 -45 175t-172 75t-197.5 -76t-102.5 -177zM245 417q71 0 109.5 -48.5t27.5 -114.5q-11 -67 -66 -115t-127 -48q-70 0 -108.5 48t-28.5 114q11 67 66 115.5t127 48.5z" />
    <glyph glyph-name="p" unicode="p" horiz-adv-x="582" 
d="M480 247q16 104 -46 179t-177 75q-86 0 -178 -64l10 64h-91l-110 -697h91l40 252q69 -61 159 -61q114 0 200 74.5t102 177.5zM384 245q-11 -67 -66.5 -115.5t-126.5 -48.5t-111.5 49t-29.5 116t66.5 116t126.5 49t111.5 -50t29.5 -116z" />
    <glyph glyph-name="q" unicode="q" horiz-adv-x="582" 
d="M417 437q-69 64 -157 64q-114 0 -200 -75t-102 -179q-16 -103 46 -177.5t175 -74.5q93 0 178 61l-40 -252h93l110 697h-93zM387 246q-11 -67 -67 -116t-127 -49t-111.5 49t-29.5 115q11 67 67 116.5t127 49.5t111.5 -49t29.5 -116z" />
    <glyph glyph-name="r" unicode="r" horiz-adv-x="397" 
d="M320 401l15 96l-12 2q-34 7 -75 7q-94 0 -160 -36l4 30h-94l-79 -500h94l2 13q17 101 49 303q8 49 56.5 74.5t111.5 25.5q32 0 69 -10z" />
    <glyph glyph-name="s" unicode="s" horiz-adv-x="479" 
d="M282 327h91l2 14q3 13 3 27q2 9 0 28q-8 55 -56.5 82.5t-112.5 27.5q-78 0 -144 -38.5t-77 -110.5q-6 -35 4 -60t35 -40t47.5 -22.5t56.5 -15.5q25 -4 54 -11q32 -7 45 -13q36 -16 32 -47q-5 -31 -39.5 -46t-79.5 -15q-53 0 -79 21t-23 66l1 12h-93l-4 -22
q-13 -81 42 -122t143 -41q84 0 152 37t80 113q6 37 -4 63.5t-34.5 42.5t-48 24.5t-57.5 15.5q-7 2 -26 5.5t-29 5.5q-26 4 -46 12q-37 15 -33 41q5 28 38.5 43t74.5 15q47 0 67.5 -19t18.5 -61z" />
    <glyph glyph-name="t" unicode="t" horiz-adv-x="368" 
d="M70 409q-16 -94 -23 -141l-15 -89q-9 -78 -6 -89q11 -42 53.5 -67t92.5 -25q21 0 42 3l14 2l14 90l-16 -2q-14 -1 -40 -1q-3 0 -27 6q-23 8 -28.5 29.5t0.5 50.5l37 233h111l14 90h-111l16 102h-103l-16 -102h-81l-14 -90h86z" />
    <glyph glyph-name="u" unicode="u" horiz-adv-x="556" 
d="M1 500l-51 -308q-8 -44 6.5 -87.5t49.5 -67.5q62 -43 160 -43q93 0 160 36l-5 -29h94l79 499h-94l-2 -14q-8 -50 -24.5 -151t-24.5 -152q-8 -48 -56 -73t-110 -25q-63 0 -104 25t-33 74q32 202 47 302l2 14h-94z" />
    <glyph glyph-name="v" unicode="v" horiz-adv-x="568" 
d="M507 503h-113l-6 -12q-23 -41 -192 -346q-10 37 -82 346l-2 12h-113l7 -19q-1 -3 1 -5q14 -55 40 -165q44 -181 71 -302l2 -12h101l5 4l1 2q1 1 2.5 3t2.5 5q4 4 9 14q3 5 7 12.5t10 18.5t10 18q12 22 40.5 74t42.5 77q23 42 58 105t55.5 99.5t26.5 46.5q0 2 3 5z" />
    <glyph glyph-name="w" unicode="w" horiz-adv-x="695" 
d="M634 504h-93l-7 -13q-147 -320 -151 -329q-29 324 -30 329l-2 13h-68l-6 -13q-25 -60 -70 -171t-64 -158q-1 7 -48 329l-2 13h-94l4 -23q23 -141 69 -468l2 -13h95l4 10q20 49 56 137.5t51 124.5q4 -52 13.5 -150.5t10.5 -111.5l1 -10h94l6 13q40 86 114 245.5t104 222.5
z" />
    <glyph glyph-name="x" unicode="x" horiz-adv-x="546" 
d="M481 505l-104 -2l-5 -3q-7 -6 -84 -89q-59 -65 -74 -83q-3 5 -21 34.5t-29 47.5q-15 26 -36 59q-8 13 -11 20l-3 3l-1 2l-12 10q-6 0 -17.5 0.5t-16.5 0.5q-6 0 -18.5 -0.5t-18.5 -0.5h-28l16 -28q74 -136 128 -223l-227 -253l108 1l5 3l5 5l6 6q1 1 7 7.5t11 11.5l54 60
q9 10 37 40.5t38 42.5l103 -176l112 -1l-14 21q-32 56 -47 84q-17 29 -87 148z" />
    <glyph glyph-name="y" unicode="y" horiz-adv-x="520" 
d="M365 500l-188 -357l-86 357h-93l4 -18q24 -101 56 -248q3 -14 16 -71.5t19 -82.5q2 -10 6 -27t5 -24q1 -2 2 -7t2 -7v-2q0 -1 -3 -6q-2 -7 -6 -12q-2 -5 -6.5 -13.5t-5.5 -10.5q-22 -41 -48.5 -58t-72.5 -17h-15l-10 -58l-4 -27l8 -4q5 -3 9 -3h6q90 0 146 59
q30 29 81 119q14 25 36 69t31 59l204 390h-93z" />
    <glyph glyph-name="z" unicode="z" horiz-adv-x="467" 
d="M-15 418h284q-37 -38 -105 -106.5t-123.5 -125t-104.5 -107.5l-5 -4l-12 -73h407l14 85h-284q68 70 169 171q84 86 115 117q15 16 37 38q4 5 10 11l8 12l11 67h-407z" />
    <glyph glyph-name="braceleft" unicode="{" horiz-adv-x="333" 
d="M50 451q-21 -55 -75 -55h-15l-15 -94l14 -1q45 -1 54 -37q8 -32 -2 -96q-14 -89 -14 -115q-2 -67 33 -94q28 -22 92 -22h38l15 92h-15q-19 0 -30 1q-19 2 -24 5q-9 5 -9 24q0 12 14 107q14 87 -2 130q-11 31 -42 54q28 16 45 34q32 33 46 96q8 30 19 98q2 22 5 34
q4 22 8 31q7 15 16 19t25 6q11 1 30 1h15l15 91h-15q-42 0 -52 -1q-31 -2 -56 -13q-31 -15 -54 -47q-23 -31 -39 -123q-5 -38 -12 -69q-4 -30 -13 -56z" />
    <glyph glyph-name="bar" unicode="|" horiz-adv-x="150" 
d="M137 809h-90l-135 -851h90z" />
    <glyph glyph-name="braceright" unicode="}" horiz-adv-x="333" 
d="M181 264q19 36 66 37l14 1l15 94h-15q-25 0 -40 15q-14 14 -17 39q-2 25 3 54q3 27 8 57q14 85 7 123q-6 34 -34 56q-27 20 -89 20h-38l-15 -91h15q23 0 35 -1q16 -3 22 -10q8 -8 5 -40q0 -3 -11 -76q-19 -118 10 -160q10 -17 32 -33q-36 -19 -59 -53q-30 -42 -44 -131
q-6 -50 -7 -55q-6 -33 -13 -52q-8 -18 -16 -23q-9 -4 -25 -5q-11 -1 -30 -1h-15l-15 -92h15q38 0 58 2q38 3 64 20q45 29 63 93q5 17 23 116q11 69 28 96z" />
    <glyph glyph-name="asciitilde" unicode="~" horiz-adv-x="519" 
d="M431 333l16 101l-26 -15q-26 -15 -53 -28q-39 -17 -51 -17q-14 0 -41 10q-16 6 -50 24q-74 36 -114 36q-28 0 -65 -15q-17 -7 -57 -28l-8 -4l-15 -97l25 13q26 15 54 26q30 14 51 14q17 0 41 -9q8 -3 48 -22q72 -34 117 -34q27 0 64 15q7 3 56 26z" />
    <glyph glyph-name="exclamdown" unicode="&#xa1;" horiz-adv-x="224" 
d="M76 571q-29 0 -51 -20t-26 -45t11.5 -45t44.5 -20t51.5 20.5t26.5 45.5q5 25 -11.5 44.5t-45.5 19.5zM5 404l-77 -488h91l77 488h-91z" />
    <glyph glyph-name="cent" unicode="&#xa2;" horiz-adv-x="513" 
d="M104 -38h81l12 77q73 10 129.5 55t75.5 110l5 15h-103l-5 -11q-26 -61 -87 -74l48 302q60 -15 63 -77l1 -11h102l1 15q3 66 -39.5 112.5t-112.5 55.5l12 77h-81l-12 -78q-98 -14 -156.5 -83.5t-73.5 -160.5q-14 -93 22 -162.5t130 -83.5zM179 433l-47 -296
q-81 27 -62 149q21 120 109 147z" />
    <glyph glyph-name="sterling" unicode="&#xa3;" horiz-adv-x="507" 
d="M107 140q50 42 62 120q5 23 5 44h171l13 79h-193q-3 28 4 64q7 46 42 72t87 26q66 0 103 -17l19 -8l15 90l-9 3q-43 21 -119 21q-96 0 -161.5 -52.5t-79.5 -139.5q-4 -27 -4 -59h-82l-13 -79h103q3 -20 -1 -47q-8 -47 -37.5 -79t-77.5 -39l-13 -1l-13 -84h447l13 86h-281
z" />
    <glyph glyph-name="yen" unicode="&#xa5;" horiz-adv-x="535" 
d="M502 684h-103l-171 -234l-96 234h-105l127 -305h-139l-12 -75h156l-6 -37h-156l-12 -76h156l-22 -144h91l22 144h158l12 76h-158l6 37h158l12 75h-141z" />
    <glyph glyph-name="copyright" unicode="&#xa9;" horiz-adv-x="753" 
d="M723 373q0 136 -98 238t-248 102q-148 0 -247.5 -101.5t-99.5 -236.5q0 -86 43.5 -163.5t124 -126.5t178.5 -49q149 0 248 101t99 236zM648 374q0 -108 -77.5 -187.5t-193.5 -79.5q-115 0 -193 80.5t-78 186.5q0 114 81 191q82 77 190 77q116 0 193.5 -80t77.5 -188z
M562 358q-9 -2 -42 -2h-11l-3 -10q-14 -41 -46.5 -67t-75.5 -26q-53 0 -89 36.5t-36 86.5t35.5 87.5t88.5 37.5q43 0 77 -27.5t45 -68.5l3 -10h69v13q0 20 -12 42q-26 53 -72.5 86.5t-108.5 33.5q-86 0 -142.5 -58.5t-56.5 -135.5t58 -135t143 -58q74 0 124.5 46t68.5 112
l5 20z" />
    <glyph glyph-name="guillemotleft" unicode="&#xab;" horiz-adv-x="447" 
d="M63 319l138 240h-93l-138 -240l62 -238h93zM256 319l139 240h-95l-136 -240l60 -238h95z" />
    <glyph glyph-name="registered" unicode="&#xae;" horiz-adv-x="753" 
d="M723 374q0 135 -98.5 237.5t-247.5 102.5q-148 0 -247.5 -101.5t-99.5 -236.5q0 -87 43 -164.5t123.5 -126.5t178.5 -49q148 0 248 102t100 236zM567 185q-81 -78 -190 -78q-114 0 -193 80.5t-79 186.5q0 115 81 192q81 78 191 78q115 0 192.5 -81t77.5 -188
q0 -111 -80 -190zM556 184l-101 163q40 5 63.5 34t23.5 69q0 77 -68 99q-21 6 -32 6h-208v-371h76v161h58l99 -161h89zM310 412v77l130 -1h2l6 -3q19 -6 19 -32q0 -15 -8 -28t-16 -13h-133z" />
    <glyph glyph-name="guillemotright" unicode="&#xbb;" horiz-adv-x="447" 
d="M70 320l-138 -239h94l137 239l-61 239h-94zM264 320l-138 -239h93l138 239l-62 239h-93z" />
    <glyph glyph-name="questiondown" unicode="&#xbf;" horiz-adv-x="496" 
d="M180 374q29 0 51 19.5t27 44.5q4 26 -11.5 45.5t-45.5 19.5q-29 0 -50.5 -19.5t-25.5 -45.5q-5 -25 10 -44.5t45 -19.5zM305 -30q17 30 31 98l2 14h-95l-1 -14q-20 -127 -133 -127q-44 0 -69 23t-19 62q5 33 23 49q28 27 67 60q37 33 52 50q47 53 63 146l2 13h-98l-2 -13
q-6 -41 -16 -61q-12 -27 -40 -53q-16 -14 -57 -47q-79 -63 -90 -134q-13 -80 34 -130t135 -50q64 0 122 30t89 84z" />
    <glyph glyph-name="multiply" unicode="&#xd7;" horiz-adv-x="627" 
d="M319 371l261 221l-51 57l-259 -221l-189 221l-68 -56l190 -222l-259 -219l49 -59l259 220l190 -221l66 60z" />
    <glyph glyph-name="divide" unicode="&#xf7;" horiz-adv-x="683" 
d="M326 599q-26 0 -46 -18t-23 -41q-4 -22 10 -40.5t40 -18.5q27 0 46.5 18t23.5 41q3 23 -10.5 41t-40.5 18zM-26 344h623l13 84h-623zM276 286q-26 0 -45.5 -17.5t-23.5 -40.5q-3 -23 11 -41t40 -18q27 0 46.5 18t22.5 41q4 22 -10 40t-41 18z" />
    <glyph glyph-name="endash" unicode="&#x2013;" horiz-adv-x="522" 
d="M-35 292h462l13 77h-462z" />
    <glyph glyph-name="emdash" unicode="&#x2014;" horiz-adv-x="954" 
d="M-35 292h894l13 77h-894z" />
    <glyph glyph-name="quoteleft" unicode="&#x2018;" horiz-adv-x="227" 
d="M-2 463q-8 -12 -10 -30q-4 -25 11.5 -44.5t44.5 -19.5t51 19t27 45q4 25 -14 46l74 124l-64 29z" />
    <glyph glyph-name="quoteright" unicode="&#x2019;" horiz-adv-x="226" 
d="M166 550q9 13 11 30q4 26 -11 45.5t-45 19.5t-51.5 -19.5t-25.5 -45.5q-3 -25 13 -45l-73 -125l64 -28z" />
    <glyph glyph-name="quotesinglbase" unicode="&#x201a;" horiz-adv-x="227" 
d="M-19 58l-72 -124l63 -29l119 169q9 15 12 30q4 26 -11 45t-45 19t-52 -18.5t-26 -45.5q-4 -21 11 -45z" />
    <glyph glyph-name="quotedblleft" unicode="&#x201c;" horiz-adv-x="375" 
d="M-2 463q-8 -14 -10 -30q-4 -25 10.5 -44.5t44.5 -19.5q29 0 51 19t27 45q3 28 -13 47l73 123l-64 29zM146 458q-10 -15 -12 -30q-4 -25 11.5 -44.5t44.5 -19.5q30 0 52 19t26 45q3 24 -13 46l74 125l-65 27z" />
    <glyph glyph-name="quotedblright" unicode="&#x201d;" horiz-adv-x="375" 
d="M171 579q10 14 11 29q4 26 -10.5 45.5t-44.5 19.5t-51.5 -19t-26.5 -46q-4 -29 12 -46l-72 -124l63 -28zM318 573q10 15 12 30q4 26 -11.5 45.5t-44.5 19.5q-30 0 -52 -19.5t-26 -45.5q-5 -24 13 -45l-73 -125l63 -28z" />
    <glyph glyph-name="quotedblbase" unicode="&#x201e;" horiz-adv-x="375" 
d="M90 71q9 12 11 30q4 26 -11 45.5t-45 19.5q-29 0 -50.5 -19.5t-25.5 -45.5q-4 -29 12 -46l-73 -124l64 -28zM237 66q11 15 12 30q4 25 -11 45t-44 20q-30 0 -52 -19.5t-27 -45.5q-4 -28 13 -46l-72 -123l62 -30z" />
    <glyph glyph-name="bullet" unicode="&#x2022;" horiz-adv-x="349" 
d="M138 477q-63 0 -110 -42t-56 -99q-9 -56 25 -98.5t96 -42.5q63 0 111 42.5t57 98.5t-25.5 98.5t-97.5 42.5z" />
    <glyph glyph-name="ellipsis" unicode="&#x2026;" horiz-adv-x="785" 
d="M396 277q5 28 -12 49t-49 21t-55.5 -21t-28.5 -49q-4 -27 13 -49t49 -22q31 0 54.5 21.5t28.5 49.5zM108 276q4 28 -12.5 49t-48.5 21t-55.5 -21t-28.5 -49q-5 -27 12.5 -49t49.5 -22q31 0 54.5 21.5t28.5 49.5zM688 276q5 28 -12 49t-50 21q-31 0 -54.5 -21t-28.5 -49
t12.5 -49.5t49.5 -21.5t55 21.5t28 49.5z" />
    <glyph glyph-name="guilsinglleft" unicode="&#x2039;" horiz-adv-x="252" 
d="M62 319l138 240h-93l-137 -240l61 -238h93z" />
    <glyph glyph-name="guilsinglright" unicode="&#x203a;" horiz-adv-x="253" 
d="M70 320l-138 -239h93l138 239l-62 239h-93z" />
    <glyph glyph-name="Euro" unicode="&#x20ac;" horiz-adv-x="560" 
d="M427 49l15 95l-19 -5q-30 -7 -82 -7q-69 0 -115 33.5t-58 92.5h229l12 78h-244q2 14 4 20l3 24h244l13 78h-228q31 57 87 89.5t124 32.5q42 0 81 -6l17 -3l14 92l-7 3q-22 11 -90 11q-114 0 -206 -59.5t-134 -159.5h-95l-7 -39l-6 -39h83l-3 -24q-2 -6 -4 -20h-83
l-12 -78h94q8 -102 81.5 -162t190.5 -60q61 0 91 9z" />
    <glyph glyph-name="trademark" unicode="&#x2122;" horiz-adv-x="890" 
d="M642 430q-13 20 -24 40q-4 7 -17 29.5t-19 32.5q-15 27 -43 75t-36 61l-4 7h-73v-369h78l1 13l3 195q50 -83 124 -200l13 -20l13 20q22 35 64 105q20 33 60 97q0 -33 -0.5 -98.5t-0.5 -98.5v-13h79v369h-72l-5 -7q-14 -26 -80 -136l-48 -82q-11 -17 -13 -20zM241 610h137
v63h-348v-63h139v-312h72v312z" />
    <glyph glyph-name="uni3008" unicode="&#x3008;" horiz-adv-x="341" 
d="M147 54l70 50l-148 245l226 251l-55 44l-265 -294z" />
    <glyph glyph-name="uni3009" unicode="&#x3009;" horiz-adv-x="341" 
d="M-10 54l266 296l-172 294l-70 -44l147 -251l-224 -245z" />
    <glyph glyph-name="uni300A" unicode="&#x300a;" horiz-adv-x="467" 
d="M146 54l71 50l-148 245l227 251l-57 43l-264 -293zM272 54l71 50l-150 245l228 251l-57 43l-264 -293z" />
    <glyph glyph-name="uni300B" unicode="&#x300b;" horiz-adv-x="467" 
d="M-9 54l267 296l-173 293l-71 -43l148 -251l-225 -245zM117 54l265 296l-171 293l-71 -43l147 -251l-225 -245z" />
    <glyph glyph-name="LF" horiz-adv-x="0" 
 />
    <glyph glyph-name="_FSHallmark" horiz-adv-x="754" 
d="M71 603h630v-74h-630v74zM619 388q0 9 -5 17q-4 5 -14 13q-12 6 -18 8q-14 2 -18 2q-20 0 -36 -9q-16 -10 -16 -22q0 -23 14 -31q16 -9 34 -13l27 -6l23 -6q13 -4 22 -5q7 -1 19 -5q2 -2 8 -4.5t8 -3.5q15 -9 24 -21q7 -14 9 -33q1 -21 -8 -38q-20 -32 -55 -44
q-37 -12 -72 -12q-27 0 -51 7t-44 21t-32 36q-12 21 -12 49l73 -1q0 -3 3 -11q2 -12 11 -20q9 -9 19 -13q13 -7 36 -7q25 0 40 9q15 7 15 19q0 22 -60 36q-56 14 -92 33q-38 20 -38 63q0 36 25 57q24 20 55 30q24 6 52 6q36 0 72 -14q33 -14 50 -50q8 -21 8 -37h-76z
M154 175h-83v313h265v-71h-182v-70h151v-70h-151v-102zM329 213q0 16 11 27q10 10 27 10q16 0 30 -11q12 -11 12 -26t-12 -26q-13 -10 -30 -10q-15 0 -26 11q-12 11 -12 25zM69 136h631v-75h-631v75z" />
    <glyph glyph-name="_Fontastica" horiz-adv-x="754" 
d="M218 113h-87q-1 1 -1 4v510h382v-78h-294v-210h295v-79h-295v-147zM273 481h296v146h87v-513h-383v78h296v210h-296v79zM569 63q-5 -3 -5 -8q0 -7 4 -11q3 -4 9 -4q7 0 14 4l4 -4q-6 -9 -18 -9q-8 0 -16 5q-6 8 -7 16q-1 10 6 17q8 8 17 8q10 0 18 -8l-4 -6l-2 1l-3 3
t-7 1h-2q-6 -2 -8 -5zM131 76h32v-8h-21v-12h20v-7h-20v-17h-11v44zM203 76q15 0 22 -12q6 -8 2 -20q-5 -12 -19 -13l-6 -2q-6 0 -9 3q-14 6 -14 19q0 11 7 18q6 7 17 7zM288 32h-3q-1 -1 -3 -1t-7 5l-4 6q-1 1 -2 3t-2 3l-9 11v-27h-10v44h8q3 -1 5 -6q7 -7 10 -11
q7 -12 8 -13v30h9v-44zM307 76h37v-8h-14v-36h-9v36h-14v8zM444 55q9 -1 9 -10q1 -9 -8 -13q-1 -1 -8 -1q-14 0 -21 7q1 1 1 2l1 1q0 2 1 3l14 -4h6q3 3 3 2q0 8 -10 9q-1 0 -2 1t-4 1q-7 1 -7 10q-1 7 6 11q6 2 10 2q11 0 18 -4l-4 -8q-1 1 -3 1q-1 0 -2 1t-3 1q-1 0 -2 1
h-6q-3 0 -3 -3q-2 -1 3 -6q5 -1 11 -4zM468 76h38v-8h-14v-36h-10v36h-14v8zM524 76h11v-44h-11v44zM640 76l9 -21q1 -4 5 -12q1 -6 5 -11h-10l-4 9h-21l-4 -9h-10q11 21 18 44h12zM382 74q2 -5 5 -10t5 -10q0 -1 1.5 -5t2.5 -6t2.5 -6t1.5 -5h-10q-1 1 -1 4l-1 2q0 2 -1 3
h-20q-1 -1 -1 -5q-1 -1 -1 -2l-2 -2h-9l18 42h10zM216 54q0 6 -3 10q-4 4 -11 4q-1 -1 -3 -1q-4 -1 -8 -7t-1 -11q3 -10 13 -10q3 0 4 1q9 2 9 13v1zM384 49l-1 2q-1 1 -1 2t-1 2t-1 2q-1 1 -1 4q-1 0 -1 2q0 1 -1 2l-8 -16h15zM641 49q-1 1 -1 4q0 1 -1 2t-1 2t-1 2t-1 2
l-1 2q-1 1 -1 2l-7 -16h14z" />
    </font>
</defs>
</svg>
